<?xml version="1.0" encoding="iso-8859-1"?>
<!-- Generator: Adobe Illustrator 16.0.0, SVG Export Plug-In . SVG Version: 6.00 Build 0)  -->
<!DOCTYPE svg PUBLIC "-//W3C//DTD SVG 1.1//EN" "http://www.w3.org/Graphics/SVG/1.1/DTD/svg11.dtd">
<svg version="1.1" id="Capa_1" xmlns="http://www.w3.org/2000/svg" xmlns:xlink="http://www.w3.org/1999/xlink" x="0px" y="0px"
	 width="79.536px" height="79.536px" viewBox="0 0 79.536 79.536" style="enable-background:new 0 0 79.536 79.536;"
	 xml:space="preserve">
<g>
	<path style="fill:#010002;" d="M53.268,54.442l-7.39,20.299l-1.532-0.57l7.177-19.729H53.268z M43.315,54.442l-7.18,19.729
		l1.538,0.57l7.387-20.299H43.315z M35.103,54.442l-7.179,19.729l1.538,0.57l7.387-20.299H35.103z M26.888,54.442l-7.18,19.729
		l1.538,0.57l7.387-20.299H26.888z M59.745,54.442l-7.182,19.729l1.538,0.57l7.384-20.299H59.745z M18.675,54.442l-7.18,19.729
		l1.538,0.57l7.386-20.299H18.675z M64.623,19.705c-1.864,0-3.63,0.381-5.261,1.002c-1.424-9.005-9.155-15.912-18.561-15.912
		c-10.414,0-18.844,8.44-18.844,18.851c0,0.228,0.062,0.456,0.072,0.694c-0.238-0.021-0.466-0.075-0.699-0.075
		c-5.605,0-10.149,4.533-10.149,10.139c0,0.085,0.021,0.142,0.021,0.207c-0.8-0.238-1.626-0.404-2.501-0.404
		C3.892,34.206,0,38.101,0,42.896c0,4.815,3.892,6.628,8.702,6.628c1.336,0,14.253,0,27.333,0c5.186,0,10.367,0,14.898,0
		c7.456,0,13.095,0,13.69,0c8.233,0,14.913-6.67,14.913-14.903C79.536,26.375,72.856,19.705,64.623,19.705z"/>
</g>
<g>
</g>
<g>
</g>
<g>
</g>
<g>
</g>
<g>
</g>
<g>
</g>
<g>
</g>
<g>
</g>
<g>
</g>
<g>
</g>
<g>
</g>
<g>
</g>
<g>
</g>
<g>
</g>
<g>
</g>
</svg>
