<?xml version="1.0" ?><svg data-name="Layer 1" id="Layer_1" viewBox="0 0 128 128" xmlns="http://www.w3.org/2000/svg"><defs><style>.cls-1{fill:#84b0b7;}.cls-2{fill:#eaeaea;}.cls-3{fill:#bee3e5;}</style></defs><title/><circle class="cls-1" cx="39.33545" cy="95.60229" r="12.23424"/><path class="cls-1" d="M109.44043,53.85547a2.4997,2.4997,0,0,0-3.15039-1.606l-7.07129,2.29785,1.72168-4.1582a2.50028,2.50028,0,0,0-1.35449-3.26758,2.50978,2.50978,0,0,0-3.26465,1.35449L92.9668,56.57861l-4.543,1.47608,5.27148-12.73194a2.49962,2.49962,0,0,0-1.35547-3.26757,2.50826,2.50826,0,0,0-3.26367,1.35449L82.17188,60.08643l-9.167,2.978v-9.895L86.376,41.75293a2.49958,2.49958,0,1,0-3.24512-3.80273l-10.126,8.6455V42.13477l6.78028-5.78907A2.49976,2.49976,0,1,0,76.54,32.54248L73.00488,35.561V28.06641a2.5,2.5,0,0,0-5,0v7.49511L64.46875,32.543a2.49971,2.49971,0,1,0-3.24609,3.80224l6.78222,5.79v4.55518L57.76855,37.95068A2.49966,2.49966,0,1,0,54.52148,41.752l13.4834,11.5127v9.80029L58.63574,60.021,54.43652,49.87793a2.49974,2.49974,0,0,0-4.61914-.001,2.48123,2.48123,0,0,0,0,1.91358l2.60254,6.28467a2.49965,2.49965,0,0,0-1.5,4.624l-.09961.06152a2.5,2.5,0,1,0,2.61328,4.2627l3.66309-2.24512,9.3623,3.042-5.78906,7.96826L55.30859,76.21a2.50032,2.50032,0,0,0,.39063,4.98535l1.10547-.08691-.04.05517a2.50482,2.50482,0,0,0,.55469,3.49219,2.56939,2.56939,0,0,0,3.49121-.55322l.042-.05713,3.09863,12.8999a2.51913,2.51913,0,0,0,3.01465,1.84522,2.49968,2.49968,0,0,0,1.84668-3.01465L64.7168,78.72656l5.78808-7.96679L76.292,78.72559,72.20312,95.74023a2.50151,2.50151,0,0,0,1.84766,3.01514,2.52419,2.52419,0,0,0,3.01563-1.84717L80.15625,84.044,82.792,87.67236l-2.06933,8.61231a2.50149,2.50149,0,0,0,1.84765,3.01513,2.52372,2.52372,0,0,0,3.01563-1.84716l1.07129-4.46094,4.41894,6.083a2.50023,2.50023,0,0,0,4.04492-2.93994l-4.46484-6.146,4.709.37012A2.53618,2.53618,0,0,0,98.03906,88.062a2.50094,2.50094,0,0,0-2.29687-2.68945l-8.9502-.70313-2.58691-3.561L97.40234,82.145a2.53867,2.53867,0,0,0,2.67286-2.29688,2.501,2.501,0,0,0-2.29688-2.68945L80.33984,75.78906l-5.78906-7.96875,9.56348-3.10742L98.9541,73.80957a2.49994,2.49994,0,0,0,2.61231-4.26318L90.36719,62.68115,94.3291,61.394l7.72949,4.7378a2.49995,2.49995,0,0,0,2.61231-4.26319L100.582,59.36182l7.25391-2.35694A2.503,2.503,0,0,0,109.44043,53.85547Z"/><path class="cls-2" d="M48.627,78.00928V21.79248a9.292,9.292,0,1,0-18.584,0V78.0083A19.69244,19.69244,0,0,0,19.43749,95.60254,19.898,19.898,0,1,0,48.627,78.00928Z"/><path class="cls-1" d="M41.83594,81.08447V49.49805a2.5,2.5,0,0,0-5,0V81.08447a14.73437,14.73437,0,1,0,5,0Z"/><path class="cls-3" d="M39.33569,106.33643A10.73414,10.73414,0,1,1,50.07007,95.60254,10.74634,10.74634,0,0,1,39.33569,106.33643Zm0,0A10.73414,10.73414,0,1,1,50.07007,95.60254,10.74634,10.74634,0,0,1,39.33569,106.33643Z"/></svg>