<?xml version="1.0" encoding="iso-8859-1"?>
<!-- Generator: Adobe Illustrator 19.1.0, SVG Export Plug-In . SVG Version: 6.00 Build 0)  -->
<svg version="1.1" id="Capa_1" xmlns="http://www.w3.org/2000/svg" xmlns:xlink="http://www.w3.org/1999/xlink" x="0px" y="0px"
	 viewBox="0 0 218.333 218.333" style="enable-background:new 0 0 218.333 218.333;" xml:space="preserve">
<g>
	<g id="group-150svg">
		<path id="path-1_57_" style="fill:#2476FF;" d="M166.74,198.258h14.945c2.881,0,5.217,1.04,5.217,2.322
			c0,1.281-2.336,2.321-5.217,2.321h-0.696c-2.881,0-5.218,1.038-5.218,2.321c0,1.281,2.337,2.32,5.218,2.32h32.126
			c2.882,0,5.218,1.039,5.218,2.321c0,1.28-2.336,2.32-5.218,2.32h-38.608h-42.434c-2.882,0-5.218-1.04-5.218-2.32
			c0-1.282,2.336-2.321,5.218-2.321h8.916c2.882,0,5.218-1.039,5.218-2.32c0-1.283-2.336-2.321-5.218-2.321H98.555
			c-2.881,0-5.218-1.04-5.218-2.321c0-1.282,2.337-2.322,5.218-2.322h10.029H166.74z"/>
		<path id="path-2_57_" style="fill:#2476FF;" d="M87.036,214.191c3.29,0,5.957-1.186,5.957-2.65c0-1.462-2.667-2.649-5.957-2.649
			H68.781c-3.291,0-5.958,1.187-5.958,2.649c0,1.464,2.667,2.65,5.958,2.65H87.036z"/>
		<path id="path-3_57_" style="fill:#2476FF;" d="M66.29,171.852h6.862c1.323,0,2.396,0.59,2.396,1.317
			c0,0.728-1.073,1.316-2.396,1.316h-0.319c-1.324,0-2.396,0.59-2.396,1.316c0,0.728,1.072,1.318,2.396,1.318h14.752
			c1.322,0,2.395,0.589,2.395,1.316c0,0.726-1.073,1.317-2.395,1.317H69.856H33.62c-1.323,0-2.396-0.591-2.396-1.317
			c0-0.727,1.073-1.316,2.396-1.316h4.094c1.323,0,2.396-0.59,2.396-1.318c0-0.726-1.073-1.316-2.396-1.316H18.23
			c-1.324,0-2.396-0.588-2.396-1.316c0-0.727,1.072-1.317,2.396-1.317h4.604H66.29z"/>
		<path id="path-4_57_" style="fill:#2476FF;" d="M29.473,30.058l5.538,5.485c1.069,1.058,1.193,2.651,0.278,3.557
			c-0.915,0.906-2.522,0.784-3.591-0.274l-0.257-0.256c-1.068-1.057-2.675-1.181-3.591-0.274c-0.914,0.907-0.79,2.499,0.278,3.556
			l11.906,11.796c1.068,1.058,1.192,2.651,0.278,3.556c-0.916,0.908-2.523,0.784-3.591-0.274L22.413,42.755L6.686,27.176
			c-1.068-1.058-1.192-2.65-0.277-3.557c0.915-0.906,2.522-0.783,3.59,0.274l3.305,3.275c1.067,1.058,2.675,1.181,3.59,0.274
			c0.914-0.906,0.79-2.499-0.277-3.556L0.89,8.305c-1.068-1.057-1.192-2.65-0.277-3.556c0.915-0.907,2.522-0.783,3.59,0.274
			L7.92,8.705L29.473,30.058z"/>
		<path id="path-5_57_" style="fill:#2476FF;" d="M52.381,75.283c1.22,1.209,3.055,1.349,4.1,0.314
			c1.044-1.035,0.903-2.853-0.317-4.061l-6.765-6.703c-1.22-1.207-3.055-1.349-4.1-0.313c-1.044,1.034-0.902,2.853,0.317,4.061
			L52.381,75.283z"/>
		<path id="path-6_56_" style="fill:#2476FF;" d="M73.103,53.107l2.544,2.52c0.49,0.486,0.467,1.296-0.052,1.811
			c-0.52,0.514-1.338,0.536-1.828,0.051l-0.119-0.117c-0.49-0.486-1.308-0.463-1.827,0.05c-0.519,0.516-0.542,1.326-0.052,1.811
			l5.467,5.416c0.491,0.486,0.468,1.296-0.052,1.811c-0.518,0.513-1.337,0.537-1.827,0.05l-6.57-6.507L55.357,46.7
			c-0.49-0.487-0.467-1.298,0.052-1.812c0.519-0.514,1.338-0.538,1.828-0.051l1.517,1.503c0.49,0.485,1.309,0.463,1.828-0.053
			c0.518-0.512,0.541-1.323,0.052-1.809l-7.222-7.154c-0.49-0.486-0.467-1.297,0.052-1.811c0.519-0.514,1.337-0.536,1.828-0.051
			l1.706,1.692L73.103,53.107z"/>
		<path id="path-7_56_" style="fill:#2476FF;" d="M79.722,23.175l2.544,2.519c0.49,0.485,0.467,1.295-0.052,1.811
			c-0.519,0.513-1.338,0.537-1.828,0.05l-0.119-0.117c-0.49-0.485-1.308-0.463-1.827,0.052c-0.519,0.514-0.542,1.324-0.052,1.811
			l5.467,5.415c0.491,0.485,0.468,1.296-0.052,1.81c-0.519,0.514-1.336,0.537-1.827,0.052l-6.57-6.509L61.977,16.765
			c-0.491-0.486-0.468-1.296,0.051-1.81c0.519-0.515,1.338-0.537,1.828-0.052l1.517,1.504c0.491,0.486,1.309,0.462,1.828-0.052
			s0.542-1.324,0.052-1.81L60.031,7.39c-0.49-0.485-0.467-1.295,0.052-1.811c0.52-0.513,1.337-0.536,1.828-0.05l1.706,1.691
			L79.722,23.175z"/>
		<path id="path-8_56_" style="fill:#2476FF;" d="M28.241,99.48l2.543,2.519c0.49,0.486,0.468,1.297-0.052,1.81
			c-0.519,0.515-1.337,0.538-1.827,0.052l-0.118-0.117c-0.491-0.486-1.31-0.463-1.828,0.051c-0.519,0.514-0.543,1.325-0.052,1.81
			l5.467,5.417c0.491,0.486,0.468,1.296-0.051,1.811c-0.52,0.513-1.337,0.536-1.828,0.051l-6.571-6.509L10.495,93.07
			c-0.49-0.485-0.467-1.295,0.052-1.809c0.519-0.514,1.337-0.538,1.827-0.051l1.518,1.501c0.491,0.486,1.308,0.463,1.828-0.051
			c0.519-0.513,0.542-1.323,0.051-1.808L8.55,83.697c-0.49-0.486-0.467-1.297,0.052-1.81c0.519-0.515,1.337-0.538,1.828-0.052
			l1.706,1.69L28.241,99.48z"/>
		<path id="path-9_53_" style="fill:#142A3B;" d="M92.898,65.243c-1.416,0-2.763-0.825-3.351-2.199l-4.638-10.83
			c-0.785-1.833,0.078-3.95,1.928-4.726c1.846-0.779,3.986,0.078,4.771,1.91l4.638,10.832c0.785,1.834-0.079,3.949-1.928,4.724
			C93.854,65.15,93.372,65.243,92.898,65.243z"/>
		<path id="path-10_48_" style="fill:#142A3B;" d="M141.608,178.962c-1.416,0-2.762-0.825-3.35-2.198l-23.196-54.152
			c-0.786-1.831,0.078-3.948,1.927-4.724c1.85-0.779,3.984,0.077,4.771,1.91l23.196,54.149c0.785,1.833-0.078,3.948-1.928,4.727
			C142.565,178.869,142.083,178.962,141.608,178.962z"/>
		<path id="path-11_41_" style="fill:#0CB04A;" d="M167.607,100.524c13.586-5.712,27.195-4.28,30.398,3.197
			c-17.294-40.374-64.353-59.216-105.108-42.084C52.141,78.77,33.122,125.388,50.416,165.762
			c-3.203-7.478,5.214-18.166,18.799-23.878c13.586-5.71,27.194-4.279,30.398,3.197c-3.204-7.476,5.213-18.166,18.799-23.876
			c13.585-5.711,27.194-4.281,30.396,3.196C145.606,116.924,154.023,106.234,167.607,100.524z"/>
		<path id="path-12_34_" style="fill:#FF3A2F;" d="M167.607,100.524c13.586-5.712,27.195-4.28,30.398,3.197
			c-17.294-40.374-64.353-59.216-105.108-42.084c-1.258,0.53,0.307-0.14-0.706,0.421c-2.865,1.583,38.441,28.54,56.617,62.343
			C144.954,117.233,154.023,106.234,167.607,100.524z"/>
		<path id="path-13_28_" style="fill:#FBB713;" d="M148.808,124.401c-17.294-40.374-42.326-68.475-55.911-62.764
			c-13.586,5.711-10.579,43.071,6.716,83.444l-0.148-0.341c-3.202-7.478,6.374-15.461,19.959-21.172
			c13.586-5.71,26.035-6.987,29.238,0.49L148.808,124.401z"/>
		<path id="path-14_23_" style="fill:#142A3B;" d="M143.099,193.899c3.843,8.972,14.301,13.159,23.357,9.351
			c9.057-3.806,13.284-14.167,9.441-23.138c-1.281-2.991-4.767-4.386-7.786-3.117c-3.02,1.268-4.428,4.72-3.147,7.712
			c1.281,2.991-0.128,6.444-3.146,7.712c-3.02,1.27-6.505-0.126-7.786-3.117l-6.959-16.244l-10.932,4.596L143.099,193.899z"/>
		<path id="path-15_21_" style="opacity:0.3;fill:#020403;enable-background:new    ;" d="M144.34,174.207l5.799,13.537
			c0.941,2.198,3.073,3.521,5.335,3.572c-0.6-0.549-1.102-1.22-1.442-2.014l-6.959-16.244L144.34,174.207z"/>
		<path id="path-16_18_" style="opacity:0.3;fill:#020403;enable-background:new    ;" d="M170.561,176.54
			c0.6,0.548,1.103,1.219,1.443,2.013c3.843,8.972-0.384,19.332-9.44,23.139c-3.832,1.611-7.91,1.776-11.636,0.768
			c4.618,2.511,10.303,2.988,15.529,0.79c9.057-3.806,13.283-14.167,9.44-23.138C174.956,177.915,172.823,176.59,170.561,176.54z"/>
		<path id="path-17_16_" style="opacity:0.3;fill:#020403;enable-background:new    ;" d="M49.071,147.562
			c-1.273,0.535-2.484,1.127-3.661,1.742c1.049,5.541,2.692,11.056,5.006,16.458c-2.827-6.602,3.216-19.299,24.718-25.922
			C70.367,139.913,54.493,145.282,49.071,147.562z"/>
		<path id="path-18_14_" style="opacity:0.3;fill:#020403;enable-background:new    ;" d="M98.267,126.881
			c-7.425,1.587-12.597,7.199-15.971,11.659c8.348-0.746,15.171,1.534,17.317,6.541c-2.828-6.601,3.305-12.904,14.155-18.878
			C109,126.277,103.753,125.708,98.267,126.881z"/>
		<path id="path-19_11_" style="opacity:0.3;fill:#020403;enable-background:new    ;" d="M92.897,61.637
			c-0.143,0.061-0.28,0.131-0.421,0.191c31.361-4.561,63.046,9.795,79.881,36.992c11.875-3.58,22.82-1.702,25.648,4.901
			C180.711,63.347,133.652,44.505,92.897,61.637z"/>
		<path id="path-20_8_" style="opacity:0.3;fill:#020403;enable-background:new    ;" d="M147.463,106.201
			c-6.992,2.939-21.51,11.843-24.884,16.303c18.217-7.224,24.084-3.111,26.229,1.897c-2.827-6.602,3.411-15.704,14.261-21.677
			C158.301,102.797,152.886,103.921,147.463,106.201z"/>
		<path id="path-21_7_" style="fill:#FFFFFF;" d="M53.043,136.879c-1.685,0-3.191-1.159-3.552-2.852
			c-0.203-0.952-4.668-23.569,18.967-50.697c1.313-1.505,3.609-1.675,5.131-0.374c1.522,1.301,1.691,3.577,0.377,5.084
			c-21.123,24.248-17.514,43.702-17.351,44.519c0.392,1.946-0.875,3.849-2.837,4.246C53.531,136.855,53.284,136.879,53.043,136.879z
			"/>
	</g>
</g>
<g>
</g>
<g>
</g>
<g>
</g>
<g>
</g>
<g>
</g>
<g>
</g>
<g>
</g>
<g>
</g>
<g>
</g>
<g>
</g>
<g>
</g>
<g>
</g>
<g>
</g>
<g>
</g>
<g>
</g>
</svg>
