<?xml version="1.0" ?><svg id="duotone_outline" viewBox="0 0 64 64" xmlns="http://www.w3.org/2000/svg"><path d="M52.5,36.343h-41a9.495,9.495,0,0,1-1.473-18.875A14.985,14.985,0,0,1,36.548,8.793a10.995,10.995,0,0,1,16.408,8.561A9.5,9.5,0,0,1,52.5,36.343ZM25,5.343a13.015,13.015,0,0,0-13,13,1.022,1.022,0,0,1-.94,1.023,7.495,7.495,0,0,0,.44,14.977h41a7.5,7.5,0,0,0,0-15H52a1,1,0,0,1-1-1,8.994,8.994,0,0,0-14.116-7.4,1,1,0,0,1-1.378-.233A13.043,13.043,0,0,0,25,5.343Z" style="fill:#e78753"/><path d="M16,50a5,5,0,0,1-3.535-8.535l2.828-2.829a1.029,1.029,0,0,1,1.414,0l2.828,2.829A5,5,0,0,1,16,50Zm0-9.243-2.121,2.122a3,3,0,0,0,0,4.242,3.072,3.072,0,0,0,4.242,0h0a3,3,0,0,0,0-4.242Z" style="fill:#363636"/><path d="M48,50a5,5,0,0,1-3.535-8.535l2.828-2.829a1.029,1.029,0,0,1,1.414,0l2.828,2.829A5,5,0,0,1,48,50Zm0-9.243-2.121,2.122a3,3,0,0,0,0,4.242,3.072,3.072,0,0,0,4.242,0h0a3,3,0,0,0,0-4.242Z" style="fill:#363636"/><path d="M40,61a5,5,0,0,1-3.535-8.535l2.828-2.829a1.029,1.029,0,0,1,1.414,0l2.828,2.829A5,5,0,0,1,40,61Zm0-9.243-2.121,2.122a3,3,0,0,0,0,4.242,3.072,3.072,0,0,0,4.242,0h0a3,3,0,0,0,0-4.242Z" style="fill:#363636"/><path d="M24,61a5,5,0,0,1-3.535-8.535l2.828-2.829a1.029,1.029,0,0,1,1.414,0l2.828,2.829A5,5,0,0,1,24,61Zm0-9.243-2.121,2.122a3,3,0,0,0,0,4.242,3.072,3.072,0,0,0,4.242,0h0a3,3,0,0,0,0-4.242Z" style="fill:#363636"/><path d="M32,50a5,5,0,0,1-3.535-8.535l2.828-2.829a1.029,1.029,0,0,1,1.414,0l2.828,2.829A5,5,0,0,1,32,50Zm0-9.243-2.121,2.122a3,3,0,0,0,0,4.242,3.072,3.072,0,0,0,4.242,0h0a3,3,0,0,0,0-4.242Z" style="fill:#363636"/></svg>