<?xml version="1.0" standalone="no"?>
<!DOCTYPE svg PUBLIC "-//W3C//DTD SVG 20010904//EN"
 "http://www.w3.org/TR/2001/REC-SVG-20010904/DTD/svg10.dtd">
<svg version="1.0" xmlns="http://www.w3.org/2000/svg"
 width="1280.000000pt" height="1166.000000pt" viewBox="0 0 1280.000000 1166.000000"
 preserveAspectRatio="xMidYMid meet">
<metadata>
Created by potrace 1.15, written by Peter Selinger 2001-2017
</metadata>
<g transform="translate(0.000000,1166.000000) scale(0.100000,-0.100000)"
fill="#ffeb3b" stroke="none">
<path d="M7074 11555 c-65 -102 -68 -105 -80 -83 -7 13 -16 42 -20 66 -3 23
-11 42 -16 42 -5 0 -41 -18 -79 -41 -59 -35 -67 -44 -59 -59 6 -10 10 -25 10
-32 -1 -7 -10 5 -22 27 -19 35 -22 38 -29 20 -10 -26 -11 -78 -1 -72 16 11 4
-368 -17 -515 -11 -82 -21 -195 -21 -253 0 -68 -5 -120 -15 -150 -9 -25 -13
-50 -9 -56 4 -6 10 -28 15 -48 7 -33 6 -34 -7 -17 -8 11 -14 27 -14 35 0 9 -3
11 -9 6 -5 -6 -5 -68 -1 -145 5 -74 6 -163 3 -198 -5 -54 6 -204 23 -310 l5
-33 18 23 c24 31 43 112 35 146 -7 24 -6 26 9 13 10 -7 17 -26 17 -42 0 -21 4
-27 15 -23 8 4 15 2 15 -4 0 -6 3 -19 6 -29 5 -15 4 -15 -7 2 -12 19 -13 18
-20 -15 -8 -37 3 -72 15 -51 9 15 46 14 46 -1 0 -6 3 -9 6 -6 3 4 9 37 13 75
7 66 8 67 21 41 16 -33 30 -36 30 -8 0 11 5 20 11 20 7 0 9 10 5 25 -5 19 -2
25 10 25 11 0 14 5 9 18 -11 27 -11 30 0 33 16 6 32 -51 17 -60 -15 -9 -6 -37
14 -45 21 -8 17 -26 -6 -26 -26 0 -26 -17 1 -25 23 -8 20 -31 -5 -29 -9 1 -16
-6 -17 -15 0 -10 -2 -11 -6 -3 -2 6 -8 12 -13 12 -9 0 -1 -40 11 -56 10 -12 2
-24 -17 -24 -7 0 -14 11 -16 25 -2 14 -7 24 -13 23 -5 -2 -9 -9 -9 -15 1 -7
-2 -13 -7 -13 -5 0 -9 6 -9 13 -1 6 -10 1 -21 -12 -18 -21 -18 -26 -4 -41 8
-9 15 -25 15 -35 0 -17 -1 -17 -19 -1 -11 10 -22 28 -24 40 -3 20 -4 20 -14
-5 -6 -14 -30 -41 -52 -58 -47 -37 -51 -63 -26 -149 15 -48 46 -94 129 -187
l36 -40 -21 50 c-12 28 -33 59 -47 71 -14 11 -27 31 -29 43 -3 21 -2 21 27 6
21 -11 30 -12 30 -4 0 6 10 -1 22 -16 l21 -27 13 23 c13 23 13 22 14 -15 l0
-39 -23 21 c-29 27 -41 28 -27 3 5 -11 10 -31 10 -44 0 -13 10 -32 21 -43 l22
-19 -5 33 c-8 55 10 35 23 -25 13 -61 50 -123 75 -123 7 0 14 -5 14 -11 0 -6
11 -24 25 -41 36 -43 31 -58 -7 -20 -48 47 -80 72 -91 72 -6 0 -3 -8 6 -17 8
-10 23 -38 32 -63 17 -45 62 -93 77 -84 4 3 14 -11 22 -30 8 -19 27 -41 43
-50 30 -15 62 -46 48 -46 -5 0 -23 11 -41 25 -18 14 -37 25 -42 25 -5 0 -17
15 -26 33 -9 19 -16 25 -16 15 0 -10 -8 -18 -17 -18 -10 0 16 -20 57 -45 41
-25 80 -45 86 -45 6 0 19 -9 29 -20 17 -19 17 -21 2 -38 -23 -25 -22 -28 14
-41 56 -20 67 -15 74 32 13 86 17 99 27 89 7 -7 6 -33 -1 -78 -6 -37 -9 -69
-7 -71 4 -5 166 137 166 145 0 4 -7 16 -15 26 -24 32 -16 44 8 14 l22 -27 89
74 c59 50 82 75 69 75 -11 0 -30 -12 -44 -26 -13 -14 -33 -31 -44 -36 -25 -13
-26 -14 91 103 l96 96 -27 19 c-58 39 -93 81 -106 124 -7 25 -20 52 -29 60
-11 10 -17 30 -17 58 -1 35 -6 49 -33 75 l-32 31 7 -40 c4 -21 12 -47 17 -56
18 -37 -11 -16 -67 47 -52 59 -85 77 -70 38 4 -13 3 -14 -10 -3 -23 19 -30 4
-18 -41 10 -37 9 -40 -7 -36 -14 4 -17 0 -15 -17 20 -121 13 -124 -21 -11 -10
33 -27 68 -38 77 -12 9 -18 20 -14 24 4 4 14 1 23 -6 22 -18 18 4 -6 31 -14
16 -22 20 -25 12 -4 -8 -16 -1 -35 19 -37 42 -38 18 0 -30 30 -39 45 -72 33
-72 -4 0 -13 9 -20 20 -7 11 -19 20 -26 20 -17 0 -29 31 -32 75 -1 17 -2 35
-3 42 0 6 -13 25 -27 42 -14 17 -21 31 -16 31 15 0 82 -78 82 -95 0 -8 4 -15
9 -15 13 0 18 67 12 162 -4 50 -2 84 3 80 5 -3 6 5 2 19 -4 13 -10 37 -13 54
-5 27 -4 28 10 16 9 -7 19 -29 23 -48 4 -23 13 -37 25 -40 12 -4 19 -15 20
-32 1 -32 17 -76 18 -48 1 9 6 17 11 17 6 0 10 -8 10 -17 1 -16 2 -15 12 2 18
31 48 47 48 25 0 -5 -7 -10 -17 -10 -9 0 -14 -3 -10 -6 7 -7 77 17 77 27 0 4
-4 11 -10 14 -18 11 -10 20 21 22 24 2 30 -1 25 -12 -3 -8 -2 -15 1 -15 16 0
93 43 93 52 0 5 -9 23 -21 39 -11 16 -19 39 -17 52 1 12 -4 37 -11 55 -8 18
-11 35 -8 38 3 3 8 -4 12 -15 3 -12 10 -21 14 -21 7 0 1 75 -19 216 -5 39 -7
96 -3 125 l6 53 -30 -24 c-17 -14 -29 -28 -26 -32 2 -4 -3 -5 -11 -2 -10 4
-16 1 -16 -9 0 -8 -5 -17 -11 -19 -7 -2 -7 -12 0 -31 14 -36 14 -80 1 -72 -5
3 -10 16 -10 28 -1 22 -1 22 -15 3 -14 -18 -15 -17 -15 22 0 40 -1 41 -20 30
-16 -10 -17 -14 -6 -16 12 -3 13 -7 4 -22 -11 -18 -14 -18 -30 -3 -12 11 -18
12 -18 4 0 -7 -4 -10 -9 -6 -14 8 -26 -16 -23 -45 2 -19 1 -22 -7 -10 -5 8 -7
18 -5 22 3 4 0 8 -5 8 -6 0 -11 -12 -11 -27 -1 -27 -1 -27 -15 -9 -12 16 -17
17 -30 6 -8 -7 -15 -22 -15 -34 0 -17 -2 -18 -10 -6 -14 22 -22 6 -11 -22 7
-19 6 -29 -7 -43 -9 -10 -12 -15 -5 -11 7 4 17 -3 23 -15 7 -11 10 -21 8 -22
-2 -1 -14 -8 -27 -15 -22 -13 -23 -12 -19 6 9 32 -5 46 -32 32 -20 -11 -22
-10 -17 4 4 9 3 26 -2 38 -7 19 -2 27 31 52 27 20 37 33 33 45 -4 9 -9 31 -12
50 -8 43 9 35 36 -17 16 -30 21 -34 26 -20 4 9 1 33 -5 53 -7 20 -10 39 -7 41
8 9 45 -19 41 -30 -2 -6 0 -17 5 -25 7 -11 18 -7 55 18 25 18 46 34 46 37 0 3
-4 3 -9 0 -5 -3 -14 16 -21 42 -18 66 -28 72 -22 14 2 -30 0 -52 -7 -56 -11
-7 -13 3 -16 74 -1 19 -2 54 -3 78 -1 23 -7 42 -13 42 -7 0 -9 -10 -5 -25 4
-14 2 -25 -3 -25 -13 0 -19 31 -15 76 4 41 -37 127 -44 92 -2 -10 4 -28 12
-40 9 -12 16 -38 16 -57 l0 -34 -25 38 c-23 32 -25 43 -19 84 10 58 7 78 -17
119 -26 45 -24 53 5 18 l23 -30 15 28 c15 28 15 27 15 -43 1 -40 3 -75 7 -78
3 -4 6 1 6 9 0 9 7 31 15 49 14 33 15 31 13 -58 -1 -51 1 -96 5 -99 22 -22 60
88 56 165 -2 30 2 56 11 65 16 21 6 33 -14 17 -22 -19 -33 -7 -45 50 -14 65
-14 69 4 69 22 0 18 18 -6 25 -16 5 -18 10 -8 21 6 8 8 14 4 14 -4 0 0 11 9
25 19 29 21 51 4 61 -8 5 -9 1 -5 -12 7 -19 7 -19 -8 0 -13 17 -13 20 2 31 15
11 15 14 0 36 -10 13 -17 30 -17 39 0 13 1 13 10 0 5 -8 10 -11 10 -6 0 5 9 1
19 -8 11 -10 25 -15 30 -11 6 3 14 0 17 -8 3 -9 13 -13 25 -10 13 4 19 0 19
-13 0 -21 13 -11 17 14 3 23 -20 122 -27 117 -4 -2 -5 -22 -3 -44 1 -22 -2
-43 -7 -46 -11 -7 -14 19 -11 88 2 31 -3 56 -13 72 -9 13 -16 32 -16 42 0 15
2 16 10 3 8 -12 10 -10 10 8 0 15 -5 22 -12 19 -7 -2 -23 10 -35 27 -20 25
-23 27 -23 10 0 -11 5 -25 11 -31 15 -15 24 -77 10 -68 -6 3 -11 13 -11 21 0
8 -4 14 -10 14 -13 0 -13 -6 6 -41 8 -17 13 -45 11 -62 -4 -29 -5 -30 -12 -9
-10 30 -23 28 -28 -5 -3 -23 -6 17 -7 120 0 33 3 52 10 62 12 16 33 183 26
210 -4 14 -12 25 -20 25 -7 0 -46 -29 -86 -65 -102 -92 -122 -86 -100 31 7 35
10 67 7 70 -2 3 -35 -43 -73 -101z m-193 -1560 c8 -36 17 -54 25 -51 7 3 10
-2 7 -15 -3 -10 -9 -16 -14 -13 -5 3 -9 -2 -9 -10 0 -9 -6 -15 -12 -13 -9 1
-12 -9 -10 -30 1 -18 0 -33 -2 -33 -7 0 -73 124 -80 150 -7 25 -7 25 10 5 9
-11 22 -33 29 -49 l12 -28 6 48 c3 26 0 58 -5 70 -6 12 -7 35 -4 50 l7 27 14
-26 c7 -14 19 -51 26 -82z m550 -574 c1 21 18 -23 18 -46 0 -18 -1 -18 -11 3
-6 12 -14 22 -18 22 -5 0 -11 7 -14 16 -5 14 -4 15 9 4 12 -10 15 -10 16 1z"/>
<path d="M4762 11163 c-5 -10 -22 -55 -36 -100 -15 -46 -32 -85 -37 -89 -17
-10 -38 17 -61 80 -22 58 -23 60 -29 31 -4 -16 -7 -52 -8 -80 -1 -27 -4 -67
-7 -87 -6 -34 -8 -36 -28 -26 -11 6 -33 22 -49 36 -31 29 -29 30 -81 -48 l-36
-55 22 -17 c28 -22 17 -23 -22 -3 -23 12 -30 13 -30 3 1 -20 28 -75 29 -58 1
8 16 -12 35 -45 18 -33 49 -83 69 -112 23 -34 52 -106 87 -214 28 -90 63 -185
77 -211 14 -27 28 -70 31 -96 3 -26 11 -51 18 -55 8 -4 19 -18 25 -30 12 -22
12 -22 -10 -3 -24 22 -41 13 -23 -12 7 -9 17 -28 23 -42 6 -14 26 -55 45 -93
20 -37 32 -72 29 -77 -7 -12 124 -290 136 -290 25 0 27 109 2 147 -23 35 2 28
31 -9 15 -20 26 -27 26 -18 0 13 1 13 10 0 5 -8 12 -12 15 -8 4 4 -21 28 -54
54 -34 26 -61 51 -61 56 0 13 8 10 44 -23 l35 -30 -6 38 c-3 21 -14 47 -24 59
-11 11 -19 28 -19 37 0 29 37 3 68 -49 20 -32 31 -41 40 -34 6 6 10 7 7 4 -3
-4 1 -14 8 -22 10 -13 9 -15 -7 -9 -13 5 -17 3 -13 -7 3 -8 -1 -17 -10 -20
-14 -6 -13 -9 1 -31 10 -15 12 -25 6 -25 -6 0 -8 -5 -4 -11 4 -7 0 -9 -13 -5
-15 5 -18 1 -18 -17 2 -42 15 -51 39 -28 17 16 25 18 34 9 13 -13 10 24 -7 82
-15 47 -15 47 13 21 25 -24 40 -16 30 16 -5 17 -4 16 10 -1 9 -11 16 -15 16
-9 0 6 -9 22 -20 36 -17 22 -18 26 -4 31 14 5 14 7 0 22 -18 17 -20 24 -8 24
20 -1 36 -21 37 -47 0 -21 5 -29 23 -31 25 -4 29 -17 7 -26 -26 -10 -17 -29
11 -22 23 6 24 5 14 -14 -6 -11 -16 -17 -22 -14 -8 5 -9 1 -4 -11 5 -15 4 -16
-9 -5 -24 20 -19 -6 6 -31 17 -17 19 -23 8 -30 -10 -6 -17 -1 -24 16 -12 28
-42 19 -31 -10 5 -15 4 -16 -8 -6 -11 9 -15 8 -20 -5 -10 -26 -7 -44 8 -44 12
0 31 -29 24 -35 -7 -6 -48 15 -48 25 0 5 -4 10 -10 10 -5 0 -10 -8 -10 -18 0
-11 -14 -38 -31 -62 l-31 -43 23 -48 c12 -27 32 -57 43 -68 25 -22 178 -112
183 -107 8 8 -56 65 -80 71 -14 4 -33 18 -42 31 -8 13 -14 24 -13 24 2 0 18
-4 36 -9 19 -6 32 -6 32 -1 0 6 11 5 26 0 33 -13 34 -13 34 8 0 14 2 15 10 2
5 -8 10 -23 10 -33 0 -14 -4 -16 -19 -7 -11 5 -24 10 -30 10 -16 0 32 -68 52
-73 20 -6 23 13 5 31 -7 7 -8 12 -4 12 11 0 45 -43 46 -57 0 -17 65 -54 84
-47 9 3 16 1 16 -5 0 -6 11 -16 25 -21 14 -5 25 -14 25 -20 0 -13 -1 -13 -37
5 -16 8 -45 18 -63 21 l-32 7 48 -45 c53 -48 84 -65 84 -45 1 7 11 0 23 -14
12 -14 37 -31 55 -37 18 -6 46 -21 63 -33 28 -19 29 -23 15 -38 -24 -26 -20
-31 23 -31 46 0 51 5 59 67 4 26 13 48 21 51 9 3 11 -2 8 -14 -3 -11 -9 -41
-13 -69 l-6 -50 81 80 c72 71 79 81 66 95 -21 24 -18 33 6 19 20 -10 30 -3
103 70 44 45 75 81 67 81 -7 0 -33 -21 -58 -47 -49 -53 -43 -31 12 41 19 25
51 67 70 92 46 60 45 72 -7 80 -33 5 -53 17 -88 53 -24 25 -48 46 -52 46 -13
0 -37 39 -38 61 0 26 -15 39 -53 48 l-28 7 26 -41 c14 -22 25 -42 25 -46 0 -3
-34 13 -75 36 -73 40 -110 46 -83 13 11 -14 10 -15 -10 -9 -27 9 -29 -5 -5
-40 16 -25 16 -27 0 -36 -16 -9 -16 -11 1 -36 23 -33 34 -62 24 -62 -4 0 -14
11 -22 23 -8 13 -26 40 -38 60 -13 21 -30 37 -37 37 -7 0 -19 8 -26 17 -13 15
-12 16 9 11 12 -4 22 -2 22 3 0 14 -44 28 -51 16 -4 -6 -18 -4 -38 6 -17 8
-31 11 -31 7 0 -5 10 -15 23 -21 27 -14 67 -50 67 -60 0 -5 -15 -1 -32 8 -18
9 -40 19 -48 23 -8 4 -19 23 -24 43 -7 25 -19 41 -43 54 -18 9 -33 21 -33 25
0 11 71 -22 99 -47 l24 -20 -6 38 c-3 21 -15 58 -27 82 -12 24 -24 60 -27 81
-3 20 -14 45 -25 56 -10 10 -18 23 -18 28 0 19 18 10 46 -22 15 -18 33 -32 41
-30 7 2 17 -8 22 -20 5 -13 17 -30 27 -38 16 -13 17 -13 11 3 -3 9 -2 17 3 17
6 0 10 -6 10 -12 1 -7 7 2 15 20 8 17 19 32 26 32 8 0 8 -4 -1 -15 -18 -21 -4
-18 30 6 l29 22 -22 19 c-17 15 -18 18 -5 14 10 -3 20 -1 23 4 10 16 25 11 25
-7 0 -13 12 -6 42 26 l41 44 -36 29 c-20 17 -37 37 -37 46 0 9 -12 29 -27 45
l-28 30 28 -18 c27 -17 26 -13 -24 81 -29 54 -60 110 -69 124 -10 14 -20 42
-24 63 -6 31 -10 36 -21 27 -7 -6 -16 -22 -19 -36 -4 -14 -11 -22 -16 -19 -19
12 -14 -42 8 -74 23 -36 20 -60 -4 -27 -14 20 -14 20 -14 0 -1 -19 -1 -19 -15
0 -8 10 -16 24 -18 30 -3 7 -12 4 -23 -8 -19 -18 -18 -18 4 -11 21 6 22 5 11
-14 -10 -15 -16 -17 -26 -9 -8 6 -15 9 -16 7 -1 -2 -8 -12 -16 -21 -10 -13
-10 -22 0 -40 l12 -23 -23 20 -23 20 7 -29 c6 -25 5 -28 -7 -18 -20 17 -41 -9
-31 -40 6 -20 5 -21 -10 -9 -9 8 -20 10 -24 6 -4 -4 -1 -10 6 -12 6 -3 12 -11
12 -19 0 -8 5 -14 11 -14 8 0 8 -5 -1 -15 -10 -12 -10 -15 1 -15 8 0 20 -4 28
-9 12 -8 12 -12 -3 -26 -16 -17 -18 -17 -33 4 -14 21 -16 21 -34 5 -14 -12
-19 -13 -19 -4 0 7 -8 22 -17 32 -11 12 -13 22 -7 26 5 4 19 20 30 35 l20 29
-29 31 c-35 37 -19 50 24 18 15 -11 31 -21 34 -21 11 0 4 28 -11 40 -8 8 -20
22 -25 32 -9 17 -7 18 18 12 15 -4 33 -14 40 -23 10 -14 14 -13 32 9 29 34 47
65 32 56 -6 -4 -11 -3 -11 2 0 5 -14 24 -31 41 -28 29 -30 30 -24 9 4 -12 11
-27 16 -33 5 -5 9 -16 9 -24 0 -11 -4 -10 -20 4 -12 10 -18 25 -16 32 3 7 1
15 -5 18 -5 4 -19 25 -31 48 -12 23 -23 36 -26 29 -2 -7 2 -20 10 -29 11 -14
11 -16 -2 -12 -8 3 -24 24 -36 47 -22 46 -86 98 -77 62 3 -10 13 -20 23 -23
10 -3 25 -18 34 -34 l15 -30 -39 19 c-31 15 -39 26 -45 56 -5 25 -20 50 -48
76 -24 23 -33 37 -22 32 11 -4 26 -10 33 -13 8 -3 12 5 13 23 1 24 2 25 6 6 2
-12 8 -20 13 -17 5 3 14 -12 20 -34 13 -51 27 -60 22 -16 -9 79 17 53 48 -47
14 -45 23 -53 41 -32 16 19 -1 112 -28 153 -9 14 -16 35 -15 46 l3 20 -16 -20
c-16 -20 -17 -19 -56 25 -37 43 -51 68 -29 55 6 -3 10 1 10 11 0 12 -6 15 -24
12 -22 -4 -23 -2 -20 44 2 37 -1 48 -12 48 -10 0 -12 -5 -8 -12 5 -9 2 -8 -9
1 -13 10 -14 17 -7 27 8 9 4 16 -16 26 -39 19 -42 38 -5 33 33 -4 71 -32 71
-52 0 -7 5 -13 11 -13 6 0 9 9 6 19 -3 14 -1 18 9 14 8 -3 14 0 14 6 0 6 -11
11 -24 11 -14 0 -28 5 -32 12 -4 7 -3 8 5 4 6 -4 19 -2 28 6 13 10 17 10 20 0
3 -6 9 -10 13 -7 12 7 -11 48 -48 86 -37 38 -40 34 -12 -16 11 -20 20 -41 20
-47 0 -14 -41 28 -44 45 -4 26 -40 76 -63 86 -12 6 -23 15 -23 21 0 6 5 8 11
4 7 -4 7 1 -1 16 -8 16 -14 19 -20 11 -5 -10 -16 -9 -44 3 -35 15 -36 14 -26
-4 6 -11 17 -20 25 -20 7 0 24 -14 36 -31 l22 -32 -26 18 c-17 11 -27 13 -27
6 0 -6 11 -16 23 -22 13 -6 32 -24 41 -41 l18 -30 -22 12 c-28 15 -35 8 -19
-22 11 -20 11 -22 -3 -10 -9 7 -19 25 -23 40 -3 15 -16 37 -28 50 -11 12 -22
28 -23 35 -2 6 -6 25 -9 41 -8 39 -62 156 -82 178 -20 23 -30 23 -41 1z m958
-1795 c0 -4 -16 2 -35 13 -39 24 -45 34 -14 24 16 -5 20 -4 14 6 -4 8 3 3 14
-11 11 -14 21 -28 21 -32z"/>
<path d="M7385 11073 c4 -10 7 -28 6 -41 0 -13 3 -20 9 -17 6 3 10 14 10 23 0
13 2 14 9 3 6 -9 11 -10 15 -2 9 14 -1 31 -20 31 -8 0 -14 5 -14 10 0 6 -5 10
-11 10 -7 0 -8 -7 -4 -17z"/>
<path d="M9068 9888 c-20 -25 -24 -43 -7 -33 5 4 -4 -17 -20 -47 -17 -30 -31
-61 -31 -69 0 -20 -44 -111 -62 -129 -30 -30 -116 -157 -142 -207 -14 -29 -38
-60 -52 -69 -14 -9 -23 -23 -20 -30 3 -8 2 -22 -2 -31 -5 -14 -8 -12 -13 12
-5 26 -7 28 -13 10 -21 -55 -70 -151 -82 -161 -8 -6 -36 -58 -63 -115 -48
-103 -48 -104 -25 -107 13 -2 33 6 46 17 12 12 25 21 30 21 4 0 8 8 8 17 0 38
14 -2 16 -45 1 -26 -1 -39 -3 -30 -4 14 -8 15 -23 6 -10 -6 -16 -17 -13 -25 3
-7 9 -11 13 -8 5 3 15 -4 23 -15 18 -26 36 -19 62 23 28 45 30 54 13 39 -13
-10 -17 -10 -21 0 -3 8 -9 4 -15 -12 -11 -26 -12 -26 -17 5 -12 76 -13 115 -5
115 6 0 10 -17 10 -37 l0 -36 25 23 c13 12 24 25 23 29 -2 24 4 41 16 41 15 0
15 -3 1 -140 -5 -52 -3 -62 7 -52 17 17 28 15 22 -5 -5 -15 -4 -16 5 -3 6 8
11 23 11 34 0 15 3 16 15 6 12 -10 15 -9 15 6 0 12 3 15 10 8 13 -13 2 -46
-12 -38 -7 4 -8 -5 -3 -27 7 -31 6 -32 -9 -20 -9 8 -20 11 -24 7 -4 -4 1 -12
11 -17 26 -15 21 -30 -7 -19 -13 5 -27 6 -30 3 -3 -4 -6 0 -6 8 0 12 -2 12 -9
0 -5 -8 -7 -21 -3 -29 4 -12 1 -14 -12 -9 -10 4 -20 7 -23 7 -3 0 0 7 7 15 14
17 4 39 -15 31 -8 -3 -15 0 -17 5 -6 17 -38 -2 -35 -21 1 -10 -2 -18 -8 -17
-5 1 -10 11 -10 22 0 18 -7 20 -68 22 l-68 2 -21 -44 c-20 -41 -21 -48 -8
-117 19 -105 25 -119 33 -80 4 18 2 44 -3 58 -6 16 -7 32 -1 42 8 14 11 13 22
-10 6 -15 15 -25 19 -23 5 3 11 -7 14 -21 5 -18 11 -24 23 -20 11 5 14 2 9
-10 -3 -8 -6 -18 -6 -20 0 -2 -5 -4 -10 -4 -6 0 -16 12 -22 28 l-11 27 -10
-43 c-11 -49 -4 -64 19 -36 14 18 15 18 8 -6 -3 -14 -10 -29 -15 -35 -12 -12
-11 -38 2 -72 14 -35 17 -70 7 -86 -5 -8 -8 -3 -9 13 0 14 -8 43 -18 65 l-18
40 -7 -45 c-10 -60 -8 -92 5 -101 8 -5 8 -12 0 -28 -9 -15 -9 -27 -1 -41 7
-12 8 -39 4 -65 -6 -42 -8 -44 -32 -38 -23 5 -24 4 -18 -23 13 -52 26 -58 87
-40 33 10 56 13 62 7 9 -9 -8 -15 -97 -37 l-29 -7 24 -13 c50 -28 184 -75 187
-66 1 5 10 18 18 28 15 18 15 17 10 -12 l-5 -31 105 -36 c82 -29 104 -33 104
-21 0 8 -6 16 -12 19 -7 2 -35 10 -63 19 l-50 15 65 -5 c36 -2 94 -8 129 -13
111 -14 125 -3 101 79 -7 26 -6 48 5 87 8 28 12 58 9 67 -4 9 5 25 21 40 25
23 26 27 14 60 l-13 35 -13 -26 c-7 -14 -13 -32 -13 -39 0 -8 -4 -14 -8 -14
-5 0 -14 36 -21 80 -9 55 -18 80 -27 80 -8 0 -14 -6 -14 -12 0 -7 -5 -5 -11 5
-15 25 -26 21 -33 -14 -3 -17 -10 -28 -16 -24 -5 3 -10 -1 -10 -10 0 -9 5 -13
10 -10 13 8 13 -2 -2 -28 -12 -21 -13 -20 -18 18 l-6 40 -17 -39 c-10 -22 -20
-36 -23 -33 -4 3 -3 14 1 24 17 39 32 106 28 124 -7 27 6 24 17 -3 l9 -23 0
22 c1 29 -9 54 -20 48 -4 -3 -11 10 -15 30 -10 53 -24 32 -17 -27 5 -37 3 -49
-5 -44 -7 4 -12 16 -12 26 0 10 -4 22 -10 25 -15 10 -12 29 10 52 14 16 18 31
14 60 l-4 38 14 -35 c8 -19 15 -45 15 -57 1 -13 5 -23 9 -23 10 0 52 43 52 53
0 16 46 77 57 77 7 0 10 6 7 14 -3 8 -1 23 5 33 11 19 11 18 16 -27 1 -8 -3
-20 -7 -27 -6 -7 -3 -15 8 -21 13 -7 14 -13 5 -30 -6 -11 -11 -28 -11 -38 0
-14 3 -14 15 -4 13 11 14 10 9 -5 -6 -14 -3 -16 14 -11 12 4 30 2 39 -4 16
-10 16 -11 -2 -5 -13 4 -17 3 -10 -4 6 -5 22 -13 38 -16 22 -6 27 -4 28 11 0
11 3 14 6 7 2 -7 12 -13 20 -13 9 0 13 -6 10 -14 -6 -15 38 -36 76 -36 17 0
19 5 14 35 -3 19 -1 37 4 40 5 4 9 21 10 38 0 32 0 32 11 7 9 -23 12 -20 39
50 16 41 29 79 29 85 0 6 12 28 26 49 l26 38 -36 -5 c-19 -3 -37 0 -38 5 -7
19 -36 -5 -43 -35 -7 -27 -9 -29 -12 -10 -3 14 -9 20 -19 16 -12 -4 -13 -1 -5
20 8 21 7 26 -10 30 -17 4 -18 3 -8 -9 9 -11 8 -14 -3 -14 -7 0 -21 9 -31 20
-21 25 -44 26 -50 3 -3 -13 -5 -10 -6 7 -2 24 -2 24 -16 6 -12 -16 -15 -17
-15 -4 0 21 -31 32 -42 16 -6 -10 -10 -10 -18 2 -5 8 -10 10 -10 4 0 -11 -45
-64 -54 -64 -2 0 -2 8 1 19 3 12 -2 20 -16 24 -18 4 -20 9 -11 29 10 20 17 23
51 20 38 -4 39 -3 39 27 0 42 18 39 26 -4 4 -21 12 -35 21 -35 8 0 11 5 8 10
-3 6 -3 20 1 32 6 21 7 21 20 3 8 -10 12 -27 9 -36 -5 -13 2 -19 27 -24 18 -4
40 -8 48 -11 12 -3 15 6 15 41 0 49 -11 60 -21 20 -8 -33 -24 -32 -24 2 0 14
3 23 7 20 8 -8 33 47 33 72 -1 13 -3 13 -16 -4 -16 -19 -16 -19 -9 10 8 34 9
63 3 154 -3 48 -1 57 6 40 6 -13 11 -25 12 -27 1 -2 13 2 26 9 21 11 22 11 9
-4 -7 -10 -10 -17 -6 -17 4 0 0 -11 -9 -25 -22 -34 -20 -40 9 -21 34 22 33 3
-1 -48 -19 -28 -23 -41 -15 -49 19 -19 62 12 85 60 12 23 28 44 36 46 9 3 7 5
-7 6 -30 1 -36 15 -28 62 5 29 11 39 21 35 17 -7 18 6 2 22 -9 9 -9 12 1 12 7
0 9 5 6 10 -3 6 3 10 14 10 26 0 36 17 21 35 -9 11 -9 15 -1 15 6 0 11 15 11
33 l0 32 19 -29 c14 -22 17 -35 10 -58 -7 -24 -5 -29 6 -24 8 3 15 1 15 -4 0
-6 7 -10 17 -10 15 0 15 2 -1 19 -10 11 -16 28 -13 38 4 16 5 16 6 1 0 -10 6
-18 11 -18 6 0 14 -10 19 -22 l8 -22 12 22 c7 12 13 39 15 58 3 38 1 37 -31
-13 -11 -16 -12 -15 -12 10 -1 15 3 27 8 27 14 0 29 54 24 84 -4 21 -2 25 11
20 20 -8 21 12 1 32 -8 9 -15 24 -15 35 0 10 -4 19 -9 19 -14 0 -21 -28 -8
-33 8 -2 8 -12 0 -38 -11 -33 -11 -33 -12 -6 -1 15 -5 27 -10 27 -6 0 -9 -18
-8 -40 1 -22 -5 -45 -12 -52 -11 -11 -13 -9 -8 10 6 24 -17 32 -26 10 -4 -8
-6 -7 -6 3 -1 9 6 22 14 29 8 7 15 23 15 35 0 13 11 33 26 44 30 24 78 88 101
137 24 50 10 60 -63 45 -32 -6 -77 -11 -101 -11 -36 0 -43 3 -43 20 0 11 19
41 43 67 41 45 41 46 14 39 -16 -4 -65 -24 -109 -45 l-81 -39 6 64 6 64 -27 0
c-15 0 -51 3 -81 7 -46 5 -53 4 -49 -9 4 -8 2 -21 -3 -29 -6 -10 -9 -2 -9 24
0 42 -8 46 -32 15z m163 -861 c-9 -23 -15 -16 -25 26 -4 18 -2 35 6 44 11 14
14 11 19 -17 4 -18 4 -42 0 -53z m-167 -242 c3 -8 1 -15 -4 -15 -6 0 -10 7
-10 15 0 8 2 15 4 15 2 0 6 -7 10 -15z"/>
<path d="M1200 9488 c0 -6 23 -32 52 -57 110 -97 177 -164 172 -172 -11 -18
-75 -8 -174 27 -56 19 -104 33 -106 31 -6 -6 306 -197 323 -197 9 0 13 -3 9
-7 -4 -5 -52 -10 -107 -13 l-100 -5 60 -85 59 -84 43 1 c49 3 45 0 -21 -17
l-44 -12 30 -13 c52 -22 98 -29 89 -14 -6 9 -3 11 9 6 34 -13 211 -55 257 -61
51 -6 123 -28 185 -56 174 -79 251 -112 306 -131 76 -25 96 -35 126 -62 16
-15 33 -21 56 -19 19 2 37 -1 41 -7 4 -7 -5 -11 -25 -11 -18 0 -29 -4 -25 -10
3 -5 17 -10 31 -10 14 0 41 -8 62 -19 20 -10 62 -26 92 -36 30 -10 61 -26 70
-35 8 -10 44 -29 80 -42 36 -14 90 -35 120 -48 90 -36 93 -37 85 -9 -11 32
-65 89 -87 89 -9 0 -20 5 -24 12 -5 8 4 9 34 4 26 -4 42 -2 42 4 0 5 9 10 20
10 11 0 20 -4 20 -10 0 -5 -4 -10 -10 -10 -5 0 -2 -9 7 -20 19 -22 47 -27 40
-7 -6 17 12 49 24 42 5 -4 9 -3 9 0 0 8 -27 35 -35 35 -3 0 -23 11 -43 25 -37
26 -65 34 -45 14 6 -6 9 -17 7 -24 -3 -7 6 -15 22 -19 14 -4 25 -8 23 -10 -2
-2 -44 -7 -93 -11 -63 -5 -86 -4 -82 4 4 6 28 11 54 11 l47 0 -37 25 c-20 14
-50 25 -66 25 -37 0 -50 26 -18 34 12 3 36 2 53 -3 16 -5 63 -12 104 -16 l74
-7 -20 22 -20 23 20 -6 c20 -7 20 -7 1 8 -11 8 -29 12 -39 9 -16 -5 -18 -2
-12 15 5 17 2 21 -14 21 -12 0 -21 5 -21 10 0 6 6 10 14 10 26 0 46 -12 46
-27 0 -11 5 -13 18 -8 48 20 53 19 47 -11 l-6 -29 20 24 c14 15 22 19 22 10 5
-39 3 -55 -6 -61 -5 -4 5 -10 23 -14 17 -4 32 -13 32 -20 0 -10 -9 -12 -30 -7
-30 5 -43 -10 -17 -20 9 -4 9 -8 -2 -15 -18 -13 3 -54 24 -46 8 4 23 3 33 -1
16 -6 16 -7 -1 -16 -9 -6 -26 -7 -37 -4 -20 7 -28 -9 -10 -20 6 -3 10 -31 10
-61 l0 -55 46 -20 c25 -11 60 -23 77 -25 28 -5 204 20 214 30 9 9 -91 15 -108
6 -10 -6 -31 -7 -45 -4 l-27 7 32 16 c17 9 29 20 25 24 -4 4 7 10 25 13 23 5
29 10 22 17 -19 19 -12 27 14 15 33 -15 32 -25 -6 -33 -17 -4 -28 -10 -25 -13
12 -11 71 -28 89 -24 23 5 22 19 -4 27 -11 4 -18 9 -15 12 3 3 26 -2 51 -12
45 -17 115 -15 115 4 0 10 86 8 96 -2 4 -4 -3 -7 -16 -7 -27 0 -110 -29 -110
-39 0 -12 150 -17 158 -5 4 5 25 9 47 10 22 0 56 4 75 7 l35 7 -35 -16 c-19
-9 -51 -19 -70 -21 -26 -4 -36 -10 -37 -24 -1 -14 2 -16 15 -9 43 25 137 60
158 60 19 0 24 -5 24 -25 0 -14 5 -25 10 -25 18 0 70 30 70 40 0 6 -14 35 -31
65 -23 41 -27 55 -16 55 8 0 27 -25 43 -55 16 -30 32 -55 36 -55 6 0 22 61 37
150 9 54 7 75 -7 66 -4 -2 -18 2 -32 10 -25 15 -25 15 12 12 l37 -4 10 61 c22
138 24 165 8 159 -9 -3 -17 -28 -23 -67 l-7 -62 -8 50 c-4 28 -10 88 -12 135
-6 112 -11 124 -51 116 -82 -17 -133 -17 -176 -2 -30 10 -46 12 -51 5 -7 -12
-40 1 -71 28 -12 11 -28 13 -62 8 -25 -4 -44 -10 -42 -14 3 -4 28 -13 55 -21
62 -17 51 -26 -39 -36 -36 -4 -73 -10 -84 -13 -17 -7 -17 -8 -1 -24 15 -16 15
-17 0 -17 -29 0 -10 -24 26 -33 42 -11 47 -16 29 -27 -11 -7 -8 -10 14 -10 24
0 27 2 16 15 -11 13 -8 13 19 4 39 -14 54 -34 20 -27 -13 3 -35 2 -49 -2 -24
-7 -23 -7 12 -15 21 -4 43 -14 50 -23 11 -14 10 -15 -7 -8 -46 19 -138 36
-161 30 -28 -7 -31 3 -6 22 16 12 15 13 -5 14 -33 0 -52 -10 -46 -26 4 -10 -3
-14 -23 -15 -16 -1 -32 -1 -36 0 -5 0 -8 -4 -8 -10 0 -8 15 -10 49 -5 26 3 59
2 72 -3 l24 -10 -27 0 c-15 -1 -30 -5 -33 -11 -3 -5 -22 -10 -41 -10 -19 0
-34 5 -34 10 0 6 -7 10 -15 10 -8 0 -15 5 -15 11 0 8 -16 10 -52 6 -39 -5 -48
-3 -35 4 10 6 43 13 73 16 53 6 54 6 37 25 -9 10 -54 37 -100 60 -45 23 -80
45 -77 49 3 5 -1 9 -8 10 -7 1 -20 2 -28 3 -8 2 -23 3 -32 4 -10 1 -18 7 -18
13 0 8 17 10 54 6 32 -3 56 -1 58 4 2 6 21 4 46 -5 43 -15 52 -11 30 13 -11
11 -10 13 5 8 19 -7 23 3 7 19 -7 7 -7 19 -1 35 10 24 10 24 12 -6 l1 -30 8
30 c14 56 12 65 -17 65 -20 0 -24 3 -14 9 8 5 11 16 8 25 -8 19 13 22 32 4 10
-11 11 -1 9 47 l-3 60 -43 -3 c-27 -2 -52 2 -67 12 -13 9 -38 16 -54 16 -16 0
-32 4 -35 9 -3 4 6 6 19 3 31 -6 33 14 3 21 -53 12 -266 89 -301 108 -43 23
-54 21 -38 -9 6 -11 8 -22 4 -25 -3 -4 2 -10 11 -13 13 -5 14 -9 5 -14 -15
-10 11 -40 34 -40 8 0 30 -7 48 -15 l34 -14 -29 -1 c-25 0 -27 -2 -15 -17 12
-15 12 -16 -4 -10 -11 4 -29 10 -42 13 -20 5 -23 3 -18 -16 4 -16 8 -18 14 -8
7 11 11 10 19 -2 15 -23 12 -30 -11 -30 -14 0 -18 -4 -12 -12 4 -7 6 -21 5
-30 -2 -13 4 -18 22 -18 14 0 26 -5 26 -10 0 -6 -11 -8 -25 -4 -34 8 -32 -9 3
-23 25 -10 25 -11 5 -12 -30 -1 -30 -34 0 -49 17 -8 18 -11 5 -11 -10 -1 -18
-5 -18 -11 0 -9 17 -14 48 -13 6 1 12 -8 12 -18 0 -13 7 -19 23 -18 21 0 21 1
2 9 -18 8 -18 9 5 9 20 1 25 -4 26 -24 2 -21 -1 -23 -27 -18 -25 5 -29 3 -29
-18 0 -18 -3 -20 -12 -11 -7 7 -22 12 -33 12 -18 0 -23 9 -31 48 -9 45 -11 47
-44 50 -53 4 -69 12 -45 22 11 5 32 9 48 9 45 1 35 31 -11 31 -21 0 -42 3 -45
7 -12 11 27 32 51 26 19 -4 22 -1 21 23 -3 74 -8 79 -79 81 -63 2 -64 1 -35
-12 17 -8 37 -14 46 -15 9 0 19 -6 22 -13 3 -9 -5 -12 -29 -9 -19 2 -34 8 -34
12 0 4 -20 13 -44 19 -24 6 -51 13 -60 17 -9 3 -16 1 -16 -5 0 -6 9 -11 20
-11 42 0 17 -17 -47 -32 -59 -13 -72 -14 -95 -2 -16 8 -28 17 -28 19 0 2 35 3
77 1 75 -4 77 -4 44 10 -31 13 -121 16 -121 4 0 -3 -34 -5 -75 -5 -41 -1 -69
3 -62 7 7 4 19 8 28 8 9 0 19 7 23 15 3 8 2 14 -2 13 -11 -3 -54 23 -48 29 3
4 15 -2 26 -12 12 -11 20 -13 20 -6 0 7 14 4 40 -9 51 -26 87 -27 45 -2 -36
22 -70 59 -45 50 76 -29 107 -42 117 -50 6 -5 23 -11 37 -14 33 -6 34 15 4 43
-31 28 -144 85 -162 81 -8 -2 -22 6 -30 17 -18 25 -31 14 -16 -14 10 -20 8
-21 -27 -20 -61 1 -118 13 -119 27 -1 6 -2 15 -3 19 0 3 -10 -2 -21 -12 -13
-12 -20 -14 -20 -5 0 7 -7 10 -15 6 -8 -3 -15 -2 -15 2 0 17 -59 52 -76 45
-16 -6 -16 -7 2 -14 16 -6 15 -8 -8 -8 -19 -1 -28 4 -28 14 0 13 -9 15 -52 9
l-52 -7 29 30 c17 17 34 28 40 25 5 -3 21 -6 36 -6 15 -1 31 -4 35 -8 10 -11
24 -10 24 1 0 5 -10 13 -21 16 -13 4 -17 10 -11 14 7 4 8 12 1 21 -8 13 -12
11 -28 -9 -17 -22 -22 -23 -43 -13 -23 12 -23 12 0 8 18 -3 22 0 22 19 0 19 4
22 22 17 12 -3 19 -1 15 5 -7 12 -96 30 -152 32 -51 2 -29 -16 33 -25 58 -9
63 -24 8 -24 -25 0 -46 4 -46 8 0 13 -118 34 -137 24 -18 -11 -55 -4 -48 8 8
13 -36 23 -48 11 -8 -8 -7 -11 3 -11 29 0 -7 -18 -57 -29 -48 -10 -64 -8 -179
24 -131 36 -204 44 -204 23z m549 -64 c2 -2 -7 -4 -20 -5 -13 0 -33 -5 -44
-10 -14 -7 -4 -8 35 -5 31 2 73 -2 95 -9 l40 -13 -32 -1 c-18 -1 -33 -5 -33
-10 0 -5 15 -12 33 -16 27 -7 28 -9 10 -12 -12 -2 -35 3 -52 11 -16 9 -49 16
-73 17 -26 0 -67 12 -103 30 -53 26 -56 29 -25 24 19 -2 42 0 50 5 13 9 108 3
119 -6z"/>
<path d="M10410 8977 c-14 -7 -25 -17 -25 -22 -1 -26 -198 -208 -296 -274 -58
-39 -135 -97 -170 -130 -36 -32 -82 -66 -102 -75 -20 -8 -37 -21 -37 -29 0 -7
-7 -22 -16 -33 -15 -18 -15 -18 -9 9 7 34 -12 36 -25 3 -5 -13 -22 -33 -38
-45 -16 -11 -47 -43 -68 -71 -21 -27 -44 -50 -51 -50 -16 0 -72 -61 -130 -141
-23 -31 -47 -60 -52 -64 -21 -12 -11 -25 19 -25 17 0 30 4 30 10 0 5 6 7 13 4
13 -5 57 30 57 46 0 6 5 10 10 10 16 0 12 -27 -7 -46 -12 -11 -14 -19 -6 -21
12 -4 6 -43 -8 -43 -5 0 -6 7 -2 16 5 15 3 15 -20 -1 -34 -22 -34 -29 -1 -43
14 -7 22 -17 19 -22 -13 -21 15 -8 57 26 45 38 57 54 39 54 -6 0 -11 -6 -11
-12 0 -9 -3 -8 -10 2 -8 12 -11 12 -28 -3 -19 -17 -19 -16 -5 55 7 40 18 77
23 82 13 13 13 -9 1 -52 l-10 -32 29 17 c16 9 34 30 39 45 9 25 41 40 41 19 0
-16 -30 -80 -41 -86 -5 -4 -8 -14 -5 -22 3 -8 -3 -26 -14 -40 -26 -33 -26 -57
-1 -50 15 3 18 1 14 -12 -4 -11 -1 -10 10 4 9 11 17 26 17 34 0 10 3 11 14 2
11 -10 16 -8 24 6 14 25 26 9 12 -16 -6 -12 -18 -21 -27 -21 -12 0 -14 -7 -9
-30 3 -17 1 -30 -4 -30 -6 0 -10 5 -10 10 0 6 -7 10 -15 10 -13 0 -14 -4 -5
-20 9 -16 8 -20 -5 -20 -8 0 -15 4 -15 10 0 5 -7 6 -17 3 -11 -4 -14 -3 -9 5
4 7 3 12 -3 12 -6 0 -13 -11 -17 -25 -6 -25 -15 -31 -27 -18 -4 3 -2 12 4 19
6 8 8 21 5 30 -5 14 -9 14 -23 3 -12 -10 -14 -10 -9 -1 5 8 1 12 -11 13 -10 0
-45 3 -78 6 -120 11 -116 12 -149 -35 -30 -43 -31 -47 -31 -158 0 -63 3 -114
7 -114 5 0 8 9 8 21 0 11 4 28 10 38 6 12 6 30 0 51 -7 24 -6 36 5 46 11 12
14 9 20 -16 4 -17 10 -28 15 -25 5 3 11 -9 15 -25 6 -25 9 -29 21 -19 17 14
18 5 4 -22 -15 -26 -30 -24 -30 5 0 14 -4 28 -10 31 -5 3 -10 -1 -10 -10 0 -9
-6 -26 -14 -38 -8 -13 -11 -30 -7 -42 8 -19 8 -19 20 4 22 40 23 15 2 -28 -21
-40 -28 -101 -14 -115 12 -11 14 -84 3 -91 -6 -3 -10 4 -10 17 0 25 -22 93
-33 104 -4 4 -7 -6 -7 -22 0 -16 -4 -43 -8 -59 -9 -30 8 -92 21 -79 3 4 2 -7
-3 -25 -6 -22 -4 -39 6 -60 8 -15 17 -49 20 -75 4 -41 3 -46 -15 -46 -11 0
-22 -3 -24 -8 -7 -9 39 -62 53 -62 7 0 32 16 56 36 61 51 70 32 11 -22 l-49
-44 36 0 c19 0 69 5 111 11 71 11 75 13 76 38 0 26 0 26 11 4 9 -19 19 -23 62
-23 28 0 76 3 106 7 l55 8 -45 6 -45 6 45 1 c25 1 74 -3 109 -8 35 -6 65 -9
68 -7 2 3 -7 17 -21 32 -23 24 -25 35 -22 83 3 37 9 60 21 68 12 9 15 19 9 36
-4 13 -7 26 -6 31 1 4 -2 7 -7 7 -5 0 -14 -14 -22 -31 -12 -31 -13 -31 -21 -9
-5 13 -12 46 -16 74 -5 35 -12 51 -22 51 -8 0 -20 7 -27 15 -10 13 -13 11 -22
-11 -5 -15 -16 -29 -23 -32 -10 -4 -10 -7 -1 -14 10 -7 10 -13 -2 -29 -13 -18
-14 -16 -15 21 l-2 40 -14 -32 c-8 -18 -19 -33 -24 -33 -12 0 -13 12 -2 26 16
19 33 85 27 104 -4 11 -2 20 4 20 6 0 11 -7 11 -16 0 -8 5 -12 10 -9 14 9 12
31 -3 47 -8 7 -19 27 -25 43 -10 28 -10 27 -11 -22 -1 -68 -17 -76 -25 -12 -6
44 -4 53 14 69 13 12 20 30 20 56 1 32 2 36 11 21 6 -10 9 -38 7 -63 -2 -24
-2 -44 0 -44 11 0 62 32 62 39 0 17 66 87 78 83 7 -2 12 5 12 16 0 11 8 26 17
33 15 13 16 11 8 -21 -4 -19 -8 -46 -9 -60 -1 -14 -7 -35 -14 -47 -16 -29 -15
-36 2 -30 10 4 13 1 9 -9 -3 -10 0 -12 10 -8 19 7 60 -13 52 -26 -3 -5 4 -14
15 -20 16 -8 20 -8 20 4 0 11 5 12 24 3 18 -8 22 -15 15 -24 -8 -9 1 -17 30
-32 54 -28 61 -27 61 14 0 21 6 38 14 41 8 3 17 20 21 37 6 28 8 30 14 10 5
-18 15 -9 71 66 36 49 77 97 93 107 l27 19 -27 12 c-16 6 -31 9 -35 6 -5 -2
-8 1 -8 7 0 21 -35 4 -58 -28 -26 -37 -41 -37 -22 -1 11 19 10 21 -4 16 -20
-8 -21 6 -1 23 20 17 19 27 -6 33 -16 4 -18 3 -8 -9 9 -11 7 -14 -10 -14 -15
0 -21 6 -21 21 0 11 -4 17 -10 14 -5 -3 -10 -1 -10 4 0 17 -21 13 -37 -6 -13
-16 -13 -16 -3 5 9 18 8 22 -5 22 -8 0 -15 -6 -16 -12 0 -7 -4 -3 -9 10 -10
25 -29 28 -49 10 -11 -11 -13 -10 -8 4 8 23 -9 33 -19 10 -4 -9 -6 -21 -5 -25
1 -5 -7 -6 -18 -2 -12 3 -21 0 -24 -9 -4 -10 -1 -13 9 -9 10 4 12 0 8 -10 -5
-14 -20 -14 -47 0 -4 2 0 11 8 19 17 17 12 34 -11 34 -19 0 -18 5 9 34 15 16
28 22 37 16 46 -24 59 -22 74 14 20 48 28 45 25 -6 -4 -50 12 -60 28 -18 17
44 37 39 29 -8 -6 -37 -5 -38 40 -55 24 -9 42 -12 39 -7 -3 5 4 25 15 46 26
44 21 52 -10 19 -30 -32 -43 -32 -28 0 6 13 14 23 18 22 10 -3 60 59 60 74 -1
9 -6 7 -15 -5 -11 -15 -15 -16 -15 -5 0 8 14 29 30 47 17 18 30 41 30 51 0 10
6 18 13 18 6 1 28 4 47 8 l35 7 -30 -27 c-16 -15 -41 -35 -54 -44 -31 -23 -23
-52 11 -44 33 9 94 49 111 74 9 11 20 18 26 14 6 -3 11 -2 11 3 0 6 -7 13 -16
16 -11 4 -13 13 -8 28 10 34 47 83 52 70 2 -7 8 -10 13 -6 5 3 5 13 -1 24 -11
20 4 30 45 30 26 0 41 15 25 25 -18 11 -11 27 10 20 16 -5 20 -2 20 19 0 34
18 42 26 11 7 -29 -12 -85 -30 -85 -6 0 2 -7 18 -15 16 -9 31 -13 33 -11 8 8
-8 27 -17 21 -4 -3 -6 4 -3 15 3 11 10 23 16 27 6 4 8 0 4 -10 -3 -8 0 -21 8
-27 8 -6 11 -19 8 -28 -3 -10 7 -4 25 13 16 17 33 41 37 55 7 25 7 25 -25 -5
-24 -21 -31 -25 -27 -12 4 10 7 23 7 28 0 5 6 9 13 9 16 0 57 53 57 74 0 8 5
18 10 21 6 3 10 1 10 -6 0 -10 3 -10 12 -1 7 7 8 15 1 24 -5 7 -8 26 -7 41 2
18 -1 27 -9 24 -7 -2 -11 -12 -10 -23 2 -10 -6 -30 -17 -44 l-21 -25 7 29 c5
21 4 27 -5 22 -6 -4 -11 -15 -11 -25 0 -10 -10 -26 -21 -37 -21 -19 -22 -19
-15 4 7 22 -7 31 -19 12 -3 -5 -11 -10 -17 -10 -6 0 -3 9 7 20 10 11 23 20 30
20 6 0 16 10 22 23 6 12 36 35 67 51 75 38 145 100 130 116 -6 6 -42 19 -80
29 -82 21 -117 38 -111 54 2 7 26 27 53 45 l49 32 -103 0 c-112 0 -116 2 -82
58 11 18 20 37 20 43 0 9 -130 73 -135 67 -1 -2 -7 -12 -14 -23 -10 -17 -11
-15 -6 18 3 20 5 37 3 37 -2 0 -14 -6 -28 -13z m-92 -780 c25 6 23 3 -18 -37
-24 -23 -46 -37 -48 -31 -6 19 -32 -8 -32 -34 0 -12 -10 -30 -22 -41 -20 -18
-21 -18 -15 -1 4 10 7 29 7 43 0 16 11 31 35 46 27 17 39 34 48 68 12 44 12
44 15 12 3 -29 6 -32 30 -25z m-858 -311 c0 -8 -7 -19 -15 -26 -13 -10 -15 -9
-15 12 0 14 3 28 6 31 9 9 24 -2 24 -17z"/>
<path d="M5444 8953 c5 -9 1 -13 -10 -13 -33 0 0 -18 43 -24 22 -3 54 -8 70
-10 15 -3 5 2 -23 12 -28 9 -59 24 -69 32 -11 9 -16 10 -11 3z"/>
<path d="M4970 8474 c-84 -10 -103 -18 -183 -77 -103 -76 -215 -170 -216 -179
-1 -4 18 1 42 11 61 26 303 100 351 107 59 9 38 -5 -89 -61 -180 -78 -323
-153 -437 -227 -90 -58 -119 -85 -194 -173 -91 -110 -121 -138 -60 -57 20 26
46 61 59 77 l22 30 -40 -32 c-57 -45 -127 -113 -154 -148 -12 -16 -19 -23 -16
-15 15 34 -227 -225 -309 -331 -272 -350 -410 -639 -490 -1030 -59 -283 -76
-538 -57 -849 24 -398 89 -715 224 -1100 165 -472 342 -764 602 -993 109 -97
351 -271 332 -239 -5 6 -5 12 -2 12 4 0 77 -36 163 -81 178 -91 341 -158 621
-253 359 -122 446 -137 813 -139 146 -1 264 1 262 4 -3 6 -124 16 -284 25
-160 8 -351 43 -660 118 -161 39 -340 93 -317 95 4 1 69 -15 144 -34 173 -45
346 -71 588 -90 226 -17 605 -18 765 -2 172 18 123 32 -107 31 -106 -1 -193 3
-193 7 0 5 46 9 103 9 56 0 108 4 115 9 16 10 -55 18 -283 31 -268 16 -513 50
-648 91 -38 12 -67 22 -65 24 2 1 59 -6 128 -16 137 -20 145 -21 139 -15 -3 3
-88 19 -189 36 -102 17 -223 40 -269 51 -46 10 -85 18 -87 16 -2 -1 46 -18
107 -36 60 -19 107 -36 105 -38 -11 -11 -285 77 -459 146 -120 48 -333 158
-324 167 4 4 134 -51 282 -121 118 -55 168 -74 212 -80 18 -2 63 -13 100 -24
79 -24 207 -51 231 -50 9 0 -32 14 -93 30 -258 69 -539 176 -664 254 -128 80
-270 176 -276 186 -4 5 17 -5 47 -24 29 -18 112 -64 183 -102 72 -37 153 -83
181 -102 112 -73 433 -173 802 -250 219 -46 233 -48 402 -49 96 0 231 -2 300
-3 l125 -4 -70 -9 c-38 -5 -104 -13 -145 -18 -54 -6 -12 -7 150 -5 174 3 248
8 325 23 l100 20 -90 1 c-54 1 -84 5 -75 10 17 10 178 31 236 31 24 0 34 3 26
8 -8 5 36 19 114 35 69 15 134 32 143 38 13 8 11 9 -9 5 -163 -34 -492 -87
-590 -95 -200 -17 -478 -24 -575 -16 l-90 9 60 7 c33 4 137 11 230 15 94 4
157 10 140 14 -29 5 150 20 490 41 156 9 258 24 374 54 31 8 66 12 77 9 25 -7
242 71 379 135 56 26 152 81 215 122 141 92 140 91 140 86 0 -10 -178 -136
-261 -186 -145 -86 -379 -184 -459 -191 -14 -1 -33 -2 -42 -3 -10 -1 -18 -4
-18 -8 0 -3 -39 -14 -87 -24 -113 -23 -139 -38 -53 -30 129 13 494 106 666
170 249 92 616 363 771 570 123 163 291 508 312 639 15 91 33 148 24 75 -3
-27 -1 -54 6 -65 10 -17 11 -16 5 7 -3 14 4 63 16 109 18 71 21 108 19 244 -1
89 -3 211 -4 271 0 61 -4 157 -7 215 l-7 105 19 -105 c39 -211 43 -555 9 -690
-7 -25 -13 -65 -14 -90 -1 -25 -6 -63 -10 -85 -10 -54 3 -39 20 22 7 26 14 41
14 32 2 -25 -55 -220 -89 -304 -56 -142 -149 -298 -285 -480 -130 -175 -119
-172 33 8 39 47 78 89 85 93 9 6 9 4 1 -7 -10 -14 -98 -122 -170 -209 -33 -39
-30 -37 25 15 63 60 282 316 316 368 10 15 20 26 22 23 7 -7 -102 -188 -126
-210 -15 -14 -21 -15 -21 -5 0 7 -11 -3 -25 -24 -14 -20 -30 -37 -35 -37 -5 0
-19 -15 -32 -32 l-23 -33 49 35 c27 19 88 69 135 111 82 73 88 80 128 175 69
163 95 242 138 422 32 133 44 145 16 16 -10 -49 -18 -90 -17 -91 1 -2 15 24
31 57 16 33 32 60 36 60 19 0 -89 -336 -114 -355 -12 -9 -37 -67 -37 -84 0 -3
20 26 45 64 108 169 187 356 233 550 23 97 26 130 26 285 -1 265 -24 410 -155
980 -77 334 -141 524 -266 795 -88 190 -95 208 -85 201 4 -2 41 -75 82 -160
40 -86 75 -154 77 -153 12 13 -247 526 -311 616 -301 423 -893 830 -1397 960
-193 50 -327 65 -574 65 -235 0 -274 -5 -540 -66 -71 -17 -140 -32 -152 -35
-17 -4 -26 3 -43 37 -27 52 -94 126 -134 148 -48 25 -245 22 -359 -6 -182 -45
-380 -138 -542 -255 -38 -27 -62 -41 -51 -29 23 26 148 113 235 163 205 119
331 159 520 166 100 4 129 8 115 16 -10 6 -61 10 -114 10 l-95 -1 75 12 75 12
-100 33 c-95 32 -108 34 -265 36 -91 2 -181 1 -200 -1z m1125 -330 l-40 -14
43 5 c23 3 61 7 85 10 23 3 34 2 25 -2 -10 -5 117 -9 281 -10 320 -2 410 -11
596 -60 113 -29 189 -56 323 -115 107 -47 120 -62 16 -20 -79 33 -295 102
-316 102 -7 -1 34 -19 92 -41 58 -22 109 -45 115 -51 7 -8 5 -9 -8 -5 -10 4
-46 14 -80 22 -34 9 -106 30 -160 46 -102 31 -149 34 -55 4 66 -22 289 -117
284 -122 -2 -2 -24 6 -50 17 -26 11 -58 20 -70 20 -12 0 -53 9 -91 19 -38 11
-72 18 -74 15 -2 -2 18 -13 45 -24 27 -12 60 -26 74 -32 14 -6 32 -10 40 -9
13 1 13 0 1 -8 -16 -10 12 -26 225 -126 140 -66 220 -109 299 -162 88 -58 38
-36 -152 68 -101 56 -186 99 -189 97 -6 -6 89 -69 156 -103 67 -34 267 -158
300 -186 l25 -21 -26 15 c-62 37 -228 127 -234 127 -3 0 20 -22 52 -48 32 -27
64 -56 72 -66 8 -9 64 -54 125 -101 61 -46 134 -104 161 -130 42 -39 35 -35
-45 23 -52 39 -97 68 -100 65 -5 -5 52 -59 147 -138 58 -50 125 -120 171 -180
15 -20 20 -23 16 -10 -14 44 47 -57 73 -121 15 -38 44 -96 65 -128 49 -76 59
-85 25 -22 -32 58 -35 73 -7 31 47 -69 132 -229 151 -281 24 -71 24 -78 -2
-34 -11 19 -18 28 -16 20 2 -8 12 -41 21 -73 23 -78 36 -151 25 -140 -5 5 -25
62 -45 128 -20 66 -44 131 -54 145 -10 14 -34 58 -54 99 -21 40 -39 71 -41 69
-2 -1 7 -41 21 -87 38 -132 28 -126 -37 19 -55 124 -69 147 -178 280 -66 79
-117 148 -114 153 6 10 -92 138 -198 256 -79 87 -97 102 -200 157 -220 119
-425 204 -613 255 -21 6 -36 12 -33 15 5 5 243 -49 338 -76 36 -11 110 -42
165 -70 54 -28 94 -47 89 -42 -177 153 -363 221 -780 282 l-120 18 85 2 c47 1
92 1 99 0 12 -1 12 1 3 13 -20 24 -2 26 56 6 32 -11 98 -29 147 -39 50 -10
110 -26 134 -35 24 -8 46 -14 48 -12 2 2 -50 31 -114 65 -196 101 -357 156
-488 165 -43 4 -60 2 -45 -3 14 -4 43 -8 64 -9 87 -2 20 -10 -169 -20 -226
-13 -297 -20 -290 -31 3 -5 -5 -6 -17 -2 -13 3 -19 1 -15 -5 4 -6 -10 -13 -35
-17 -60 -10 -324 -103 -315 -112 2 -2 50 12 108 31 236 80 479 122 649 110 58
-3 113 -6 124 -6 10 0 15 -3 12 -7 -4 -3 -53 -7 -109 -7 -67 -1 -164 -12 -281
-33 -196 -35 -210 -37 -201 -22 6 10 -55 -7 -184 -51 -136 -47 -458 -211 -552
-280 -102 -76 -190 -151 -184 -157 2 -3 26 13 52 35 90 74 268 189 292 189 23
0 23 0 -5 -24 -16 -13 -72 -52 -124 -88 -112 -76 -243 -214 -435 -459 -204
-260 -312 -431 -365 -575 -13 -36 -29 -74 -36 -85 -20 -32 -52 -159 -69 -274
-30 -196 -22 -355 29 -620 8 -40 10 -69 6 -65 -11 12 -57 240 -68 339 -9 76
-9 73 -11 -75 -1 -137 8 -230 35 -370 l4 -25 -10 24 c-13 31 -37 182 -46 293
-3 48 -10 85 -15 82 -20 -12 1 269 32 419 29 145 89 321 173 510 47 105 19 59
-68 -113 -82 -163 -113 -236 -60 -140 14 25 22 36 18 25 -83 -236 -109 -341
-128 -520 -8 -67 -14 -100 -15 -74 -2 80 19 250 40 334 12 44 23 96 24 115 6
80 101 315 189 466 105 183 175 276 363 485 28 31 56 67 63 79 11 20 10 21
-10 10 -41 -22 -279 -266 -340 -350 -182 -248 -309 -545 -366 -855 -26 -139
-27 -459 -1 -560 9 -38 26 -124 37 -190 25 -159 63 -334 68 -313 2 9 -6 71
-17 137 -12 65 -21 125 -21 133 0 7 18 -34 40 -91 44 -115 141 -306 215 -421
80 -125 194 -265 344 -424 66 -69 66 -70 16 -31 l-50 40 52 -60 c60 -70 133
-142 133 -132 0 4 11 0 24 -9 14 -8 34 -14 44 -12 13 2 39 -15 75 -49 38 -36
66 -54 93 -59 22 -4 69 -22 107 -41 37 -18 105 -42 151 -53 46 -11 96 -26 112
-34 16 -8 84 -22 151 -31 104 -13 134 -14 203 -3 44 7 80 16 80 21 0 5 -7 6
-15 3 -21 -8 -241 -20 -235 -13 3 3 64 10 135 17 109 9 144 9 216 -4 81 -14
92 -14 185 5 54 11 101 24 104 29 3 5 32 16 63 24 32 8 117 38 188 67 133 53
192 64 74 14 -75 -32 -80 -42 -10 -20 27 8 51 13 52 11 2 -2 -35 -21 -82 -42
-47 -21 -85 -42 -85 -46 0 -19 30 -18 80 1 30 11 55 19 57 17 6 -5 -152 -65
-216 -82 -72 -18 -77 -26 -16 -24 28 1 61 1 75 1 43 -2 0 -20 -113 -46 -91
-21 -97 -24 -54 -24 28 -1 91 13 155 33 59 19 132 41 162 50 68 19 250 122
350 198 71 53 170 148 156 148 -4 0 15 28 42 63 67 88 188 337 164 337 -5 0
-14 -17 -21 -38 -29 -80 -105 -220 -156 -287 -58 -77 -177 -183 -283 -255 -58
-39 -211 -110 -238 -110 -17 0 33 29 84 48 75 29 163 95 304 231 69 67 130
121 135 121 14 0 98 154 127 232 59 155 90 430 67 578 -16 100 -32 173 -41
185 -4 6 -13 34 -20 62 -6 29 -15 51 -20 48 -4 -3 -10 10 -14 27 -6 30 -34
100 -92 226 -32 70 -22 66 15 -5 17 -32 30 -53 31 -48 1 23 -116 236 -173 315
-44 61 -69 89 -45 50 43 -70 80 -141 75 -146 -2 -3 -28 28 -57 68 -29 40 -70
94 -91 119 -21 25 -35 49 -31 53 4 4 2 6 -3 5 -6 -2 -57 45 -114 104 -57 59
-109 107 -114 107 -6 0 23 -35 65 -77 77 -80 194 -232 242 -315 15 -27 33 -51
39 -55 6 -3 1 10 -12 30 -36 58 -16 43 28 -21 115 -170 211 -381 254 -562 29
-121 27 -146 -3 -32 -28 106 -98 288 -107 278 -2 -2 7 -37 22 -77 51 -146 84
-270 98 -366 17 -124 8 -296 -23 -413 -23 -92 -105 -266 -146 -315 -22 -26
-21 -23 6 25 66 116 130 294 119 330 -4 14 -7 19 -8 11 -1 -8 -3 -12 -6 -10
-2 3 0 21 5 40 48 179 12 469 -91 727 -80 201 -99 240 -175 362 -131 209 -167
261 -241 346 -353 404 -692 432 -957 80 -230 -306 -349 -576 -372 -841 -6 -79
9 -222 25 -238 4 -4 13 48 19 115 13 152 46 268 117 413 65 133 123 221 246
372 139 169 219 224 333 223 52 -1 116 -25 123 -47 3 -8 -15 -12 -60 -12 -36
0 -81 -7 -101 -15 -73 -30 -175 -146 -301 -340 -105 -161 -174 -331 -196 -476
-13 -92 -9 -156 19 -281 11 -46 25 -110 31 -142 24 -110 21 -51 -4 101 -14 84
-25 177 -25 207 0 150 76 347 211 546 63 95 183 241 217 266 106 78 203 44
379 -135 128 -131 182 -201 77 -101 -124 118 -240 189 -311 189 -34 0 -72 -29
-113 -86 -30 -43 -31 -47 -10 -31 44 31 84 46 97 35 6 -5 10 -15 7 -21 -5 -15
152 -216 188 -239 33 -22 137 -151 205 -255 63 -96 71 -121 11 -37 -89 126
-207 260 -274 311 -59 46 -61 41 -6 -15 27 -26 72 -81 101 -122 64 -92 183
-299 207 -360 20 -52 35 -74 28 -39 -5 22 -4 22 6 5 34 -52 57 -241 40 -322
-15 -70 -61 -124 -170 -197 -94 -64 -184 -101 -314 -129 -88 -20 -130 -22
-321 -22 -244 0 -320 10 -485 66 -92 31 -98 34 -193 127 -508 494 -626 1015
-350 1541 158 302 401 541 694 685 51 25 99 51 107 58 13 10 14 9 7 -2 -6 -11
-4 -13 11 -6 10 4 64 21 119 37 55 15 143 42 195 58 121 37 203 50 310 48 l85
-1 -80 -7 c-97 -9 -214 -30 -219 -39 -2 -3 78 -3 177 2 266 11 357 -10 617
-145 288 -149 494 -308 620 -478 117 -158 316 -755 401 -1203 27 -141 37 -437
19 -559 -29 -208 -129 -410 -284 -577 l-51 -55 64 44 c116 81 149 117 197 212
25 50 48 87 51 84 10 -10 51 97 84 219 29 105 30 118 27 272 -2 89 0 159 3
155 4 -4 12 -48 18 -99 11 -91 6 -175 -19 -327 -10 -63 -7 -89 5 -37 4 17 11
34 17 38 8 4 9 0 5 -11 -4 -10 -9 -28 -12 -39 -28 -130 -50 -207 -66 -240 -27
-52 -35 -42 -11 14 10 24 22 60 25 79 5 32 5 33 -5 10 -51 -118 -82 -175 -116
-212 -21 -24 -52 -63 -67 -88 -15 -25 -39 -57 -53 -72 -31 -33 -18 -38 15 -6
13 12 29 23 36 24 6 2 23 6 37 10 l25 7 -20 -24 c-10 -13 -37 -44 -60 -68 -39
-44 -40 -44 -7 -21 18 12 51 44 72 71 21 26 41 45 45 41 4 -4 5 -2 4 3 -5 16
20 55 35 55 18 0 108 193 150 321 32 99 62 254 69 364 2 28 4 9 5 -42 1 -50
-5 -146 -14 -212 -8 -67 -14 -127 -11 -134 4 -13 53 188 67 278 9 58 9 57 5
-25 -3 -76 -3 -80 6 -35 15 80 15 281 0 398 -13 98 -12 109 3 126 15 16 15 24
1 89 -13 62 -86 363 -102 417 -3 13 -2 17 5 10 5 -5 27 -62 47 -125 60 -185
100 -447 83 -539 -8 -45 -4 -116 19 -335 6 -57 -16 -174 -28 -154 -12 19 -26
1 -49 -66 -21 -62 -27 -160 -10 -171 5 -3 -3 -24 -18 -48 -62 -96 -114 -168
-119 -164 -2 3 7 28 21 56 15 28 25 51 23 51 -2 0 -28 -40 -57 -90 -29 -49
-64 -99 -77 -112 -14 -13 7 28 46 91 39 63 71 119 71 125 0 6 -14 -11 -31 -39
-81 -129 -112 -174 -119 -170 -4 2 -22 -12 -41 -33 l-34 -37 33 29 c60 55 32
14 -67 -98 -105 -118 -177 -171 -215 -157 -17 7 -10 14 45 51 75 51 192 150
185 158 -3 2 9 23 27 46 l32 41 -30 -19 c-16 -10 -49 -40 -73 -67 -23 -26 -61
-62 -85 -80 -35 -27 -31 -21 23 35 66 69 57 72 -29 11 -25 -18 -77 -49 -116
-70 -38 -22 -90 -56 -115 -78 -66 -57 -162 -110 -274 -152 -104 -38 -141 -43
-57 -6 27 11 52 25 55 30 3 5 70 43 148 85 177 94 224 128 123 87 -38 -15 -93
-40 -120 -53 -65 -34 -220 -58 -405 -64 -80 -3 -199 -14 -265 -25 -215 -34
-370 -42 -703 -36 -418 7 -786 41 -987 93 -191 50 -441 139 -553 199 -47 25
-59 28 -46 14 23 -26 224 -124 374 -182 215 -84 280 -100 458 -112 89 -6 183
-15 211 -21 18 -4 21 -8 12 -14 -8 -5 29 -11 92 -15 174 -12 189 -23 37 -25
-74 -2 -148 -2 -164 -1 -18 2 -26 -1 -21 -8 3 -6 18 -11 33 -12 15 -1 38 -4
52 -9 42 -13 -171 1 -249 16 -41 8 -76 12 -78 10 -5 -5 161 -59 215 -71 18 -4
31 -9 29 -12 -7 -7 -155 24 -255 53 -97 28 -245 84 -239 90 2 2 51 -7 108 -20
97 -23 259 -43 259 -32 0 2 -44 14 -97 26 -170 38 -294 73 -282 80 6 4 -10 12
-35 19 -25 6 -80 27 -123 47 -80 37 -313 134 -322 134 -15 0 112 -74 239 -138
153 -78 155 -86 5 -19 -265 118 -456 264 -606 462 -42 56 -153 250 -211 370
-22 46 -36 67 -33 50 l5 -30 -15 25 c-16 27 -34 86 -70 224 -13 50 -36 129
-50 176 -29 94 -56 296 -53 405 1 39 3 54 5 35 6 -65 34 -265 44 -320 14 -76
58 -220 75 -247 8 -13 26 -60 40 -105 26 -83 111 -264 120 -256 2 3 -22 70
-55 149 -32 79 -62 160 -66 179 -4 19 -15 63 -26 98 -10 35 -29 127 -41 205
-19 125 -22 183 -22 476 -1 184 -4 321 -8 305 -4 -16 -5 -5 -2 26 7 75 75 334
117 450 19 52 43 118 52 145 55 158 124 323 172 415 56 106 178 300 188 300 7
0 2 -9 -45 -80 -76 -114 -241 -452 -260 -533 -5 -23 -52 -172 -105 -331 -52
-159 -95 -294 -94 -300 0 -6 18 40 39 103 41 119 57 150 47 91 -6 -30 -5 -33
7 -18 7 10 23 68 36 130 13 62 43 169 67 238 23 68 43 133 43 144 0 10 44 110
98 221 143 293 246 448 406 613 114 118 203 187 222 171 9 -7 19 -7 36 2 12 7
32 13 44 15 12 1 57 29 102 62 92 68 240 143 327 166 33 9 78 22 99 30 l39 14
-79 6 c-210 18 -558 -113 -789 -299 -70 -56 -67 -48 13 30 168 166 494 305
711 305 161 0 270 -42 366 -139 63 -65 85 -67 85 -8 0 23 -7 63 -14 89 -8 25
-12 49 -9 52 4 3 25 6 47 7 23 0 77 11 121 24 88 25 143 32 80 9z m193 9 c-10
-2 -28 -2 -40 0 -13 2 -5 4 17 4 22 1 32 -1 23 -4z m449 -199 c-3 -3 -12 -4
-19 -1 -8 3 -5 6 6 6 11 1 17 -2 13 -5z m488 -74 c13 -6 15 -9 5 -9 -8 0 -22
4 -30 9 -18 12 -2 12 25 0z m-1645 -205 c0 -2 -13 -11 -30 -20 -38 -19 -40
-11 -2 9 31 17 32 18 32 11z m-1654 -107 c-19 -35 -57 -106 -85 -158 -28 -52
-51 -92 -51 -89 0 23 153 309 165 309 3 0 -11 -28 -29 -62z m4709 -598 c9 -16
13 -30 11 -30 -3 0 -12 14 -21 30 -9 17 -13 30 -11 30 3 0 12 -13 21 -30z
m-617 -537 c10 -21 40 -78 67 -127 78 -143 187 -482 259 -806 16 -69 34 -143
42 -165 l13 -40 0 35 c-1 19 0 49 2 65 2 27 6 -18 23 -315 l5 -95 -13 75 -13
75 -3 -130 c-2 -80 -5 -115 -9 -90 -7 44 -5 55 -47 -210 -16 -101 -51 -227
-53 -190 0 11 6 45 15 75 21 79 29 159 26 290 -4 209 -36 403 -116 696 -26 92
-44 169 -42 171 6 7 82 -229 117 -365 16 -64 35 -165 41 -225 6 -59 13 -105
15 -103 8 8 -18 267 -38 385 -45 266 -72 356 -234 806 -26 72 -56 151 -66 178
-21 56 -17 62 9 10z m-4101 -505 c-3 -8 -6 -5 -6 6 -1 11 2 17 5 13 3 -3 4
-12 1 -19z m5128 -1355 c-10 -66 -17 -46 -8 23 4 32 9 51 11 40 2 -10 1 -38
-3 -63z m-1610 -28 c-38 -84 -124 -199 -177 -236 -31 -22 -30 -20 12 29 92
107 122 149 158 219 20 40 38 71 39 69 2 -2 -12 -38 -32 -81z m-625 -635 c-8
-5 -22 -9 -30 -9 -10 0 -8 3 5 9 27 12 43 12 25 0z"/>
<path d="M6660 8087 c3 -2 41 -14 85 -26 44 -12 99 -31 123 -43 49 -23 56 -21
43 14 -9 23 -18 27 -93 37 -46 6 -101 14 -123 17 -22 4 -38 4 -35 1z"/>
<path d="M5135 7328 c-126 -104 -239 -227 -316 -340 -43 -65 -79 -122 -79
-127 0 -20 -23 -60 -31 -55 -5 3 -6 -3 -2 -12 5 -13 3 -15 -7 -9 -8 5 -11 4
-7 -2 4 -6 -12 -51 -34 -99 -48 -104 -60 -134 -54 -134 3 0 25 39 49 88 24 48
70 128 101 177 31 50 59 99 61 109 10 54 135 211 267 338 62 59 110 107 107
108 -3 0 -27 -19 -55 -42z"/>
<path d="M8370 6667 c0 -15 65 -137 73 -137 5 0 -8 30 -29 68 -40 72 -44 79
-44 69z"/>
<path d="M3941 6044 c0 -11 3 -14 6 -6 3 7 2 16 -1 19 -3 4 -6 -2 -5 -13z"/>
<path d="M4433 5785 c0 -33 2 -45 4 -27 2 18 2 45 0 60 -2 15 -4 0 -4 -33z"/>
<path d="M7551 4824 c0 -11 3 -14 6 -6 3 7 2 16 -1 19 -3 4 -6 -2 -5 -13z"/>
<path d="M8452 4680 c0 -14 2 -19 5 -12 2 6 2 18 0 25 -3 6 -5 1 -5 -13z"/>
<path d="M6700 3935 c-36 -7 -101 -22 -146 -33 -44 -12 -113 -25 -152 -28 -40
-4 -72 -11 -72 -16 0 -5 -67 -7 -157 -4 -120 4 -148 3 -118 -5 22 -5 110 -9
197 -7 86 2 151 0 145 -4 -7 -4 -41 -8 -77 -8 -51 -1 -61 -3 -47 -11 11 -6 63
-9 128 -7 l110 3 28 34 c16 19 39 36 51 38 34 5 190 53 190 59 0 2 -3 3 -7 3
-5 -1 -37 -7 -73 -14z"/>
<path d="M8420 8314 c0 -6 17 -48 39 -94 6 -14 9 -17 6 -7 -3 10 -8 36 -11 57
-4 21 -13 41 -20 44 -8 3 -14 3 -14 0z"/>
<path d="M2527 7604 c-63 -29 -95 -37 -160 -41 -57 -4 -85 -10 -91 -20 -6 -12
-21 -14 -70 -8 -58 6 -64 4 -91 -21 l-29 -27 63 6 c72 6 72 7 -27 -57 -69 -45
-88 -74 -46 -69 10 1 13 0 7 -3 -7 -3 -13 -12 -13 -20 0 -10 10 -12 45 -7 31
4 45 2 45 -6 0 -6 -5 -11 -12 -11 -6 0 -9 -3 -5 -6 8 -8 53 24 47 34 -3 4 12
8 34 10 25 2 36 0 31 -7 -3 -6 -14 -11 -23 -11 -9 0 -28 -9 -42 -20 l-25 -19
35 9 c21 6 47 6 65 1 l30 -9 -35 -2 c-55 -2 -145 -24 -164 -39 -9 -8 -20 -11
-23 -7 -4 4 -1 11 7 16 24 15 6 20 -20 6 -15 -7 -24 -20 -23 -31 1 -10 -5 -25
-14 -33 -13 -13 -16 -13 -24 -1 -6 11 -30 13 -100 12 -56 -2 -98 2 -106 8 -9
8 -14 7 -19 -4 -6 -16 -44 -20 -44 -4 0 4 16 15 36 23 24 10 34 20 30 30 -3 7
0 14 7 15 24 1 61 10 66 15 3 3 -1 9 -9 14 -13 8 -13 10 -1 10 10 0 8 7 -7 23
-12 13 -22 30 -22 38 1 8 7 3 16 -11 9 -14 13 -17 10 -7 -4 11 -9 30 -12 43
-7 27 -8 28 -32 15 -14 -7 -17 -4 -18 20 -1 18 4 29 12 29 18 0 18 4 -6 50
-24 47 -32 48 -71 16 -16 -14 -36 -22 -47 -19 -10 2 -24 -3 -31 -11 -8 -9 -21
-16 -30 -16 -14 1 -14 2 2 11 9 5 17 14 17 20 0 6 -7 6 -17 0 -10 -5 -38 -15
-63 -21 -25 -7 -70 -22 -100 -34 -62 -23 -60 -23 -97 -25 l-28 -2 22 -18 c12
-10 19 -22 15 -26 -4 -5 1 -5 10 -2 11 4 15 2 12 -7 -8 -21 24 -27 56 -11 38
20 61 19 35 -1 -17 -13 -18 -16 -5 -24 13 -9 13 -10 0 -10 -30 -1 -43 -16 -31
-36 10 -19 10 -19 11 0 0 15 3 16 15 6 12 -10 13 -16 4 -26 -8 -10 -8 -14 0
-14 6 0 10 -6 8 -12 -1 -8 7 -12 23 -10 19 2 22 0 12 -10 -19 -19 -14 -30 10
-22 20 6 21 5 10 -8 -15 -19 -5 -51 15 -44 11 4 13 1 8 -15 -7 -20 -6 -20 19
-4 16 11 26 13 26 6 0 -6 7 -11 16 -11 11 0 13 -6 9 -19 -3 -11 -1 -23 6 -27
8 -4 1 -11 -17 -19 -27 -11 -31 -10 -53 21 l-24 33 -27 -19 c-48 -34 -55 -21
-14 23 33 36 22 54 -17 26 -31 -22 -50 -20 -31 4 7 8 9 16 6 20 -3 3 4 8 15
12 21 6 21 7 -6 46 -16 21 -32 39 -36 39 -5 0 -5 -4 -2 -10 3 -5 0 -10 -7 -10
-14 -1 -58 -34 -58 -44 0 -3 12 -1 26 4 14 6 33 10 42 10 13 0 12 -3 -5 -15
-12 -9 -26 -14 -30 -13 -12 3 -80 -29 -87 -41 -10 -15 7 -14 23 2 11 10 13 9
9 -3 -2 -8 -19 -20 -37 -26 -31 -10 -94 -74 -72 -74 10 0 37 24 43 38 1 5 13
13 26 16 l22 7 -20 -34 c-17 -28 -28 -35 -63 -40 -31 -4 -49 -14 -71 -39 -16
-19 -24 -24 -17 -11 17 34 14 50 -12 48 -12 -1 -14 0 -4 2 9 2 17 9 17 14 0 5
10 9 23 9 13 0 32 7 43 16 10 8 13 13 6 9 -19 -10 -78 5 -61 15 7 5 17 6 21 4
4 -3 8 -1 8 4 0 5 19 12 41 15 50 7 71 23 49 38 -19 13 -136 5 -155 -11 -8 -7
-23 -9 -37 -4 -23 7 -23 6 -5 -14 11 -11 16 -26 12 -32 -13 -21 -89 -63 -93
-51 -7 21 -22 11 -22 -15 0 -22 -2 -25 -15 -14 -10 8 -15 9 -15 1 0 -7 -8 -8
-22 -3 -30 11 -55 5 -62 -15 -5 -13 -4 -14 9 -3 8 7 15 8 15 2 0 -19 -26 -32
-38 -20 -9 9 -19 5 -40 -15 -34 -33 -42 -34 -36 -4 3 12 6 27 6 33 1 6 21 20
45 30 48 21 58 40 16 30 -20 -5 -24 -4 -13 3 12 8 11 11 -5 17 -11 4 -23 12
-26 17 -7 9 -109 -30 -109 -43 0 -4 -12 -12 -26 -19 -47 -21 -18 -22 31 -1 61
26 96 22 40 -5 -22 -11 -44 -20 -50 -20 -23 -2 -92 -39 -119 -63 -18 -18 -30
-23 -33 -15 -3 9 -10 9 -29 1 -26 -12 -31 -24 -13 -30 6 -2 -3 -19 -20 -37
-29 -30 -29 -33 -9 -27 13 3 26 6 31 6 4 0 7 7 7 14 0 8 24 26 53 41 l52 25
-28 -25 c-15 -14 -22 -25 -16 -25 7 0 24 11 38 24 29 27 101 60 101 46 0 -5
-8 -13 -17 -19 -27 -14 -7 -26 22 -13 14 7 25 7 25 2 0 -5 -19 -14 -42 -21
-24 -6 -63 -22 -88 -34 -25 -13 -67 -26 -95 -30 -60 -8 -289 -69 -362 -96 -61
-23 -83 -44 -56 -53 10 -3 68 -12 128 -21 269 -37 270 -62 2 -116 -77 -15
-142 -31 -146 -34 -3 -3 101 -5 232 -3 l238 3 -33 -27 c-18 -15 -59 -39 -90
-54 -31 -15 -55 -30 -53 -34 3 -4 49 -24 104 -45 l100 -37 28 19 c53 37 58 34
13 -6 -24 -22 -42 -42 -40 -44 10 -9 128 26 124 37 -2 6 29 21 74 35 42 14
102 38 132 54 77 41 149 65 260 88 52 11 129 32 170 45 41 14 86 23 100 20 19
-3 29 1 38 15 7 10 17 19 24 19 6 0 4 -8 -5 -18 -20 -22 -11 -37 11 -20 19 16
95 38 149 43 23 2 72 13 108 24 37 12 76 21 86 21 24 0 24 12 -1 35 -11 10
-20 15 -20 10 0 -4 -7 -2 -15 5 -9 7 -26 10 -42 6 l-28 -6 25 21 c14 12 24 26
22 32 -2 5 5 6 15 2 49 -20 53 -19 47 14 -5 22 -3 31 7 31 10 0 10 3 1 12 -7
7 -30 11 -52 10 -44 -3 -50 3 -22 24 15 12 15 15 2 24 -13 9 -13 11 0 21 13 9
12 10 -2 5 -10 -3 -25 -9 -33 -12 -10 -4 -15 0 -15 12 0 14 -3 15 -12 6 -17
-17 -28 -15 -21 4 4 10 14 14 30 11 17 -3 28 2 36 14 14 22 29 26 21 5 -3 -8
-1 -17 5 -21 7 -4 11 4 11 21 0 23 2 25 15 14 9 -7 14 -19 11 -27 -3 -7 0 -13
7 -13 8 0 6 -4 -3 -10 -12 -8 -11 -10 8 -10 12 0 22 5 22 10 0 6 5 10 10 10 6
0 10 -7 10 -15 0 -8 -6 -15 -14 -15 -8 0 -16 -7 -20 -15 -3 -9 0 -15 9 -15 8
0 12 -6 9 -13 -3 -8 1 -19 9 -26 11 -9 17 -8 27 4 7 8 19 15 26 15 12 0 12 -4
2 -20 -7 -11 -18 -20 -25 -20 -18 0 -16 -15 3 -31 8 -7 25 -30 36 -52 l20 -40
50 6 c32 4 66 17 91 34 22 15 62 43 90 61 27 18 47 35 45 38 -8 8 -73 -18 -96
-39 -12 -12 -31 -22 -42 -24 -20 -3 -20 -2 -4 22 9 14 14 28 11 32 -4 3 3 15
16 26 15 13 18 21 10 24 -20 7 -15 23 6 23 31 0 35 -19 9 -40 l-23 -20 45 6
c25 4 52 13 60 20 12 12 10 14 -15 15 -26 0 -27 2 -10 9 11 5 37 9 57 9 41 1
98 29 98 49 0 6 11 12 24 12 14 0 28 5 31 10 3 6 18 10 33 9 l27 -1 -26 -11
c-34 -16 -111 -78 -105 -85 3 -3 11 0 19 6 7 6 37 14 67 18 59 8 122 38 98 47
-7 3 7 6 32 6 27 1 65 11 94 26 27 14 57 25 65 25 9 0 -15 -16 -52 -35 -38
-19 -80 -35 -95 -35 -19 0 -23 -3 -13 -9 7 -5 10 -14 7 -20 -12 -19 9 -12 50
17 38 26 76 49 132 78 35 18 72 18 72 0 0 -7 7 -19 15 -26 12 -10 26 -7 76 17
l61 28 -93 55 c-72 42 -89 56 -72 58 14 2 58 -17 109 -47 47 -28 88 -51 90
-51 10 0 3 86 -13 156 -16 73 -17 76 -42 71 -14 -2 -48 -1 -76 2 l-50 7 72 8
c40 4 70 12 67 17 -3 5 -11 6 -17 2 -9 -5 -9 -3 0 8 11 14 7 30 -52 197 -4 10
-9 10 -27 0 -13 -7 -24 -14 -26 -15 -2 0 8 -24 23 -53 37 -73 27 -82 -24 -21
-24 28 -49 51 -57 51 -7 0 -11 6 -9 13 7 16 -99 144 -135 162 -38 19 -33 20
-123 -21z m213 -98 c0 -2 -7 -7 -16 -10 -8 -3 -12 -2 -9 4 6 10 25 14 25 6z
m-659 -305 c-34 -33 -46 -39 -76 -36 -26 3 -43 -3 -65 -22 -38 -32 -39 -17 -1
25 27 29 71 46 56 22 -10 -17 11 -11 38 10 24 19 63 38 80 39 5 1 -10 -17 -32
-38z m-416 -59 c-2 -2 -12 2 -24 9 -15 10 -17 16 -9 27 10 11 14 9 24 -10 7
-13 11 -24 9 -26z m-850 -73 c0 -16 -6 -24 -20 -26 -11 -2 -14 0 -8 3 8 4 11
15 7 31 -5 19 -3 24 7 21 8 -3 14 -15 14 -29z m941 -236 c-10 -10 28 -41 43
-36 9 3 -6 -17 -33 -45 -28 -28 -52 -49 -55 -47 -2 3 5 15 17 28 12 13 22 26
22 30 0 13 -40 7 -64 -8 -21 -14 -24 -14 -29 -1 -6 15 28 46 67 59 10 4 16 13
13 22 -4 9 -1 12 9 8 8 -3 13 -8 10 -10z m74 -53 c0 -5 -5 -10 -11 -10 -5 0
-7 5 -4 10 3 6 8 10 11 10 2 0 4 -4 4 -10z"/>
<path d="M9180 7323 c0 -5 64 -119 72 -128 5 -5 -1 13 -13 40 -12 28 -21 59
-21 70 1 14 -5 21 -18 21 -11 0 -20 -1 -20 -3z"/>
<path d="M11792 7300 c-18 -3 -32 -9 -32 -15 1 -5 -20 -17 -47 -26 -26 -9 -68
-28 -93 -42 -25 -15 -116 -43 -205 -65 -88 -21 -182 -49 -209 -61 -27 -13 -68
-23 -92 -23 -24 0 -47 -5 -51 -11 -5 -7 -17 -19 -27 -27 -19 -15 -19 -14 -2
13 22 33 6 36 -31 7 -14 -11 -32 -20 -40 -20 -7 0 -41 -14 -74 -30 -33 -17
-64 -28 -70 -25 -11 7 -239 -104 -239 -117 0 -26 95 -36 121 -12 17 16 19 16
19 1 0 -9 -9 -21 -20 -27 -11 -6 -18 -15 -14 -21 7 -11 -13 -39 -28 -39 -6 0
-6 6 1 14 9 11 6 14 -14 14 -33 0 -41 -14 -20 -34 9 -9 14 -23 11 -30 -7 -17
-1 -17 63 -2 28 6 51 16 51 21 0 5 -7 7 -15 3 -8 -3 -14 -2 -14 2 3 19 -3 22
-21 12 -11 -6 -20 -8 -20 -6 0 14 85 127 88 117 2 -6 -6 -24 -18 -41 l-21 -30
32 7 c18 3 41 15 52 26 14 14 22 16 31 7 8 -9 1 -21 -32 -50 -24 -22 -41 -44
-37 -50 3 -5 -1 -10 -9 -10 -8 0 -28 -11 -43 -25 l-28 -24 28 -1 c20 0 26 -4
21 -12 -4 -7 2 -5 13 5 20 17 21 17 27 0 6 -15 9 -15 16 -3 5 8 12 11 16 7 12
-12 -18 -38 -37 -32 -14 5 -19 1 -19 -14 0 -29 -17 -35 -25 -8 -7 21 -7 21
-14 -5 -4 -20 -10 -25 -20 -19 -7 5 -11 14 -7 20 5 7 1 8 -11 4 -16 -6 -16 -5
-4 10 8 10 9 17 3 17 -6 0 -18 -10 -27 -22 -13 -19 -17 -21 -25 -8 -6 10 -5
17 5 23 20 11 20 41 1 34 -10 -4 -13 -1 -10 7 4 12 -13 28 -67 61 -10 5 -33
23 -53 39 l-36 28 -45 -26 c-39 -23 -52 -40 -89 -117 -24 -49 -41 -89 -37 -89
12 1 48 45 56 70 4 13 14 30 21 38 12 11 14 8 16 -20 0 -18 0 -45 -1 -60 -1
-16 3 -28 9 -28 6 0 8 -4 5 -10 -3 -5 -13 -10 -21 -10 -12 0 -14 7 -9 31 l7
31 -31 -23 c-37 -27 -42 -54 -9 -43 20 6 21 5 10 -8 -7 -9 -25 -21 -41 -28
-16 -6 -35 -26 -44 -43 -44 -92 -52 -107 -64 -111 -16 -7 -16 -6 2 31 8 16 18
44 21 61 l6 31 -41 -39 c-44 -42 -70 -90 -48 -90 6 -1 0 -11 -14 -23 -15 -12
-29 -37 -33 -57 -4 -19 -15 -46 -26 -60 -17 -22 -22 -23 -39 -12 -28 16 -27
17 -23 -29 5 -44 5 -45 75 -54 68 -9 59 -26 -10 -19 l-58 6 35 -31 c19 -17 58
-47 87 -67 46 -32 54 -35 69 -23 15 12 16 12 10 -8 -6 -18 0 -29 30 -55 21
-18 43 -33 50 -33 8 0 21 -9 31 -20 18 -19 18 -19 -7 0 -16 13 -13 6 9 -18 19
-20 37 -37 40 -37 2 0 -4 9 -14 20 -37 41 -1 18 62 -40 36 -33 69 -58 73 -55
4 2 10 24 13 47 4 34 14 51 46 79 23 20 41 42 41 48 0 13 38 34 50 26 5 -3 14
4 20 15 6 11 8 20 5 20 -3 0 -1 9 5 20 14 25 6 25 -31 -1 -35 -25 -36 -19 -4
60 25 60 26 89 3 75 -7 -5 -9 -1 -5 9 12 31 -10 26 -58 -14 -51 -42 -67 -45
-41 -7 22 31 20 45 -3 24 -11 -10 -25 -16 -30 -15 -6 2 9 20 33 39 25 19 48
46 52 60 l7 25 7 -25 7 -25 10 25 c7 17 7 27 0 31 -6 4 -4 18 6 38 8 17 11 31
6 31 -5 0 -18 -18 -29 -39 -21 -42 -50 -70 -36 -35 5 10 10 29 11 41 5 32 12
41 45 48 19 4 33 16 42 36 7 16 16 29 20 29 9 0 -11 -58 -30 -87 -14 -22 -13
-23 14 -23 15 0 47 9 70 21 24 11 53 21 66 22 12 1 31 10 42 21 15 15 21 17
24 6 3 -7 -7 -24 -21 -36 -17 -14 -25 -29 -21 -38 4 -11 -2 -19 -19 -25 -32
-12 -44 -31 -20 -31 13 0 15 -2 5 -9 -10 -6 -7 -12 12 -25 14 -9 26 -22 26
-28 0 -7 -7 -3 -16 8 -15 18 -15 17 -2 -6 8 -14 18 -31 22 -38 6 -9 11 -10 20
-3 10 8 16 4 24 -14 10 -21 9 -25 -4 -25 -12 0 -7 -11 16 -40 17 -22 36 -40
41 -40 4 0 15 14 24 30 9 17 23 30 31 30 9 0 25 10 35 23 l20 22 -11 -22 c-14
-30 -10 -29 48 7 27 17 52 30 56 30 4 0 27 14 51 30 24 17 52 30 62 30 10 0
24 4 32 9 11 7 7 14 -20 30 -19 12 -29 21 -24 22 6 0 1 4 -10 8 -13 5 -30 2
-50 -11 -39 -23 -53 -23 -31 1 13 15 14 20 4 23 -8 3 -2 10 15 20 25 13 27 16
13 27 -13 11 -16 11 -16 -2 0 -10 -6 -14 -15 -11 -10 4 -13 14 -8 32 4 19 3
23 -7 17 -8 -5 -11 -4 -6 3 9 15 -13 27 -27 13 -20 -20 -30 -11 -11 11 19 21
19 21 -4 15 -19 -4 -22 -2 -18 10 4 9 1 22 -5 29 -9 12 -15 12 -27 2 -13 -11
-14 -10 -8 10 8 25 -5 29 -24 7 -9 -11 -16 -12 -25 -5 -9 7 -16 6 -25 -5 -11
-13 -10 -14 6 -8 17 6 17 5 5 -10 -13 -16 -14 -16 -26 0 -11 14 -10 19 4 29
13 10 14 15 4 25 -15 15 -17 33 -4 25 5 -3 14 1 21 9 11 13 17 12 47 -11 l34
-26 23 21 c36 34 51 26 26 -15 -27 -43 -20 -54 16 -25 34 26 48 27 34 1 -6
-11 -7 -20 -3 -20 4 0 -2 -6 -13 -14 -18 -14 -18 -16 16 -51 21 -22 36 -31 39
-24 2 7 17 24 33 37 35 30 30 39 -11 18 -16 -9 -32 -12 -35 -7 -6 8 17 23 39
26 19 2 85 47 85 57 0 6 -6 5 -15 -2 -11 -9 -15 -9 -15 -1 0 7 15 18 34 26 41
17 88 75 61 75 -9 0 -19 -9 -22 -20 -3 -11 -18 -26 -33 -34 l-28 -14 19 38
c16 31 27 39 58 44 29 4 48 16 70 43 l32 38 -16 -32 c-15 -32 -15 -33 5 -33
11 0 20 -4 20 -10 0 -5 -7 -6 -17 -3 -11 4 -14 3 -9 -5 4 -7 -9 -16 -36 -24
l-43 -12 45 -6 45 -6 -39 -17 c-21 -9 -46 -17 -56 -17 -10 0 -23 -7 -31 -16
-10 -13 -10 -17 2 -25 18 -13 108 -2 136 16 12 8 30 12 40 8 17 -6 17 -6 0 14
-18 20 -17 21 20 52 40 33 53 38 53 20 0 -5 5 -7 11 -4 6 4 8 14 5 22 -4 11
-2 13 9 9 8 -3 15 -1 15 5 0 6 7 6 19 -1 31 -16 44 -12 38 11 -4 15 -2 19 10
15 8 -4 23 3 34 16 l20 23 -3 -30 c-2 -19 -13 -38 -32 -52 -26 -20 -27 -28 -4
-24 4 0 5 -6 2 -14 -4 -9 0 -15 9 -15 10 0 13 7 10 18 -2 11 4 25 14 33 16 12
17 12 6 -1 -7 -10 -9 -21 -3 -30 6 -9 4 -20 -3 -29 -21 -24 34 -2 65 27 33 31
29 41 -7 18 -31 -20 -56 -11 -26 10 11 8 24 13 28 12 16 -4 63 26 68 44 7 19
25 25 25 7 0 -5 5 -7 10 -4 6 4 8 14 5 24 -3 9 2 26 10 37 19 25 19 35 0 28
-8 -4 -15 -12 -15 -19 0 -7 -12 -20 -26 -30 -25 -16 -25 -16 -15 4 18 34 12
34 -18 2 -16 -17 -35 -31 -42 -31 -10 0 -10 3 -1 12 19 19 14 30 -10 23 -17
-5 -20 -4 -12 4 6 6 21 13 34 16 12 2 30 11 39 18 9 8 34 15 56 16 55 2 140
28 155 46 11 13 7 20 -25 48 -100 86 -108 94 -102 110 4 11 24 19 57 23 27 4
50 10 50 14 0 8 -56 34 -128 58 l-53 18 42 41 41 41 -20 29 c-11 15 -34 42
-52 58 -29 27 -32 28 -41 13 -6 -10 -14 -18 -20 -18 -5 0 0 13 12 30 13 16 21
31 18 33 -2 2 -19 0 -37 -3z m-1202 -595 c0 -8 -9 -19 -20 -25 -23 -12 -25 -7
-10 21 13 22 30 25 30 4z"/>
<path d="M10089 6385 c-4 -5 -9 -39 -12 -75 l-6 -65 14 48 c7 26 19 55 27 64
7 10 8 14 1 10 -7 -4 -13 0 -15 10 -2 10 -6 14 -9 8z"/>
<path d="M10557 6143 c-4 -3 -7 -11 -7 -17 0 -6 5 -5 12 2 6 6 9 14 7 17 -3 3
-9 2 -12 -2z"/>
<path d="M2459 5860 c-82 -51 -161 -92 -221 -115 -27 -10 -48 -21 -48 -26 0
-12 -40 -32 -79 -38 -24 -4 -40 -15 -52 -36 -27 -47 -23 -49 36 -17 30 17 55
29 55 27 0 -2 -25 -39 -55 -84 -32 -46 -51 -82 -45 -86 5 -3 15 -3 22 1 8 5 9
2 5 -9 -10 -25 6 -28 39 -6 34 22 48 24 41 6 -6 -16 22 -19 40 -5 6 5 25 13
43 18 27 8 30 7 20 -5 -7 -8 -17 -15 -22 -15 -20 0 -106 -63 -111 -81 -3 -11
-10 -19 -16 -19 -8 0 -9 6 -1 19 16 30 12 36 -11 15 -12 -11 -18 -26 -15 -37
6 -23 -14 -78 -21 -59 -6 15 -69 6 -93 -13 -8 -6 -31 -18 -50 -25 -19 -7 -41
-20 -47 -28 -8 -10 -13 -11 -13 -4 0 20 -18 14 -25 -8 -4 -11 -11 -18 -16 -15
-5 4 -9 1 -9 -4 0 -6 -4 -11 -10 -11 -17 0 -11 17 17 51 15 18 28 39 28 48 0
9 12 22 28 29 31 15 36 32 10 32 -12 0 -14 3 -6 8 8 5 2 12 -18 21 -28 12 -40
31 -19 31 6 0 10 -4 10 -10 0 -5 5 -10 12 -10 6 0 -1 13 -17 30 -25 26 -31 28
-44 16 -14 -13 -18 -12 -28 10 -10 21 -9 26 4 31 12 5 9 11 -14 30 -56 47 -60
47 -88 3 -14 -22 -32 -40 -39 -40 -8 0 -24 -14 -36 -31 -12 -16 -25 -28 -28
-24 -3 3 0 11 6 17 59 59 -96 -42 -178 -117 -19 -17 -52 -40 -72 -50 l-37 -19
30 -13 c17 -7 36 -10 42 -6 6 3 7 1 3 -5 -5 -8 1 -12 18 -12 14 0 27 4 31 10
3 5 20 19 38 32 l32 23 -19 -29 c-16 -25 -16 -28 -2 -23 24 9 20 -1 -11 -27
-25 -22 -26 -23 -5 -28 15 -4 19 -2 15 8 -6 16 5 18 25 6 8 -5 10 -16 6 -27
-6 -15 -4 -17 10 -12 9 4 15 3 11 -2 -3 -5 0 -13 6 -17 6 -4 16 1 21 10 5 9
14 16 20 16 7 0 6 -6 -2 -15 -17 -21 -5 -31 16 -14 15 12 16 12 10 -7 -8 -27
16 -39 45 -23 19 10 19 9 9 -10 -14 -28 4 -28 24 0 8 12 19 18 26 14 6 -4 20
1 31 11 15 13 22 15 31 6 9 -9 8 -12 -4 -12 -22 0 -30 -26 -13 -40 13 -10 11
-15 -10 -32 -24 -19 -25 -19 -63 1 l-39 20 -22 -30 c-30 -40 -44 -36 -26 8 20
48 4 64 -24 24 -27 -38 -38 -39 -38 -6 0 14 3 25 7 25 4 0 10 7 14 15 4 10 -7
21 -34 35 -38 19 -70 27 -57 14 4 -4 -7 -24 -24 -45 -33 -42 -29 -50 11 -19
35 27 56 26 30 -2 -12 -13 -25 -23 -30 -23 -12 0 -82 -66 -76 -72 3 -3 13 0
22 8 15 12 17 12 12 -1 -2 -8 -19 -24 -36 -35 -17 -11 -34 -29 -37 -40 -19
-60 -19 -61 -1 -46 9 7 16 19 16 26 0 11 44 65 53 65 2 0 -2 -20 -10 -44 -12
-35 -22 -47 -53 -61 -29 -13 -44 -29 -60 -64 l-21 -46 6 37 6 37 -31 -9 c-19
-5 -28 -5 -25 1 4 5 13 9 21 9 8 0 13 4 9 10 -3 5 7 16 23 24 16 8 35 23 43
33 12 16 12 17 -1 7 -20 -15 -83 -27 -75 -14 3 6 13 10 21 10 8 0 13 4 9 9 -3
5 4 12 15 16 30 9 81 55 74 66 -14 23 -131 -24 -157 -62 -11 -15 -21 -19 -39
-14 l-23 6 25 -19 24 -20 -29 -41 c-31 -45 -45 -58 -45 -42 0 6 -5 11 -11 11
-7 0 -9 -10 -5 -25 5 -20 3 -23 -11 -18 -9 4 -14 2 -10 -4 3 -5 -3 -9 -16 -8
-31 3 -47 -5 -47 -22 0 -8 5 -11 11 -7 7 4 10 1 7 -7 -3 -8 -12 -13 -22 -11
-9 2 -16 -3 -16 -11 0 -7 -7 -22 -15 -33 -8 -10 -15 -14 -14 -9 1 6 0 12 -1
15 -9 24 -3 55 17 76 29 31 29 37 2 29 -15 -5 -19 -4 -15 4 4 6 0 11 -9 11
-13 0 -14 -4 -4 -21 8 -16 8 -24 -1 -33 -8 -8 -10 -7 -5 5 4 10 0 19 -10 23
-10 3 -15 12 -11 21 14 39 -39 -7 -63 -52 -15 -29 -4 -29 26 -1 13 12 26 19
29 15 4 -3 -14 -25 -40 -48 -25 -23 -46 -50 -46 -60 0 -10 -4 -21 -10 -24 -5
-3 -10 -1 -10 6 0 10 -3 10 -11 2 -7 -7 -8 -17 -3 -25 5 -7 7 -26 5 -42 -2
-18 1 -26 8 -22 6 4 11 15 11 24 0 9 9 28 19 41 l19 25 -4 -30 -4 -29 12 26
c16 33 38 59 50 59 5 0 4 -9 -2 -20 -12 -22 -7 -25 20 -10 16 8 18 8 14 -5 -4
-8 -10 -15 -15 -15 -6 0 -27 -18 -49 -40 -22 -22 -46 -40 -55 -40 -19 0 -114
-59 -134 -83 -22 -28 -6 -42 72 -66 41 -12 83 -28 93 -35 16 -12 16 -16 4 -31
-7 -9 -32 -26 -54 -37 -40 -21 -41 -21 -16 -30 14 -6 60 -7 103 -4 88 7 93 2
52 -58 -14 -21 -23 -42 -19 -47 3 -5 33 -23 66 -40 48 -24 63 -28 69 -17 5 7
9 16 9 21 0 4 4 7 9 7 6 0 6 -12 -1 -31 -14 -40 -5 -46 34 -20 18 11 26 21 18
21 -9 0 0 12 20 28 19 15 64 56 101 92 44 44 100 85 172 125 59 33 139 84 179
113 39 28 79 52 89 52 27 0 49 11 49 25 0 6 10 20 21 31 l22 19 -17 -32 c-21
-41 -10 -42 27 -3 16 17 33 30 39 30 6 0 32 18 58 40 26 22 55 40 64 40 10 0
44 19 77 43 34 23 79 54 101 69 37 25 38 27 19 37 -29 16 -82 13 -103 -6 -17
-15 -18 -15 -18 0 0 9 8 22 19 28 10 7 16 20 14 29 -3 10 1 21 8 26 9 5 11 2
6 -9 -4 -12 0 -15 16 -14 29 2 38 17 21 35 -9 8 -13 21 -10 28 3 9 -1 14 -11
14 -26 0 -103 -31 -103 -42 0 -5 4 -7 9 -4 5 4 11 0 14 -6 3 -10 9 -10 26 0
19 11 17 4 -14 -59 -20 -39 -39 -69 -41 -66 -3 3 4 23 15 46 l21 41 -27 -11
c-16 -5 -38 -21 -49 -36 -12 -14 -26 -23 -32 -19 -16 10 -3 41 29 72 16 15 29
33 29 39 0 6 14 21 30 34 33 24 31 46 -3 35 -20 -6 -21 -5 -7 12 10 13 7 12
-11 -3 -18 -16 -28 -20 -36 -12 -8 8 -13 8 -17 0 -13 -21 -27 -12 -15 10 7 13
17 19 29 16 15 -4 20 2 26 26 6 27 8 29 19 14 18 -25 28 -21 21 8 -5 19 -3 23
9 19 8 -4 15 -13 15 -21 0 -8 5 -11 12 -7 8 5 9 2 5 -10 -5 -14 -3 -15 12 -6
11 5 22 15 24 22 4 10 8 9 16 -2 8 -11 7 -16 -4 -18 -8 -2 -15 -12 -15 -22 0
-14 5 -18 17 -13 11 5 14 3 8 -6 -4 -8 -2 -17 6 -22 21 -13 27 -11 34 11 3 11
13 20 20 20 18 0 9 -29 -13 -47 -10 -8 -11 -13 -4 -13 7 0 13 1 15 3 2 1 23
-15 47 -35 24 -21 47 -38 50 -38 4 0 22 10 41 23 23 15 46 46 71 97 20 41 37
79 37 84 2 21 -47 -38 -52 -63 -3 -16 -12 -31 -20 -34 -11 -4 -13 7 -10 54 2
38 0 59 -7 59 -6 0 -8 5 -5 10 3 6 13 10 21 10 12 0 14 -7 9 -32 -3 -18 -3
-28 2 -23 4 6 17 15 28 21 30 17 32 44 3 37 -32 -8 -15 8 34 32 22 11 48 33
57 49 17 32 60 75 75 76 5 0 0 -10 -11 -22 -19 -21 -53 -80 -53 -92 0 -8 70
36 97 62 13 12 21 27 18 32 -3 6 3 10 14 10 12 0 33 14 48 30 14 17 34 30 44
30 10 0 21 5 24 10 12 20 25 9 25 -22 l0 -32 30 29 c17 16 30 34 30 41 0 7
-16 33 -35 58 -21 28 -30 48 -24 52 12 7 15 3 57 -66 l26 -44 13 44 c7 25 16
75 19 112 l7 66 -47 7 c-63 10 -69 26 -8 22 l49 -4 1 41 c2 37 -12 136 -24
178 -4 15 -9 16 -27 7 -12 -7 -23 -13 -25 -14 -1 -1 7 -26 18 -55 11 -29 18
-55 15 -58 -6 -6 -4 -9 -44 51 -23 34 -38 47 -48 42 -12 -4 -13 -3 -5 8 23 27
-125 167 -176 167 -5 0 -37 -18 -73 -40z m211 -74 c0 -2 -8 -10 -17 -17 -16
-13 -17 -12 -4 4 13 16 21 21 21 13z m-467 -286 c-29 -31 -45 -41 -23 -15 10
12 9 15 -6 16 -14 0 -11 4 11 14 45 21 49 18 18 -15z m-57 -145 c-9 -14 -15
-29 -12 -34 9 -14 -46 -52 -71 -50 -3 1 -17 -16 -31 -38 -23 -37 -24 -37 -17
-8 9 42 33 75 49 69 8 -3 23 8 36 28 35 51 78 82 46 33z m-426 -230 c-7 -9
-15 -13 -18 -10 -3 2 1 11 8 20 7 9 15 13 18 10 3 -2 -1 -11 -8 -20z"/>
<path d="M2648 5222 c-13 -16 -31 -33 -40 -38 -9 -6 -13 -16 -9 -27 5 -14 14
-6 43 38 40 61 42 70 6 27z"/>
<path d="M10680 5040 c-19 -3 -75 -28 -125 -55 -89 -47 -131 -76 -90 -60 11 4
37 9 57 12 20 3 46 14 58 25 11 11 35 21 52 23 l31 4 -24 -25 c-16 -17 -20
-27 -12 -32 8 -5 1 -12 -18 -21 -32 -14 -39 -31 -11 -31 13 0 14 -2 4 -9 -15
-9 -62 -3 -62 9 0 4 11 12 25 18 32 15 34 35 2 23 -13 -5 -34 -7 -48 -4 -16 3
-34 -3 -49 -16 l-25 -20 39 -1 c60 0 39 -8 -38 -14 -69 -6 -142 -38 -130 -57
3 -5 -5 -9 -17 -9 -12 0 -30 -7 -40 -16 -9 -8 -28 -14 -41 -12 -22 4 -22 5 7
18 38 18 105 70 105 82 0 5 -9 4 -19 -2 -11 -5 -43 -15 -73 -21 -54 -12 -112
-44 -103 -58 2 -5 -13 -11 -35 -14 -22 -3 -59 -19 -82 -36 -23 -17 -49 -31
-57 -31 -25 0 112 90 139 91 18 1 20 3 7 6 -11 3 -16 11 -13 19 9 23 -7 16
-44 -19 -55 -52 -152 -127 -163 -127 -6 0 -20 11 -32 25 l-20 24 -42 -38 c-24
-21 -38 -42 -34 -49 3 -6 42 -24 86 -40 62 -23 75 -31 58 -36 -12 -4 -52 5
-103 24 -46 17 -85 28 -87 26 -7 -6 14 -68 49 -145 25 -55 31 -62 51 -58 51
13 97 19 97 13 0 -3 -25 -13 -55 -21 -30 -9 -53 -21 -49 -26 3 -5 10 -7 15 -4
5 3 6 -1 3 -9 -5 -14 15 -61 63 -144 24 -41 26 -42 44 -26 17 15 17 18 -17 66
-19 28 -32 53 -29 56 3 3 25 -14 49 -37 24 -24 49 -40 55 -37 6 4 9 1 5 -7 -6
-17 90 -125 129 -146 24 -13 30 -11 87 28 63 41 98 54 183 66 26 3 47 11 47
17 0 7 22 9 69 4 53 -5 72 -3 78 7 4 8 17 19 28 26 17 10 8 11 -49 8 -42 -2
-64 0 -55 6 8 4 49 28 92 53 43 25 75 50 71 55 -3 6 -16 8 -28 5 -20 -5 -20
-4 -2 9 28 21 11 33 -39 27 -30 -3 -45 -1 -45 7 0 6 5 11 12 11 6 0 9 2 6 5
-3 3 -18 0 -33 -7 -24 -11 -25 -13 -8 -19 15 -6 14 -8 -7 -8 -14 -1 -35 -4
-47 -7 -14 -4 -23 -2 -23 5 0 6 6 11 13 11 13 0 77 28 77 34 0 1 -27 0 -60 -2
-41 -3 -60 -1 -60 7 0 7 15 11 38 10 62 -2 151 13 163 27 6 8 18 14 27 14 13
0 12 -3 -3 -20 -14 -16 -15 -20 -4 -20 24 0 59 30 53 45 -4 8 -1 15 5 15 7 0
22 10 34 21 25 25 31 26 -67 -13 -57 -22 -85 -19 -38 6 17 9 32 20 32 25 0 15
43 21 82 12 28 -7 46 -4 79 10 23 11 44 18 46 16 7 -8 -77 -57 -96 -57 -39 0
-30 -19 16 -33 43 -13 82 -18 179 -21 21 -1 30 -5 27 -13 -6 -16 19 -17 33 -3
7 7 19 7 35 1 l24 -9 -30 -12 c-16 -6 -38 -9 -48 -6 -13 3 -21 -2 -24 -15 -4
-14 -13 -20 -32 -19 -14 1 -37 2 -50 1 -24 -1 -24 -1 -5 -17 19 -15 19 -16 -1
-9 -18 6 -17 4 4 -19 13 -13 21 -32 18 -43 -3 -16 -6 -15 -16 7 l-12 25 6 -25
c2 -14 5 -33 5 -43 0 -16 5 -18 33 -12 20 4 27 3 19 -3 -7 -5 -10 -16 -6 -27
6 -15 4 -17 -14 -13 -19 5 -21 3 -15 -20 19 -80 34 -92 83 -67 24 12 39 14 54
7 11 -5 30 -6 41 -1 11 4 29 8 40 8 15 0 12 -3 -10 -13 -27 -12 -16 -14 120
-20 83 -4 165 -12 184 -17 43 -11 48 -6 23 19 -11 11 -18 23 -15 26 4 3 1 6
-6 6 -7 0 -9 5 -6 10 14 23 -15 38 -60 32 -30 -3 -45 -1 -45 7 0 6 10 11 23
11 22 1 22 1 2 16 -19 15 -18 16 18 12 36 -4 52 12 27 27 -5 3 -10 1 -10 -6 0
-8 -4 -8 -16 2 -14 12 -14 14 3 26 11 8 14 17 8 21 -6 4 -10 14 -10 22 0 10
-9 14 -30 13 l-30 -2 30 13 c21 10 26 16 15 19 -8 3 -22 8 -30 10 -11 4 -10 6
3 6 27 1 17 35 -11 39 -24 4 -31 22 -7 22 8 0 15 4 15 9 0 5 -15 8 -32 7 -20
-1 -38 4 -45 14 -11 13 -12 13 -13 -1 0 -26 -37 -31 -44 -5 -9 32 -8 34 20 28
24 -4 26 -2 22 19 -4 23 -1 25 33 24 34 0 38 -3 54 -42 l18 -42 51 6 c48 5 50
4 31 -10 -11 -9 -24 -17 -30 -17 -19 -1 -38 -18 -31 -28 4 -7 19 -7 46 0 23 6
43 8 46 5 10 -9 -31 -42 -48 -39 -26 5 -27 -10 -2 -63 12 -27 23 -45 23 -38 1
6 24 14 51 18 61 8 65 20 8 22 -22 1 -45 6 -51 12 -6 6 25 8 88 4 74 -4 96 -3
90 6 -4 7 -13 10 -21 7 -8 -3 -14 0 -14 6 0 7 18 9 52 6 40 -4 61 -1 88 13 34
19 34 19 8 19 -15 0 -29 -4 -33 -9 -3 -6 -24 -9 -46 -9 l-41 0 43 24 c38 22
46 23 78 12 45 -14 73 -13 112 8 17 8 33 13 36 10 3 -3 -6 -10 -20 -17 -25
-11 -35 -52 -11 -42 7 2 15 0 19 -6 6 -11 -50 -9 -112 4 -24 5 -22 3 12 -16
72 -39 62 -45 -40 -24 -42 9 -80 13 -83 10 -24 -24 78 -75 153 -77 22 -1 48
-8 58 -16 19 -17 22 -10 7 18 -8 15 -5 20 22 29 39 14 101 15 93 1 -3 -5 1
-10 9 -10 8 0 20 8 25 18 6 10 11 12 11 4 0 -7 6 -12 13 -10 6 1 25 -6 40 -16
27 -18 29 -18 45 -1 16 17 16 17 -3 11 -17 -6 -18 -5 -7 6 11 11 16 10 27 -6
13 -17 15 -17 37 -2 30 21 49 21 41 -1 -12 -31 -30 -42 -72 -45 -38 -3 -60
-18 -26 -18 8 0 12 -6 9 -14 -3 -8 -1 -17 5 -21 6 -3 15 5 21 19 5 15 17 26
27 26 16 -1 17 -1 1 -10 -10 -6 -14 -18 -11 -30 4 -15 0 -20 -13 -21 -13 0
-11 -3 7 -9 16 -4 51 -2 85 5 64 14 63 17 -3 17 -23 -1 -45 3 -48 8 -7 12 16
14 101 11 45 -2 63 1 73 13 14 17 56 23 46 6 -3 -5 4 -10 15 -10 15 0 20 5 17
14 -6 14 16 39 43 49 9 3 5 6 -11 6 -14 1 -30 -4 -37 -11 -7 -7 -29 -13 -50
-14 -36 -1 -36 -1 -9 9 15 6 27 14 27 19 0 11 -11 9 -40 -7 -14 -8 -43 -14
-65 -14 -39 1 -39 1 -12 12 15 6 27 14 27 18 0 4 -12 10 -27 12 -16 2 -9 3 15
2 24 -2 59 1 79 6 21 4 42 5 47 1 14 -8 23 -10 147 -22 107 -11 169 -5 176 17
3 7 -24 34 -58 60 -104 80 -128 103 -122 119 6 16 94 19 156 5 20 -5 37 -6 37
-2 0 4 -56 34 -124 68 l-124 60 45 22 c24 11 55 21 69 21 19 0 25 4 20 15 -8
22 -86 135 -92 135 -3 0 -14 -5 -26 -11 -37 -20 -29 -2 9 22 l38 23 -30 7
c-44 10 -67 10 -61 1 8 -13 -243 -23 -306 -12 -29 5 -105 20 -168 34 -63 14
-153 30 -199 35 -46 6 -95 18 -107 26 -16 10 -38 13 -71 9 -48 -5 -48 -5 -18
10 17 8 24 15 15 16 -19 3 -71 7 -175 15 -44 4 -93 12 -110 20 -16 7 -84 16
-150 19 -66 4 -142 9 -170 12 l-50 5 24 -25 c14 -14 33 -26 43 -26 10 0 18 -4
18 -9 0 -13 56 -30 79 -24 12 3 21 1 21 -6 0 -11 -39 -25 -56 -19 -5 2 -10 -1
-12 -7 -4 -13 -43 -27 -51 -19 -3 4 0 9 7 11 9 3 4 10 -13 19 -36 19 -56 9
-45 -22 9 -22 6 -28 -12 -25 -5 0 -8 -4 -8 -9 0 -6 -11 -3 -26 6 -19 13 -28
14 -37 5 -6 -6 -22 -11 -35 -11 -21 0 -22 2 -12 15 7 8 25 15 41 15 21 0 27 4
23 15 -4 8 -11 15 -18 15 -6 0 -24 21 -40 46 -16 25 -40 50 -53 55 -28 10 -91
10 -143 -1z m563 -101 c-6 -6 -27 -16 -48 -23 l-38 -13 37 -13 c21 -7 53 -9
72 -5 24 4 39 2 49 -9 13 -13 9 -16 -36 -25 -27 -6 -64 -11 -81 -11 -23 0 -29
-4 -24 -16 4 -10 2 -13 -6 -7 -17 10 -48 13 -80 7 -34 -7 -36 -19 -5 -28 19
-5 20 -8 7 -17 -11 -8 -6 -9 23 -5 29 4 37 1 37 -11 0 -11 6 -14 26 -9 19 5
25 3 22 -6 -5 -16 -68 -24 -68 -9 0 16 -26 13 -40 -4 -17 -21 -30 -19 -30 5 0
26 -19 26 -28 -1 -7 -19 -9 -19 -22 -4 -12 14 -12 18 1 26 11 7 10 9 -6 10
-11 0 -14 3 -7 6 23 9 12 23 -18 23 -16 0 -30 -4 -30 -10 0 -5 -4 -10 -10 -10
-5 0 -10 10 -10 21 0 16 5 20 20 16 10 -3 24 1 30 7 13 16 3 26 -18 19 -13 -3
-13 -1 2 11 25 20 27 20 111 -4 82 -23 75 -23 75 -10 0 6 -7 10 -15 10 -8 0
-14 5 -12 12 1 7 -13 15 -33 19 -19 3 -33 7 -30 8 3 0 44 14 90 31 92 32 110
36 93 19z m-1188 -739 c-3 -5 -11 -10 -16 -10 -6 0 -7 5 -4 10 3 6 11 10 16
10 6 0 7 -4 4 -10z"/>
<path d="M8791 4544 c0 -11 3 -14 6 -6 3 7 2 16 -1 19 -3 4 -6 -2 -5 -13z"/>
<path d="M11215 4480 c-3 -5 -1 -10 4 -10 6 0 11 5 11 10 0 6 -2 10 -4 10 -3
0 -8 -4 -11 -10z"/>
<path d="M2625 4068 c-2 -7 -6 -37 -10 -67 -4 -34 -16 -69 -33 -95 -15 -23
-28 -47 -28 -53 -2 -29 -5 -34 -29 -43 -25 -10 -30 -28 -16 -64 7 -18 9 -17
26 12 11 18 22 32 25 32 3 0 3 -37 1 -81 -3 -79 -3 -82 18 -76 14 3 21 0 21
-9 0 -21 18 -17 30 7 9 16 18 19 36 15 17 -5 24 -2 24 8 0 7 7 19 15 26 29 24
26 3 -5 -44 -20 -30 -29 -53 -25 -65 3 -11 1 -22 -5 -26 -5 -3 -10 -1 -10 4 0
6 -4 11 -10 11 -15 0 -12 -16 5 -34 8 -8 15 -26 15 -41 0 -16 4 -24 11 -20 6
4 8 13 5 21 -7 19 4 74 16 74 5 0 8 -10 7 -22 -2 -13 -1 -27 3 -33 8 -14 -9
-54 -27 -61 -9 -4 -15 -20 -16 -43 l-1 -36 -9 35 c-5 19 -6 45 -4 58 3 12 3
22 0 22 -16 0 -50 -25 -82 -61 -19 -21 -39 -36 -44 -33 -5 3 -9 -6 -9 -20 0
-26 -15 -43 -24 -28 -3 5 -1 24 4 43 6 21 6 35 0 39 -6 4 -4 14 5 26 20 26 19
45 -2 37 -11 -4 -14 -3 -9 5 4 7 3 12 -2 12 -6 0 -25 14 -43 31 -28 26 -35 28
-44 16 -9 -12 -12 -12 -25 2 -8 8 -14 21 -12 28 3 13 -47 43 -73 43 -10 0 -15
-10 -15 -34 0 -21 -6 -36 -15 -40 -8 -3 -15 -18 -16 -33 -1 -27 -1 -27 -8 -4
-5 20 -11 14 -50 -55 -25 -44 -56 -91 -70 -106 -27 -30 -26 -31 32 -31 9 0 17
-4 17 -8 0 -5 8 -9 19 -9 13 0 21 10 26 33 7 28 9 29 12 10 3 -13 9 -23 14
-23 5 0 7 -11 3 -24 -4 -16 -1 -25 12 -30 14 -5 15 -4 4 9 -10 12 -10 15 3 15
9 0 18 -9 22 -19 8 -28 35 -34 52 -14 13 17 14 16 9 -5 -3 -17 -1 -22 9 -18 7
2 16 -2 19 -11 4 -11 14 -13 32 -9 16 4 23 3 20 -3 -4 -5 -2 -12 3 -15 5 -4
12 3 16 14 4 11 10 18 15 15 4 -3 11 2 14 11 3 8 2 12 -4 9 -6 -3 -10 0 -10 8
0 10 7 13 20 10 22 -6 38 -23 21 -23 -20 0 -11 -27 12 -38 12 -6 16 -11 10
-11 -7 -1 -13 -8 -13 -17 0 -16 -1 -16 -67 2 -20 5 -23 2 -23 -19 0 -14 -4
-29 -10 -32 -6 -4 -10 10 -10 34 0 30 -4 41 -15 41 -9 0 -15 -9 -15 -25 0 -28
-19 -35 -22 -7 0 9 -2 22 -2 29 -2 16 -7 20 -50 38 -21 9 -35 12 -32 7 3 -5 1
-24 -4 -43 -7 -24 -6 -35 2 -40 9 -6 9 -14 -2 -33 -14 -28 -5 -50 10 -26 8 13
10 13 10 -1 0 -8 -7 -24 -15 -35 -16 -21 -21 -89 -5 -79 6 3 10 18 10 33 0 15
5 34 10 42 8 12 10 11 10 -7 0 -12 2 -27 5 -35 3 -7 -6 -25 -20 -40 -15 -16
-26 -40 -26 -60 -1 -25 -3 -27 -6 -10 -4 20 -9 23 -31 18 -23 -5 -25 -4 -12 6
8 7 16 20 18 28 2 8 9 18 15 22 20 12 1 19 -27 9 -14 -6 -26 -9 -26 -7 0 2 16
23 35 46 19 23 32 46 29 51 -16 27 -87 -12 -105 -58 -5 -13 -13 -21 -19 -18
-5 3 -10 1 -10 -4 0 -6 7 -11 15 -11 16 0 19 -19 9 -69 -5 -22 -11 -30 -20
-27 -17 7 -18 -6 -1 -23 10 -11 10 -13 0 -7 -7 4 -13 2 -13 -3 0 -6 -8 -11
-18 -11 -28 0 -34 -11 -15 -32 15 -17 15 -18 0 -18 -12 0 -17 -8 -17 -26 0
-21 -3 -24 -14 -15 -21 18 -25 47 -10 77 13 24 13 26 -6 21 -10 -3 -21 0 -23
7 -2 6 -8 8 -12 4 -5 -5 0 -16 9 -27 13 -14 14 -21 5 -27 -8 -4 -10 -3 -5 5 4
6 0 14 -8 17 -9 3 -16 13 -16 21 0 30 -25 5 -37 -37 -14 -49 -10 -65 8 -27 16
34 43 46 33 14 -3 -12 -12 -25 -19 -29 -13 -8 -27 -48 -29 -83 -1 -11 -7 -19
-13 -18 -15 3 -18 -24 -3 -29 5 -1 11 -15 12 -30 1 -16 6 -28 10 -28 8 0 12
17 9 34 -1 6 1 21 5 35 l7 26 7 -25 c8 -24 8 -24 9 5 1 17 9 39 18 50 15 20
15 20 10 -2 -5 -25 18 -34 26 -10 2 6 8 9 11 5 4 -3 -2 -16 -13 -27 -12 -12
-21 -27 -21 -35 0 -8 -30 -43 -66 -77 -73 -71 -109 -122 -100 -144 4 -11 25
-13 110 -8 104 6 106 6 106 -15 0 -23 -12 -38 -75 -89 -22 -18 -34 -33 -28
-33 6 0 62 18 123 40 l112 40 -7 -42 c-4 -24 -11 -51 -16 -60 -7 -12 -4 -18 9
-22 15 -4 130 -26 139 -26 2 0 3 10 4 23 1 17 3 15 10 -10 9 -29 12 -32 29
-21 22 14 35 38 20 38 -6 0 6 22 25 49 19 26 35 54 35 60 0 27 37 80 110 156
42 44 89 99 104 123 15 23 38 47 52 52 14 6 23 14 20 19 -4 5 -3 17 1 28 6 15
9 13 14 -12 5 -26 7 -28 13 -10 4 11 12 27 17 35 51 81 65 100 76 100 16 0
122 163 113 174 -12 13 -69 -3 -89 -26 -18 -19 -19 -18 -18 34 0 29 2 46 4 37
4 -17 43 -15 43 2 0 9 -48 59 -56 59 -8 0 -64 -53 -64 -60 0 -11 45 -9 52 3 4
7 8 -19 8 -56 0 -47 -3 -66 -11 -61 -6 3 -9 19 -7 35 3 16 2 29 -2 29 -14 0
-39 -26 -42 -44 -5 -32 -23 -18 -20 17 4 52 8 71 21 95 7 13 10 30 7 39 -5 13
-9 13 -23 2 -15 -12 -16 -12 -10 4 4 11 3 16 -3 12 -6 -3 -10 -13 -10 -22 0
-9 -6 -13 -15 -9 -8 3 -15 1 -15 -4 0 -6 -4 -10 -10 -10 -16 0 -11 30 6 37 11
4 14 13 10 29 -6 24 9 34 17 12 2 -7 8 -10 12 -6 4 4 2 14 -5 23 -10 12 -10
15 2 15 7 0 20 -9 28 -19 16 -23 30 -18 30 11 0 17 2 18 15 8 10 -9 12 -17 6
-23 -5 -5 -7 -16 -4 -23 4 -11 9 -12 19 -3 11 9 14 8 14 -5 0 -9 8 -16 21 -16
11 0 17 4 14 10 -3 5 -2 17 3 27 9 15 10 14 16 -4 4 -11 3 -28 -1 -38 -5 -14
-3 -17 10 -12 9 3 37 -3 62 -14 51 -23 54 -21 87 36 11 20 18 195 8 195 -13 0
-26 -58 -18 -80 6 -17 5 -28 -5 -38 -12 -11 -15 -9 -20 18 -4 18 -11 29 -17
25 -6 -4 -10 -3 -9 2 1 4 1 18 0 30 -1 17 -5 21 -18 16 -16 -6 -16 -5 -4 10
20 25 31 21 31 -10 l0 -28 20 25 c31 40 24 79 -9 48 -11 -11 -11 -9 -2 9 6 12
16 25 21 28 5 3 9 35 9 71 -1 36 4 71 10 77 7 7 11 0 11 -29 0 -69 1 -74 11
-79 5 -4 9 2 9 12 0 10 7 27 15 37 19 25 21 81 3 69 -7 -4 -5 5 5 20 9 14 17
40 17 56 0 24 13 69 26 89 1 2 14 -4 28 -13 26 -17 26 -17 26 8 0 14 -4 37
-10 51 -9 24 -14 26 -70 26 -36 0 -60 4 -60 11 0 7 23 10 65 7 36 -1 65 0 65
4 0 4 -38 37 -85 73 l-86 67 -20 -26 c-27 -34 -37 -27 -13 9 16 25 16 26 -2
40 -41 31 -163 115 -167 115 -3 0 -3 -9 0 -19 3 -11 25 -30 49 -43 57 -30 57
-43 -1 -18 -25 11 -46 19 -48 19 -1 -1 -20 6 -42 16 -44 19 -123 45 -137 45
-5 0 -10 -6 -13 -12z m57 -387 c-3 -24 -7 -27 -17 -18 -9 8 -10 18 -4 30 15
27 26 20 21 -12z m-227 -161 c3 -5 1 -10 -4 -10 -6 0 -11 5 -11 10 0 6 2 10 4
10 3 0 8 -4 11 -10z m-152 -330 c-6 -22 -21 -35 -29 -27 -7 7 15 47 25 47 5 0
7 -9 4 -20z"/>
<path d="M3129 3603 c-3 -44 0 -64 9 -68 14 -5 14 16 3 85 l-7 45 -5 -62z"/>
<path d="M8925 3402 c-39 -5 -45 -15 -45 -86 0 -44 -3 -57 -11 -49 -6 6 -9 35
-7 67 1 31 1 56 -2 56 -8 -1 -70 -61 -113 -109 l-39 -43 33 -34 c39 -40 30
-45 -18 -8 -24 18 -33 21 -33 11 0 -8 -6 -17 -12 -20 -12 -4 -98 -155 -98
-171 0 -3 11 -6 24 -6 20 0 27 8 41 50 23 69 35 71 28 5 -4 -37 -2 -60 7 -70
10 -12 10 -15 -4 -15 -14 0 -16 -11 -12 -84 2 -49 11 -97 20 -114 17 -33 24
-35 141 -47 33 -3 97 -18 142 -34 51 -18 85 -25 91 -19 10 10 65 -13 77 -32 9
-14 45 -12 74 4 23 13 23 14 -27 27 -29 7 -52 16 -52 19 0 4 33 13 73 20 39 7
81 18 91 23 18 9 18 10 3 22 -16 11 -16 13 -2 19 24 9 10 23 -30 30 -32 6 -50
26 -23 26 6 0 9 2 6 5 -9 10 -38 -7 -31 -18 4 -6 -4 -7 -23 -3 -48 12 -52 26
-7 26 23 0 45 5 48 10 4 6 -6 10 -22 10 -16 0 -38 7 -49 16 -18 15 -18 15 6 9
60 -16 124 -24 153 -19 l32 5 -25 -15 c-24 -15 -24 -15 -3 -16 33 0 52 10 47
25 -4 8 6 16 25 20 17 4 31 11 31 17 0 6 -9 8 -22 4 -51 -15 -101 -19 -94 -8
4 7 16 12 26 12 10 0 20 4 22 9 7 19 88 10 88 -10 0 -4 20 -2 45 5 25 8 45 12
45 10 0 -9 -81 -44 -102 -44 -22 0 -22 0 -3 -19 19 -19 123 -61 157 -64 9 -1
16 -6 15 -12 -1 -5 9 -10 23 -11 43 -1 51 -4 45 -14 -3 -5 -26 -10 -51 -10
-31 0 -43 -4 -38 -11 5 -9 -6 -10 -42 -4 -45 6 -47 6 -33 -11 12 -16 12 -17
-3 -11 -19 7 -25 -7 -8 -18 6 -3 10 -18 9 -33 l-1 -27 -7 25 c-7 22 -8 20 -12
-17 -4 -40 -3 -43 21 -43 18 0 21 -3 11 -9 -8 -5 -11 -16 -8 -25 8 -19 -18
-22 -27 -3 -3 6 -4 -12 -2 -41 4 -66 13 -76 56 -61 24 9 38 9 51 1 9 -6 34 -9
56 -6 35 4 36 4 13 -7 -23 -11 -17 -14 65 -30 50 -9 110 -18 135 -20 25 -2 60
-9 79 -16 37 -16 47 -12 36 14 -5 10 -7 21 -7 26 1 4 -3 7 -9 7 -5 0 -7 5 -4
10 8 13 -22 43 -34 36 -14 -9 -71 5 -65 16 3 5 12 7 20 4 17 -7 19 10 2 18 -7
3 4 5 25 3 24 -2 37 1 37 9 0 17 -20 29 -20 12 -1 -8 -6 -5 -16 7 -13 18 -13
20 8 28 12 4 18 11 13 15 -6 4 -10 14 -10 22 0 8 -11 17 -25 21 -24 7 -24 7
-2 8 12 1 22 6 22 11 0 6 -10 10 -22 10 -22 1 -22 1 -4 15 22 16 15 45 -11 45
-15 0 -15 2 3 15 19 14 18 14 -3 15 -13 0 -25 -1 -28 -2 -2 -2 -10 6 -18 16
-12 17 -14 17 -20 2 -10 -25 -32 -19 -33 9 -1 14 3 25 10 24 26 -3 36 2 36 19
0 15 6 18 30 14 26 -4 32 -10 41 -47 l11 -42 44 5 c56 6 59 -13 5 -29 -50 -15
-44 -36 9 -31 56 6 49 -22 -8 -34 -8 -1 -16 -5 -18 -7 -8 -8 18 -97 28 -97 5
0 6 5 3 11 -4 6 2 9 17 8 12 -1 39 -1 58 1 34 2 34 3 -14 14 -85 20 -66 35 25
19 57 -10 85 -11 92 -4 8 8 4 11 -13 11 -16 0 -21 3 -14 10 6 6 23 6 47 -1 38
-10 107 5 107 23 0 12 -34 10 -47 -3 -6 -6 -26 -9 -44 -7 l-34 4 38 19 c32 16
42 17 70 7 45 -16 82 -15 117 3 17 9 30 13 30 11 0 -3 -13 -12 -28 -20 -28
-14 -42 -49 -16 -39 6 2 15 0 18 -6 7 -11 -29 -9 -94 4 l-35 6 38 -22 c37 -23
53 -48 18 -30 -10 6 -20 8 -23 6 -3 -3 -26 2 -52 11 -54 19 -80 8 -55 -22 19
-23 94 -54 131 -54 17 0 37 -8 45 -17 13 -16 14 -16 9 8 -7 32 6 39 70 39 28
0 43 -4 39 -10 -3 -5 -2 -10 4 -10 5 0 15 8 20 18 6 9 11 11 11 5 0 -7 6 -13
14 -13 7 0 19 -7 26 -15 7 -8 19 -15 27 -15 9 0 13 6 9 15 -3 9 0 15 9 15 8 0
15 -7 15 -15 0 -19 5 -19 35 1 29 19 33 6 7 -26 -13 -16 -29 -22 -57 -22 -32
0 -37 -2 -24 -11 9 -7 14 -18 12 -24 -7 -20 11 -15 25 7 7 11 18 20 25 19 9 0
9 -2 0 -6 -7 -2 -13 -13 -13 -24 0 -10 -7 -19 -15 -19 -18 0 -20 -20 -2 -21 6
0 23 -2 37 -4 14 -1 36 4 50 11 25 13 25 13 -12 14 -46 0 -58 16 -18 22 17 3
30 1 30 -4 0 -12 78 -10 85 2 3 6 13 10 21 10 8 0 12 -4 9 -10 -3 -5 1 -10 9
-10 9 0 16 6 16 13 0 8 11 20 25 27 18 10 22 17 15 24 -8 8 -13 7 -19 -3 -5
-7 -23 -15 -40 -17 -19 -2 -30 0 -26 6 3 6 13 10 21 10 8 0 14 5 14 11 0 7 -7
8 -17 3 -10 -4 -36 -9 -58 -11 -36 -3 -38 -2 -17 9 12 6 22 15 22 19 0 4 -10
10 -22 12 -13 3 6 3 42 0 36 -3 79 -11 95 -19 97 -44 185 -58 185 -30 0 8 -13
48 -30 89 -16 42 -30 82 -30 91 0 20 30 21 77 1 73 -31 71 -19 -12 72 -39 43
-61 74 -55 78 6 4 32 10 58 14 53 8 54 12 27 109 -15 49 -17 52 -43 47 -25 -5
-25 -5 6 12 40 21 40 28 1 42 -40 14 -42 14 -33 0 5 -9 -1 -10 -22 -5 -15 4
-75 11 -133 16 -82 7 -138 19 -248 54 -77 25 -169 50 -203 55 -33 6 -76 19
-95 31 -25 16 -43 19 -77 15 l-43 -5 35 14 c28 11 32 15 18 21 -10 4 -23 5
-30 2 -7 -2 -29 1 -48 8 -19 7 -59 15 -89 19 -29 4 -59 13 -66 20 -7 7 -46 18
-86 25 -41 7 -95 19 -121 26 -45 12 -48 12 -48 -6 0 -27 58 -79 89 -79 23 -1
24 -2 8 -11 -10 -6 -27 -9 -38 -6 -12 3 -19 0 -19 -9 0 -8 -10 -14 -22 -14
-18 0 -20 2 -9 9 12 8 12 12 -3 26 -9 10 -20 14 -24 10 -7 -7 -8 -12 -11 -39
-1 -18 -38 -27 -44 -11 -3 7 -18 10 -39 8 -32 -4 -32 -4 -13 12 11 9 27 14 36
12 14 -4 14 0 3 32 -7 20 -13 50 -14 68 0 26 -5 33 -31 42 -18 6 -41 11 -53
11 -24 1 -186 -52 -186 -60 0 -9 66 -3 88 9 11 6 28 11 37 11 14 0 13 -5 -7
-29 -13 -17 -31 -33 -41 -36 -12 -5 -17 -13 -14 -26 6 -21 -1 -24 -23 -9 -13
9 -11 13 9 29 l24 18 -32 6 c-17 4 -38 4 -46 1 -14 -6 -13 -8 2 -21 17 -13 16
-14 -7 -8 -46 12 -130 18 -130 8 0 -11 -78 -15 -84 -4 -3 4 22 13 55 20 33 8
61 17 64 21 5 8 -73 22 -120 21 -16 0 -31 -5 -33 -11 -3 -7 -10 -6 -23 0 -10
6 -49 12 -85 14 -73 5 -82 9 -64 30 18 22 9 31 -25 28z m971 -177 c-11 -8 -28
-15 -38 -15 -10 0 -18 -4 -18 -10 0 -15 40 -32 65 -27 13 2 30 0 37 -5 22 -14
-11 -28 -69 -28 -46 0 -52 -2 -46 -17 5 -15 3 -16 -8 -5 -7 6 -31 12 -53 12
-38 0 -39 -1 -22 -19 13 -15 14 -20 4 -24 -7 -3 1 -6 19 -6 26 -1 31 -4 26
-18 -5 -12 -2 -15 10 -10 9 3 19 2 22 -3 10 -17 -38 -23 -50 -6 -10 14 -14 14
-31 1 -28 -21 -35 -18 -28 13 l6 27 -22 -25 -22 -25 5 28 c2 15 0 27 -7 28 -7
0 -6 3 2 6 25 10 12 25 -18 20 -32 -7 -33 -6 -24 16 3 8 13 13 24 10 10 -3 21
0 24 6 4 6 2 11 -5 11 -9 0 -9 3 0 14 10 12 19 10 61 -10 28 -13 56 -24 62
-23 10 0 10 2 1 5 -7 3 -9 12 -6 20 4 10 -2 17 -18 21 -19 5 -11 11 46 29 83
27 97 28 71 9z m-1186 -299 c0 -2 -7 -6 -15 -10 -8 -3 -15 -1 -15 4 0 6 7 10
15 10 8 0 15 -2 15 -4z"/>
<path d="M9090 3378 c-14 -6 -41 -14 -60 -18 -28 -6 -23 -7 27 -6 34 0 59 3
57 5 -2 2 1 10 7 18 13 15 4 16 -31 1z"/>
<path d="M3720 3076 c0 -40 1 -40 83 -27 26 4 47 5 47 1 0 -5 -29 -21 -65 -36
-38 -17 -65 -35 -65 -43 0 -11 -3 -12 -11 -4 -12 12 -113 -9 -167 -34 -31 -15
-51 -51 -38 -71 12 -19 24 -179 17 -225 -5 -26 -4 -50 1 -53 13 -8 10 -40 -8
-78 -9 -19 -14 -40 -10 -48 20 -39 36 -62 37 -53 1 6 2 15 4 20 1 6 3 30 4 55
3 50 1 52 43 -50 31 -73 41 -90 50 -84 4 3 8 13 8 22 1 16 1 16 11 0 17 -29
28 -20 31 25 2 29 7 41 16 39 8 -1 12 3 9 10 -2 7 -10 12 -16 10 -13 -2 -15
37 -3 55 5 8 13 -5 22 -35 l14 -47 4 45 c6 81 21 65 16 -18 -3 -49 0 -83 6
-87 5 -3 10 -14 10 -23 -1 -15 -2 -15 -15 2 -14 19 -15 19 -15 -6 0 -25 14
-42 33 -43 4 0 16 -13 27 -30 24 -36 26 -22 4 30 -8 20 -13 47 -11 59 3 19 4
19 15 -6 6 -16 16 -28 21 -28 15 0 18 -42 5 -75 -11 -26 -10 -37 6 -73 11 -23
17 -42 15 -42 -11 0 -55 77 -55 97 0 13 -4 23 -8 23 -14 0 -39 -70 -53 -147
-7 -40 -16 -73 -22 -73 -5 0 -6 -8 -2 -17 9 -21 9 -53 0 -61 -11 -11 -25 22
-25 62 0 31 -3 37 -16 32 -14 -6 -16 -1 -10 34 8 50 -1 68 -21 43 -13 -17 -14
-17 -9 0 7 21 -1 22 -20 2 -17 -17 -49 -21 -39 -5 4 6 11 8 16 5 5 -4 9 -1 9
5 0 7 -7 9 -16 6 -9 -3 -27 -6 -40 -6 -21 0 -23 -4 -18 -24 5 -21 3 -23 -20
-19 -14 3 -26 12 -26 19 0 18 -22 18 -66 -1 -33 -14 -35 -17 -28 -42 4 -16 9
-48 9 -73 1 -25 6 -58 10 -74 6 -21 5 -27 -4 -22 -6 4 -11 13 -11 21 0 8 -4
16 -8 19 -5 3 -9 -9 -9 -27 0 -100 -15 -319 -23 -348 -12 -41 -9 -44 17 -19
12 10 24 16 27 13 3 -4 6 1 6 10 0 10 5 14 14 11 17 -6 38 28 31 48 -3 8 -1
32 4 53 7 32 17 25 12 -7 -2 -13 17 -9 22 5 3 6 6 -7 6 -31 1 -40 2 -41 21
-30 17 11 17 14 4 18 -13 5 -13 8 4 23 19 17 20 17 26 -5 5 -14 9 -18 13 -10
2 6 14 12 25 12 16 0 19 5 14 24 -3 14 -2 28 4 31 6 4 10 -5 10 -20 0 -15 4
-24 10 -20 6 3 10 18 10 33 1 27 1 27 13 5 9 -17 16 -19 30 -12 9 6 17 20 17
31 0 21 0 21 15 2 15 -18 15 -17 13 20 -2 25 2 41 10 44 6 2 12 8 12 13 0 6
-4 7 -10 4 -5 -3 -10 -2 -10 4 0 5 -3 17 -7 27 -4 12 -3 15 6 10 6 -4 19 -2
28 6 15 11 16 11 10 -4 -11 -29 1 -46 30 -40 20 4 24 2 17 -9 -4 -8 -7 -25 -6
-39 2 -20 -5 -29 -38 -44 l-41 -20 7 -53 c8 -64 -9 -73 -27 -13 -19 63 -40 52
-33 -17 5 -51 4 -56 -9 -40 -8 9 -19 17 -24 17 -6 0 -8 11 -5 25 5 30 -6 32
-57 6 l-38 -20 10 -60 c12 -74 27 -80 27 -12 0 60 16 76 22 23 3 -20 1 -38 -4
-40 -11 -5 -10 -104 2 -122 8 -12 10 -9 10 13 0 18 4 26 11 21 7 -4 9 -28 4
-70 -4 -38 -3 -64 3 -64 5 0 14 -10 20 -22 11 -23 11 -23 11 4 1 15 -3 30 -9
33 -5 3 -10 25 -10 48 l0 42 24 -42 c23 -40 24 -45 11 -87 -14 -46 -10 -76 14
-127 11 -21 9 -21 -12 4 l-23 28 -13 -27 c-6 -15 -14 -24 -18 -21 -3 4 -1 13
6 21 9 10 9 15 0 18 -8 3 -8 14 0 43 10 38 7 59 -7 40 -4 -6 -15 -11 -24 -13
-14 -2 -15 2 -7 30 14 49 11 98 -4 98 -25 0 -76 -152 -63 -186 4 -10 -1 -25
-10 -35 -14 -16 -14 -19 -3 -19 8 0 20 5 27 12 13 13 25 -13 36 -80 5 -34 3
-42 -9 -42 -22 0 -18 -18 6 -25 12 -4 18 -10 13 -14 -5 -3 -17 -21 -28 -39
-13 -25 -15 -37 -7 -45 8 -8 11 -7 11 4 0 12 2 12 10 -1 7 -11 5 -18 -6 -27
-15 -11 -15 -14 0 -35 21 -29 20 -39 -1 -31 -31 12 -44 32 -46 68 -2 38 -11
44 -26 18 -6 -11 -11 -13 -11 -5 0 7 -4 10 -10 7 -16 -10 -12 -19 12 -30 12
-6 24 -17 26 -25 4 -12 2 -13 -9 -2 -7 6 -21 12 -31 12 -10 0 -18 7 -18 16 0
8 -4 13 -9 10 -9 -6 -9 -36 3 -88 9 -42 26 -53 18 -13 -2 13 -1 33 3 42 7 17
8 16 15 -2 4 -11 6 -39 3 -63 -5 -32 -1 -47 13 -63 15 -16 16 -22 5 -28 -8 -5
-10 -14 -7 -20 4 -6 11 -9 16 -6 5 3 18 -7 29 -21 14 -18 21 -21 21 -12 0 9
-6 21 -14 27 -7 6 -13 24 -13 39 0 26 0 26 10 4 5 -12 14 -22 19 -22 12 0 9
12 -7 34 -8 11 -15 34 -14 50 0 30 1 30 11 9 13 -27 25 -29 31 -6 2 10 3 3 1
-15 -2 -18 1 -44 6 -56 5 -15 5 -27 -3 -35 -6 -6 -7 -11 -3 -11 5 0 3 -7 -4
-15 -7 -8 -15 -44 -17 -80 -7 -80 5 -88 81 -55 99 43 105 45 116 34 7 -7 8
-25 1 -55 -5 -24 -8 -46 -5 -49 3 -2 35 25 70 62 l65 67 24 -54 24 -54 68 23
c37 13 67 28 66 32 -1 5 -4 18 -8 29 l-7 20 17 -20 c9 -11 20 -27 25 -35 5 -8
11 -12 14 -9 10 10 20 72 10 67 -5 -4 -10 52 -11 130 -2 116 3 160 27 287 16
83 33 196 39 252 5 56 17 115 26 133 13 25 14 41 7 76 -11 52 -7 56 12 12 11
-26 15 -29 16 -13 1 11 1 24 0 30 -4 23 22 251 31 261 8 10 32 294 26 301 -7
7 -47 -30 -47 -43 0 -8 -4 -14 -9 -14 -12 0 -26 -39 -22 -62 1 -10 -2 -18 -7
-18 -13 0 -23 27 -16 44 3 8 -4 24 -16 36 -12 12 -19 25 -15 28 3 4 10 0 15
-8 11 -18 16 -13 25 22 7 27 6 28 -23 22 -24 -5 -30 -2 -35 15 -3 11 1 25 9
32 10 8 12 15 4 23 -5 5 -10 19 -10 29 0 16 3 17 15 7 8 -7 15 -21 15 -32 0
-11 3 -18 8 -16 22 12 100 46 116 52 16 5 18 15 13 79 -3 61 -11 84 -46 147
l-41 75 6 -45 c4 -25 13 -52 20 -61 8 -8 14 -26 14 -39 l0 -23 -25 23 c-14 13
-25 19 -25 14 0 -5 -8 3 -18 18 -14 22 -21 25 -30 16 -9 -9 -12 -7 -12 8 0 34
12 36 35 8 l21 -27 -2 44 c-2 57 -2 59 -13 59 -5 0 -12 -10 -14 -22 -2 -13 -5
2 -6 33 -1 38 -7 64 -20 80 -22 28 -38 109 -22 109 6 0 11 -9 11 -21 0 -19 40
-99 50 -99 5 0 3 86 -3 150 -1 18 3 25 16 24 22 -2 21 15 -3 46 -11 14 -20 30
-20 37 0 6 -8 18 -17 25 -21 15 -26 33 -19 64 5 19 12 22 37 19 27 -3 29 -1
23 18 -24 79 -32 82 -111 37 -41 -23 -53 -27 -53 -15 0 19 54 53 97 61 29 5
31 8 20 26 -13 20 -94 76 -140 96 -25 11 -28 10 -37 -13 -9 -25 -60 -105 -60
-95 0 10 26 76 37 96 15 26 6 38 -15 21 -10 -7 -13 -8 -9 -1 9 16 -20 23 -125
31 l-88 6 0 -37z m470 -402 c0 -6 -7 -17 -15 -24 -13 -10 -15 -7 -13 26 0 22
-2 50 -6 64 -4 14 2 8 13 -14 12 -22 21 -45 21 -52z m-114 -619 c-6 -18 2 -45
15 -45 5 0 9 7 9 16 0 14 2 14 15 0 16 -16 20 -36 6 -36 -4 0 -11 -15 -15 -32
-19 -102 -19 -95 -1 -73 9 11 19 19 23 18 4 -1 7 7 6 17 -1 39 14 19 40 -52
32 -88 33 -110 2 -46 l-23 48 -11 -38 c-6 -20 -9 -47 -6 -59 4 -13 3 -31 -1
-40 -6 -16 -8 -15 -20 7 -8 14 -14 44 -15 67 0 23 -4 45 -10 48 -5 3 -10 26
-10 50 0 47 -15 68 -25 35 -4 -11 -11 -18 -16 -15 -5 4 -9 -5 -9 -19 0 -15 -6
-26 -14 -26 -9 0 -12 -9 -9 -27 4 -27 4 -27 -11 -9 -20 24 -20 31 -1 49 13 13
12 18 -6 41 l-20 26 28 0 28 0 -24 19 c-25 19 -15 38 14 27 8 -3 15 0 15 7 0
8 4 7 11 -3 8 -11 9 -6 5 23 -4 32 -2 37 16 37 14 0 18 -5 14 -15z m-487 -857
c-8 -14 -14 -18 -17 -10 -4 13 17 46 25 38 3 -2 -1 -15 -8 -28z"/>
<path d="M6488 2883 c6 -2 18 -2 25 0 6 3 1 5 -13 5 -14 0 -19 -2 -12 -5z"/>
<path d="M7130 2634 c-65 -32 -90 -50 -86 -60 20 -47 19 -49 -9 -24 -19 17
-29 21 -32 13 -3 -7 -9 -13 -14 -13 -14 0 -149 -100 -149 -111 0 -21 37 -7 72
28 21 20 38 32 38 26 0 -7 -5 -15 -10 -18 -11 -7 -20 -20 -97 -135 -46 -67
-54 -107 -25 -116 75 -26 142 -66 171 -103 19 -23 39 -40 46 -37 14 5 55 -34
55 -53 0 -17 48 -63 60 -56 5 3 19 1 30 -5 22 -12 29 3 8 17 -7 5 -28 25 -47
45 l-34 37 93 -34 c51 -19 97 -35 101 -35 14 0 11 28 -3 33 -7 3 -3 6 10 6 30
1 28 12 -8 46 -17 16 -28 35 -26 41 3 7 -2 15 -11 18 -11 5 -14 2 -8 -11 4
-12 -5 -7 -24 11 -32 31 -44 61 -13 33 9 -8 29 -19 45 -22 27 -7 27 -7 -9 29
-20 20 -34 39 -31 43 4 3 32 -20 64 -51 31 -31 65 -56 73 -56 9 0 25 -7 36
-16 18 -15 18 -15 -9 -11 -21 3 -25 1 -17 -8 15 -18 60 -25 60 -10 0 14 47 9
68 -8 8 -6 12 -6 12 1 0 5 -25 20 -55 32 -57 23 -103 60 -56 45 13 -4 37 -8
53 -9 28 -2 82 -52 72 -68 -2 -3 19 -16 48 -28 l53 -21 -49 7 c-27 3 -61 13
-75 22 -24 16 -25 16 -18 -1 4 -10 7 -23 7 -27 0 -5 21 -33 46 -62 93 -108
101 -118 93 -118 -5 0 -6 -7 -3 -15 4 -8 15 -15 26 -15 19 0 47 -25 48 -42 0
-11 -32 3 -69 30 -23 17 -35 21 -40 13 -5 -8 -15 -5 -32 11 -13 13 -33 30 -43
38 -18 14 -18 13 -11 -10 7 -23 7 -24 -10 -10 -17 14 -18 13 -12 -11 4 -16 1
-33 -8 -45 -11 -15 -14 -16 -15 -4 0 9 5 21 12 28 7 7 8 12 2 12 -15 0 -51
-73 -38 -77 6 -2 20 -11 30 -19 16 -13 16 -15 2 -10 -11 3 -19 -2 -23 -15 -5
-16 -10 -18 -21 -8 -7 6 -11 16 -7 22 3 5 1 7 -5 3 -14 -8 -45 -91 -40 -107 2
-6 24 -19 48 -29 25 -9 49 -27 55 -38 5 -12 22 -27 37 -33 15 -6 33 -18 40
-27 12 -14 10 -14 -10 -3 -50 27 -29 0 70 -89 140 -126 188 -172 188 -182 0
-4 5 -8 11 -8 6 0 8 16 6 40 -2 21 0 41 4 42 14 5 -2 47 -20 53 -26 8 -68 55
-50 55 8 0 21 -6 28 -12 11 -11 13 -10 8 5 -8 23 6 22 28 -3 23 -26 35 -25 35
1 0 18 -2 19 -15 9 -13 -11 -15 -8 -15 15 0 23 3 26 21 22 15 -4 19 -2 15 9
-3 8 -1 14 4 14 18 0 10 25 -11 38 -12 7 -18 16 -15 19 3 3 12 0 21 -7 22 -18
20 8 -2 33 -17 19 -17 20 4 8 19 -9 23 -8 29 11 4 14 1 25 -10 33 -22 16 -20
24 4 18 11 -3 20 0 20 6 0 6 -7 11 -15 11 -8 0 -15 5 -15 10 0 6 -6 10 -14 10
-10 0 -12 7 -8 22 4 17 2 20 -11 15 -28 -11 -48 3 -41 27 9 30 11 30 29 12 22
-21 30 -20 43 7 7 15 11 17 11 6 1 -9 12 -21 26 -27 27 -13 29 -19 16 -75 -9
-37 -8 -38 29 -57 55 -28 62 -45 16 -36 -21 4 -44 10 -52 13 -8 3 -14 -1 -14
-11 0 -9 3 -16 8 -16 4 0 23 -10 42 -22 l35 -22 -25 -6 c-15 -4 -30 -1 -38 7
-21 21 -29 15 -36 -24 -4 -21 -9 -46 -12 -55 -4 -12 -1 -16 9 -12 7 2 20 -2
27 -11 7 -8 18 -15 25 -15 7 0 18 -7 25 -15 7 -8 18 -15 24 -15 6 0 -6 16 -26
35 -46 42 -50 63 -8 38 17 -9 30 -22 30 -28 0 -13 79 -75 94 -75 6 1 0 10 -13
21 l-24 20 34 -5 c108 -14 118 -18 145 -55 15 -20 29 -38 30 -40 2 -2 27 -12
56 -22 48 -17 49 -19 14 -13 -30 4 -37 2 -33 -8 16 -40 18 -52 4 -29 -9 15
-16 19 -19 11 -2 -7 -15 2 -31 24 -36 47 -50 46 -26 -1 10 -20 16 -39 13 -42
-2 -3 -31 24 -64 59 -44 49 -62 62 -70 54 -18 -18 14 -76 71 -135 27 -28 53
-57 58 -67 9 -15 10 -14 11 7 0 20 3 22 28 16 43 -10 92 -44 86 -59 -6 -17 12
-31 21 -16 3 5 11 10 16 10 6 0 7 -4 4 -10 -3 -5 -2 -10 4 -10 5 0 12 -13 16
-30 7 -32 26 -51 33 -32 7 21 31 13 25 -8 -4 -17 0 -20 25 -20 42 0 51 -19 12
-27 -18 -3 -34 -12 -37 -19 -2 -7 -11 -10 -19 -7 -7 3 -17 -2 -20 -12 -4 -9
-13 -14 -20 -11 -8 3 -14 1 -14 -4 0 -10 46 -43 64 -46 6 -1 20 -5 31 -9 13
-5 8 3 -12 20 -37 29 -45 52 -14 35 11 -5 35 -24 53 -40 23 -22 40 -29 55 -25
12 3 25 1 28 -5 3 -5 1 -10 -6 -10 -10 0 -10 -3 0 -12 11 -10 14 -10 18 0 3 6
21 12 40 12 29 0 33 3 24 14 -6 7 -22 11 -35 9 -13 -3 -27 0 -30 6 -5 7 1 11
14 11 12 0 18 4 15 10 -3 5 -19 10 -34 10 -16 0 -36 9 -47 21 -18 20 -18 20
11 13 l30 -7 -19 22 c-28 30 -10 26 33 -9 43 -35 49 -41 103 -103 77 -89 96
-83 123 37 9 42 21 78 27 82 5 3 24 -8 42 -25 18 -17 35 -31 39 -31 9 0 8 75
-2 129 l-9 43 32 -5 c17 -4 41 -9 54 -13 19 -5 25 0 41 37 34 78 36 97 9 102
-15 3 -10 5 15 6 44 1 46 9 10 42 -14 13 -23 18 -19 12 13 -23 -7 -14 -39 17
-17 16 -59 49 -95 73 -42 28 -94 78 -148 143 -46 54 -128 145 -183 201 -55 56
-104 115 -110 132 -6 17 -20 32 -32 35 -12 3 -31 12 -42 21 -19 16 -13 16 29
-1 34 -13 13 12 -89 105 -55 51 -102 101 -105 113 -3 11 -60 72 -128 136 -118
111 -122 114 -122 84 0 -17 5 -34 10 -37 6 -4 8 -10 5 -15 -7 -11 14 -49 40
-72 16 -14 17 -17 4 -18 -9 0 -24 9 -34 20 -12 13 -22 17 -28 11 -12 -12 -47
4 -47 21 0 6 6 5 17 -3 14 -12 15 -12 10 1 -4 8 -10 23 -13 32 -8 21 -34 32
-34 14 0 -22 -25 -37 -38 -24 -30 30 -2 -27 47 -95 19 -26 35 -47 36 -47 10 0
-1 59 -13 73 -8 9 -13 17 -9 17 17 0 167 -63 167 -71 0 -5 -22 0 -50 10 l-49
19 24 -35 c13 -19 37 -43 53 -53 16 -10 31 -27 34 -38 5 -19 4 -19 -26 -7 -17
7 -49 28 -70 46 -22 18 -41 28 -43 22 -2 -5 -19 5 -37 23 -38 38 -74 47 -56
15 15 -28 12 -35 -7 -21 -10 7 -3 -1 15 -18 24 -21 30 -32 21 -37 -8 -6 -5
-13 12 -26 29 -22 22 -32 -11 -16 -14 7 -26 23 -28 35 -3 17 -10 22 -33 22
-29 0 -39 13 -19 25 20 13 10 27 -15 21 -20 -5 -25 -3 -25 14 0 11 4 20 10 20
5 0 6 8 3 18 -6 15 -5 15 13 3 10 -7 4 1 -15 19 -21 20 -30 35 -24 41 6 6 15
4 23 -6 13 -16 40 -21 40 -7 0 4 -6 14 -12 21 -11 10 -10 11 3 6 13 -5 18 2
23 32 3 21 6 50 6 64 0 14 7 46 15 69 l15 44 -41 42 c-23 24 -54 47 -68 52
-35 13 -119 38 -156 46 l-30 7 30 -25 c17 -14 43 -25 58 -26 16 0 35 -6 42
-14 12 -12 10 -15 -16 -20 -17 -3 -28 -10 -24 -15 3 -6 -6 -6 -25 -1 -27 8
-30 6 -30 -13 -1 -22 -1 -22 -15 -3 -21 28 -19 38 8 36 12 -1 26 -2 30 -1 11
1 -43 46 -65 54 -19 7 -25 -8 -8 -18 6 -3 10 -11 10 -18 0 -6 -17 6 -38 26
-26 25 -50 39 -73 41 -34 4 -89 22 -89 30 0 2 28 2 63 0 34 -2 55 -1 47 2 -8
4 -28 18 -44 31 -22 18 -37 23 -57 19 -17 -3 -32 0 -40 10 -16 19 -6 28 18 16
13 -7 22 -6 31 4 11 12 3 14 -50 13 -47 -1 -57 -3 -38 -9 16 -5 19 -8 8 -9
-21 -1 -68 19 -68 30 0 4 8 13 18 18 14 8 10 10 -20 11 -38 0 -69 -27 -83 -71
-4 -10 -13 -19 -21 -19 -11 0 -6 13 16 45 17 25 29 45 26 45 -2 0 -45 -21 -96
-46z m734 -400 c9 -3 16 -10 16 -15 0 -15 -37 -10 -50 6 -10 12 -10 15 3 15 8
0 22 -3 31 -6z"/>
<path d="M5530 2614 c-8 -1 -36 -6 -62 -9 -41 -5 -48 -10 -48 -28 -1 -20 -2
-20 -13 -5 -12 16 -19 15 -108 -4 -95 -20 -158 -44 -89 -34 19 3 46 8 60 11
25 6 -37 -27 -73 -39 -10 -3 -15 -10 -12 -16 3 -6 0 -7 -9 -4 -18 7 -106 -41
-106 -57 0 -6 22 -31 49 -55 34 -31 56 -61 70 -97 11 -29 24 -51 30 -49 6 1
11 -1 12 -5 0 -5 3 -17 6 -28 3 -11 5 -35 4 -53 -1 -21 6 -39 22 -52 12 -12
30 -28 40 -37 15 -14 17 -14 17 -1 0 8 -3 18 -6 21 -4 4 -15 30 -24 58 l-18
51 78 -77 c71 -71 100 -84 83 -38 -6 16 -5 16 10 4 33 -26 33 -5 1 73 -6 15
-4 18 9 13 20 -7 27 12 14 38 -16 30 -26 85 -16 85 5 0 12 -12 16 -27 12 -51
45 -118 71 -145 18 -20 21 -28 11 -28 -8 0 -21 6 -28 13 -10 10 -10 7 0 -15
13 -29 39 -45 48 -29 3 5 16 1 28 -9 19 -15 21 -23 14 -47 -5 -17 -5 -48 -1
-69 21 -106 44 -190 54 -203 8 -11 8 -13 -1 -7 -20 11 -16 -25 3 -39 20 -14
29 -68 11 -63 -7 2 -22 24 -35 48 -12 25 -28 45 -35 45 -11 0 -23 17 -26 38
-1 14 -31 67 -37 67 -4 0 -4 -7 -1 -15 4 -8 2 -17 -3 -20 -6 -4 -10 2 -10 12
-1 11 -6 6 -14 -13 -15 -34 -33 -50 -44 -39 -4 4 1 12 11 19 9 7 17 16 17 20
0 6 -36 -15 -69 -40 -2 -2 4 -15 13 -28 19 -30 21 -40 4 -30 -6 4 -17 -1 -24
-10 -11 -16 -13 -16 -19 3 -3 12 -3 26 1 32 5 8 1 8 -14 0 -24 -13 -72 -72
-72 -88 0 -6 16 -30 35 -53 19 -23 35 -53 35 -66 0 -14 11 -42 25 -62 33 -48
32 -65 -1 -27 -18 21 -24 24 -19 10 25 -75 90 -249 110 -295 13 -30 27 -77 30
-105 6 -46 8 -48 21 -30 8 11 12 25 10 32 -3 7 -1 13 4 13 6 0 10 7 10 16 0 8
4 13 9 10 12 -8 21 46 10 60 -5 6 -15 31 -24 55 -15 44 -15 44 4 22 23 -27 33
-30 24 -6 -4 10 -2 14 5 10 6 -4 13 -21 17 -37 8 -39 18 -44 34 -18 11 18 11
20 -4 14 -14 -5 -16 -2 -11 16 3 13 6 27 6 32 0 5 9 1 20 -9 19 -17 20 -17 20
-1 0 9 4 15 9 12 16 -10 19 18 4 47 -7 15 -9 27 -4 27 5 0 13 -9 16 -20 4 -11
10 -18 15 -15 5 3 5 16 0 31 -14 35 -12 42 5 19 14 -17 17 -18 31 -4 12 13 13
21 4 44 -11 29 -11 29 9 10 12 -10 21 -14 21 -9 0 18 -25 64 -34 64 -5 0 -1 9
8 19 11 12 14 21 7 26 -6 3 -11 3 -11 -1 0 -4 -9 1 -20 11 -24 22 -26 35 -5
35 8 0 15 7 15 15 0 8 5 15 10 15 6 0 10 -8 10 -17 0 -10 4 -25 10 -33 7 -12
12 -11 31 5 20 17 22 18 16 3 -3 -10 1 -31 10 -47 17 -28 16 -30 -10 -70 -15
-22 -27 -43 -27 -46 0 -3 12 -23 26 -45 37 -56 25 -74 -18 -26 -45 48 -58 32
-24 -27 31 -52 35 -78 9 -55 -10 9 -24 13 -31 11 -7 -3 -10 1 -7 10 3 7 0 19
-8 25 -11 9 -20 3 -45 -32 -31 -43 -40 -62 -24 -52 4 2 21 -20 37 -50 16 -30
32 -54 36 -54 4 0 -1 24 -12 52 -21 58 -23 68 -11 68 11 -1 43 -70 36 -81 -3
-5 -1 -15 4 -22 5 -7 15 -29 21 -49 7 -20 19 -42 27 -49 13 -10 13 -8 4 15
-12 33 -12 36 -1 36 9 0 41 -77 41 -101 0 -8 16 -29 35 -48 24 -22 35 -28 35
-17 0 8 -12 26 -27 40 -14 13 -31 40 -38 60 l-12 35 38 -32 c21 -18 41 -44 44
-60 3 -15 8 -41 11 -58 3 -18 25 -52 48 -77 38 -42 35 -49 -6 -14 -21 18 -36
9 -33 -20 1 -13 0 -15 -2 -6 -2 10 -8 18 -13 18 -5 0 -12 20 -15 45 -4 24 -13
52 -19 61 -10 13 -12 4 -9 -47 5 -81 -10 -63 -33 38 -8 39 -22 80 -29 90 -13
17 -14 16 -24 -9 -12 -32 10 -181 31 -205 7 -9 12 -30 10 -47 -2 -29 -1 -30
10 -8 6 12 15 22 20 22 4 0 24 -25 44 -56 27 -41 33 -59 24 -64 -15 -9 -5 -30
15 -30 9 0 13 -14 13 -42 -1 -64 1 -68 20 -68 14 0 15 2 2 10 -9 6 -10 10 -3
10 18 0 27 -20 14 -33 -8 -8 -2 -18 20 -36 l31 -26 -46 1 c-26 1 -49 4 -53 7
-3 4 -12 2 -20 -4 -10 -9 -17 -8 -28 1 -19 15 -19 9 -1 -34 16 -38 56 -83 56
-63 0 7 -7 23 -16 35 -8 12 -12 27 -9 33 7 11 39 -27 40 -46 1 -22 36 -75 50
-75 8 0 15 -4 15 -10 0 -5 -5 -10 -11 -10 -8 0 -7 -5 1 -15 9 -11 15 -13 20
-5 5 9 16 7 38 -4 27 -14 31 -14 26 -1 -4 8 -12 15 -19 15 -7 0 -21 12 -30 27
-10 16 -12 22 -4 15 7 -6 20 -12 29 -12 10 0 7 7 -12 23 -33 28 -56 69 -33 61
8 -4 15 -10 15 -15 0 -5 5 -9 10 -9 6 0 8 12 4 28 -4 21 -3 24 5 12 6 -8 11
-24 11 -36 0 -11 9 -29 20 -39 13 -12 20 -31 20 -54 0 -45 34 -121 54 -121 8
0 42 25 74 55 33 30 64 55 70 55 6 0 16 -16 23 -35 7 -19 18 -34 24 -32 8 3
56 88 68 122 2 6 22 -3 45 -19 l42 -29 56 44 56 43 -24 18 c-13 9 -18 18 -12
18 5 0 19 -7 30 -15 31 -23 43 -19 35 12 -4 16 -12 27 -17 26 -5 0 -21 27 -35
60 -14 34 -39 91 -55 127 -36 76 -43 103 -79 270 -15 69 -43 172 -62 230 -19
59 -34 126 -34 153 -1 37 -8 60 -30 92 -37 55 -37 70 1 25 34 -40 39 -31 11
21 -11 20 -23 54 -27 75 -4 22 -20 73 -35 114 -16 41 -29 88 -29 105 1 32
-111 385 -121 385 -11 0 -26 -54 -28 -102 -1 -28 5 -61 14 -79 13 -24 13 -30
3 -27 -7 2 -19 19 -27 36 -8 18 -20 31 -27 28 -6 -2 -17 7 -23 20 -15 34 -14
41 4 18 14 -18 15 -16 12 24 -5 52 -11 59 -32 38 -20 -19 -35 -21 -36 -3 -1 6
-4 1 -8 -13 -4 -14 -5 -34 -1 -45 4 -11 11 -44 15 -73 4 -30 11 -49 17 -46 5
3 7 13 4 21 -3 8 -2 12 3 9 13 -8 21 18 10 35 -5 8 -9 20 -9 27 0 14 86 -86
114 -133 15 -25 11 -22 -24 13 l-43 44 8 -49 c4 -26 16 -63 27 -81 11 -18 17
-40 14 -48 -10 -26 -35 2 -68 74 -16 35 -33 60 -37 57 -5 -3 -13 9 -16 27 -8
35 -33 78 -45 78 -13 0 -18 -63 -8 -84 7 -13 6 -21 -2 -26 -9 -6 -9 -13 -1
-28 18 -34 12 -49 -10 -22 -14 17 -19 33 -15 52 4 21 0 31 -22 47 -25 19 -25
22 -9 32 25 15 21 29 -9 29 -20 0 -25 4 -20 16 3 9 6 18 6 20 0 2 7 4 16 4 11
0 14 6 10 18 -5 14 -4 14 9 -2 20 -26 20 -1 0 38 -19 35 -19 46 -1 46 8 0 16
-10 18 -22 2 -13 11 -24 21 -26 16 -3 18 0 12 20 -5 18 -4 20 4 8 10 -13 12
-13 21 0 15 23 12 38 -12 70 -12 16 -19 33 -15 36 9 9 47 -25 47 -43 0 -7 5
-13 10 -13 6 0 10 8 10 18 0 9 18 39 39 66 39 49 39 49 26 93 -21 68 -55 116
-125 176 -36 31 -66 54 -68 52 -8 -8 40 -69 68 -87 18 -10 30 -22 26 -25 -3
-3 0 -13 7 -21 9 -12 5 -11 -22 2 -24 13 -36 15 -41 7 -4 -8 -13 -5 -25 9 -18
20 -18 21 0 14 18 -7 18 -6 2 16 -9 14 -17 32 -17 42 0 9 -10 22 -21 29 -20
10 -21 9 -15 -16 4 -17 3 -24 -3 -20 -6 3 -15 23 -21 45 -7 24 -22 47 -40 60
-17 12 -30 19 -30 16 0 -3 -12 6 -27 20 -28 26 -25 47 4 23 24 -19 83 -51 83
-45 0 3 -12 22 -26 43 -27 41 -49 57 -63 49 -10 -6 -25 24 -16 32 2 3 10 0 18
-6 7 -6 18 -7 26 -3 9 6 6 10 -12 15 -14 3 -33 9 -43 13 -12 4 -15 3 -10 -5
11 -18 -5 -14 -38 7 l-29 19 24 5 c13 2 4 5 -21 5 -25 1 -56 -5 -70 -13 -14
-8 -32 -14 -40 -14 -8 0 0 6 18 14 17 8 32 17 32 20 0 5 -53 5 -80 -1z m393
-330 c3 -4 1 -16 -4 -27 -9 -16 -13 -17 -20 -6 -13 21 -11 39 4 39 8 0 17 -3
20 -6z m-503 -43 c0 -5 6 -16 13 -23 6 -7 19 -22 27 -33 15 -20 14 -20 -8 -1
-15 13 -22 15 -22 6 0 -20 -10 -6 -20 29 -5 19 -5 31 1 31 5 0 9 -4 9 -9z
m160 -121 c6 -11 17 -20 25 -20 21 0 43 -39 48 -84 3 -25 15 -51 35 -74 18
-19 30 -37 28 -40 -8 -7 -96 80 -96 95 0 8 5 11 10 8 22 -13 8 17 -24 52 -39
45 -61 83 -47 83 6 0 15 -9 21 -20z"/>
<path d="M5971 1754 c0 -11 3 -14 6 -6 3 7 2 16 -1 19 -3 4 -6 -2 -5 -13z"/>
<path d="M5755 1470 c3 -5 8 -10 11 -10 2 0 4 5 4 10 0 6 -5 10 -11 10 -5 0
-7 -4 -4 -10z"/>
<path d="M8111 1302 c24 -31 31 -35 84 -47 28 -6 29 -5 13 11 -9 9 -29 19 -45
20 -15 2 -29 8 -31 14 -2 5 -13 15 -25 21 -19 11 -19 9 4 -19z"/>
<path d="M8402 912 c4 -12 2 -22 -3 -22 -5 0 -9 -6 -9 -14 0 -10 7 -11 35 -2
32 10 34 12 18 23 -10 7 -24 18 -32 25 -12 10 -13 8 -9 -10z"/>
<path d="M5950 376 c0 -8 -7 -17 -16 -20 -8 -3 -13 -10 -9 -15 3 -6 12 -8 20
-4 9 3 22 0 30 -7 18 -15 19 -3 3 33 -14 29 -28 36 -28 13z"/>
</g>
</svg>
