<?xml version="1.0" ?><!DOCTYPE svg  PUBLIC '-//W3C//DTD SVG 1.1//EN'  'http://www.w3.org/Graphics/SVG/1.1/DTD/svg11.dtd'><svg enable-background="new 0 0 512 512" height="512px" id="Layer_1" version="1.1" viewBox="0 0 512 512" width="512px" xml:space="preserve" xmlns="http://www.w3.org/2000/svg" xmlns:xlink="http://www.w3.org/1999/xlink"><path d="M301.366,193.895c-5.143-53.995-53.106-96.312-111.51-96.312c-61.839,0-111.963,47.423-111.963,105.939  c0,5.675,0.473,11.249,1.38,16.676l0,0c-38.884,4.584-69.082,38.514-69.082,79.675c0,44.281,34.965,80.189,78.098,80.189h286.289  c31.39,0,56.819-22.71,56.819-50.733c0-25.329-20.791-46.333-47.972-50.121l0,0c0-44.296-34.8-85.422-77.934-85.422  C304.108,193.785,302.724,193.823,301.366,193.895" fill="#D8EAEF"/><path d="M259.464,193.895c-4.403-53.995-44.991-97.175-94.862-93.606c-31.369,2.242-86.708,44.717-86.708,103.233  c0,5.675,1.38,16.676,1.38,16.676c-36.08,3.243-69.082,38.514-69.082,79.675c0,44.281,29.933,80.189,66.858,80.189h245.088  c26.874,0,48.644-22.71,48.644-50.733c0-25.329-17.799-46.333-41.069-50.121l0,0c0-44.296-29.791-85.422-66.718-85.422  C261.812,193.785,260.625,193.823,259.464,193.895c-19.558,1.229-36.886,12.524-48.455,29.649" fill="#FFFFFF"/><path d="  M301.366,193.895c-5.143-53.995-53.106-96.312-111.51-96.312c-61.839,0-111.963,47.423-111.963,105.939  c0,5.675,0.473,11.249,1.38,16.676l0,0c-38.884,4.584-69.082,38.514-69.082,79.675c0,44.281,34.965,80.189,78.098,80.189h286.289  c31.39,0,56.819-22.71,56.819-50.733c0-25.329-20.791-46.333-47.972-50.121l0,0C383.426,234.911,344.5,193.895,301.366,193.895  C299.982,193.895,302.724,193.823,301.366,193.895c-22.845,1.229-43.087,12.524-56.6,29.649" fill="none" stroke="#354F65" stroke-linecap="round" stroke-linejoin="round" stroke-miterlimit="10" stroke-width="13"/><path d="M371.776,228.252c-5.143-53.997-53.107-96.313-111.51-96.313c-61.84,0-111.964,47.424-111.964,105.94  c0,5.674,0.473,11.249,1.38,16.675l0,0c-38.884,4.584-69.082,38.514-69.082,79.676c0,44.28,34.965,80.188,78.098,80.188h286.288  c31.391,0,56.82-22.709,56.82-50.733c0-25.329-20.791-46.333-47.973-50.12l0,0c0-44.296-34.799-85.422-77.934-85.422  C374.518,228.143,373.132,228.179,371.776,228.252" fill="#D8EAEF"/><path d="M329.873,228.252c-4.402-53.997-44.991-97.175-94.862-93.608c-31.369,2.244-86.708,44.719-86.708,103.235  c0,5.674,1.38,16.675,1.38,16.675c-36.081,3.244-69.082,38.514-69.082,79.676c0,44.28,29.933,80.188,66.859,80.188h245.088  c26.874,0,48.645-22.709,48.645-50.733c0-25.329-17.799-46.333-41.069-50.12l0,0c0-44.296-29.793-85.422-66.718-85.422  C332.221,228.143,331.035,228.179,329.873,228.252c-19.558,1.229-36.887,12.523-48.455,29.648" fill="#FFFFFF"/><path d="  M371.776,228.252c-5.143-53.997-53.107-96.313-111.51-96.313c-61.84,0-111.964,47.424-111.964,105.94  c0,5.674,0.473,11.249,1.38,16.675l0,0c-38.884,4.584-69.082,38.514-69.082,79.676c0,44.28,34.965,80.188,78.098,80.188h286.288  c31.391,0,56.82-22.709,56.82-50.733c0-25.329-20.791-46.333-47.973-50.12l0,0C453.835,269.269,414.91,228.252,371.776,228.252  C370.392,228.252,373.132,228.179,371.776,228.252c-22.845,1.229-43.087,12.523-56.602,29.648" fill="none" stroke="#354F65" stroke-linecap="round" stroke-linejoin="round" stroke-miterlimit="10" stroke-width="13"/></svg>