<?xml version="1.0" encoding="iso-8859-1"?>
<!-- Generator: Adobe Illustrator 16.0.0, SVG Export Plug-In . SVG Version: 6.00 Build 0)  -->
<!DOCTYPE svg PUBLIC "-//W3C//DTD SVG 1.1//EN" "http://www.w3.org/Graphics/SVG/1.1/DTD/svg11.dtd">
<svg version="1.1" id="Capa_1" xmlns="http://www.w3.org/2000/svg" xmlns:xlink="http://www.w3.org/1999/xlink" x="0px" y="0px"
	 width="612.013px" height="612.012px" viewBox="0 0 612.013 612.012" style="enable-background:new 0 0 612.013 612.012;"
	 xml:space="preserve">
<g>
	<g id="Shape_24_1_">
		<g>
			<path d="M505.062,183.745c0.293-3.417,0.421-6.797,0.421-10.075c0-71.087-58.691-128.937-130.825-128.937
				c-48.692,0-93.521,27.241-115.853,69.098c-25.596-13.659-54.125-20.827-83.369-20.827C78.702,93.017,0,171.068,0,267.013
				c0,23.109,4.566,45.67,13.557,67.019c2.729,6.453,10.266,9.515,16.771,6.836c6.555-2.678,9.667-10.075,6.938-16.516
				c-7.69-18.263-11.593-37.559-11.593-57.339c0-81.992,67.185-148.718,149.764-148.718c29.18,0,57.569,8.366,82.068,24.219
				c3.252,2.092,7.244,2.653,10.981,1.467c3.698-1.173,6.657-3.941,8.047-7.499c15.725-40.365,54.228-66.458,98.125-66.458
				c57.978,0,105.152,46.499,105.152,103.673c0,5.968-0.6,12.422-1.76,18.671c-0.638,3.507,0.255,7.116,2.461,9.948
				c2.22,2.844,5.548,4.617,9.157,4.897c54.202,4.285,96.671,49.854,96.671,103.724c0,47.864-32.572,93.088-75.755,105.191
				c-6.823,1.913-10.777,8.914-8.839,15.609c1.607,5.573,6.76,9.183,12.333,9.183c1.16,0,2.359-0.152,3.52-0.484
				c53.833-15.1,94.414-70.769,94.414-129.499C612,248.444,566.011,194.968,505.062,183.745z M437.214,415.628H180.972
				c-35.034,0-64.66-30.748-64.686-67.159c0-16.924,6.708-32.624,18.888-44.204c12.167-11.593,28.581-17.97,46.193-17.97
				c7.091,0,12.843-5.65,12.843-12.639s-5.739-12.639-12.843-12.639c-24.295,0-47.035,8.902-64.035,25.061
				c-17.243,16.388-26.744,38.541-26.731,62.403c0.025,50.096,41.411,92.424,90.358,92.424h256.242
				c7.091,0,12.843-5.649,12.843-12.639C450.044,421.279,444.305,415.628,437.214,415.628z M437.214,478.809H154.801
				c-7.091,0-12.843,5.65-12.843,12.639c0,6.989,5.739,12.639,12.843,12.639h282.413c7.091,0,12.843-5.649,12.843-12.639
				C450.057,484.459,444.305,478.809,437.214,478.809z M437.214,542.002H154.801c-7.091,0-12.843,5.65-12.843,12.639
				c0,6.989,5.739,12.639,12.843,12.639h282.413c7.091,0,12.843-5.649,12.843-12.639
				C450.044,547.653,444.305,542.002,437.214,542.002z"/>
		</g>
	</g>
</g>
<g>
</g>
<g>
</g>
<g>
</g>
<g>
</g>
<g>
</g>
<g>
</g>
<g>
</g>
<g>
</g>
<g>
</g>
<g>
</g>
<g>
</g>
<g>
</g>
<g>
</g>
<g>
</g>
<g>
</g>
</svg>
