<?xml version="1.0" ?><svg height="64" id="svg5" version="1.1" viewBox="0 0 64 64" width="64" xml:space="preserve" xmlns="http://www.w3.org/2000/svg" xmlns:svg="http://www.w3.org/2000/svg"><defs id="defs2"/><g id="layer1" transform="translate(-96,-288)"><path d="m 128,292 c -6.06322,0 -11,4.93678 -11,11 0,1.80515 0.44024,3.50877 1.21484,5.01367 C 116.42518,308.16104 115,309.67464 115,311.5 c 0,1.04157 0.46657,1.97986 1.19727,2.62305 -1.25114,0.99453 -2.36922,2.14811 -3.33594,3.42187 l -3.95703,-6.85351 1.72265,-6.43164 c 0.14411,-0.53403 -0.17268,-1.08362 -0.70703,-1.22657 -0.10177,-0.0275 -0.20723,-0.0387 -0.3125,-0.0332 -0.43293,0.0225 -0.80203,0.32144 -0.91406,0.74023 l -1.20508,4.5 -2.29297,-3.97265 c -0.13242,-0.22891 -0.35012,-0.39606 -0.60547,-0.46485 -0.25643,-0.069 -0.52978,-0.0331 -0.75976,0.0996 -0.47754,0.27639 -0.64098,0.88733 -0.36524,1.36524 l 2.29297,3.9707 -4.49804,-1.20508 c -0.53403,-0.14411 -1.08362,0.17268 -1.22657,0.70703 -0.144112,0.53403 0.17268,1.08362 0.70703,1.22657 l 6.43165,1.72265 4.44921,7.70508 C 109.95997,322.21463 109,325.49481 109,329 c 0,10.48151 8.51849,19 19,19 10.48151,0 19,-8.51849 19,-19 0,-3.5052 -0.95999,-6.78537 -2.62109,-9.60547 l 4.44921,-7.70508 6.43165,-1.72265 a 1,1 0 0 0 0.70703,-1.22657 1,1 0 0 0 -1.22657,-0.70703 l -4.49804,1.20508 2.29297,-3.9707 c 0.27574,-0.47791 0.1123,-1.08885 -0.36524,-1.36524 -0.47791,-0.27573 -1.08884,-0.11229 -1.36523,0.36524 l -2.29297,3.9707 -1.20508,-4.49805 a 1,1 0 0 0 -1.22656,-0.70703 1,1 0 0 0 -0.70703,1.22657 l 1.72265,6.43164 -3.95703,6.85351 c -0.96672,-1.27376 -2.0848,-2.42733 -3.33594,-3.42187 C 140.53395,313.48033 141,312.54178 141,311.5 c 0,-1.82536 -1.42518,-3.33896 -3.21484,-3.48633 C 138.55976,306.50874 139,304.80515 139,303 c 0,-6.06322 -4.93678,-11 -11,-11 z m 0,2 c 4.9824,0 9,4.0176 9,9 0,1.85261 -0.55577,3.57111 -1.50977,5 H 120.50977 C 119.55577,306.57111 119,304.85261 119,303 c 0,-4.9824 4.0176,-9 9,-9 z m -9.5,16 h 19 c 0.8483,0 1.5,0.6517 1.5,1.5 0,0.8483 -0.6517,1.5 -1.5,1.5 h -1 -18 c -0.8483,0 -1.5,-0.6517 -1.5,-1.5 0,-0.8483 0.6517,-1.5 1.5,-1.5 z m -0.14258,4.99219 h 0.002 c 0.0471,0.002 0.0931,0.008 0.14062,0.008 h 13.05469 l 0.44726,8.05469 c 0.0291,0.53004 0.46721,0.94502 0.99805,0.94531 h 6 c 0.66098,-5.1e-4 1.13967,-0.63068 0.96289,-1.26758 l -2.10547,-7.58203 C 142.18021,318.22994 145,323.27857 145,329 c 0,9.40063 -7.59937,17 -17,17 -9.40063,0 -17,-7.59937 -17,-17 0,-5.81732 2.91122,-10.94409 7.35742,-14.00781 z M 133.55664,315 h 2.18359 l 1.94532,7 h -3.74024 z" id="path25171" style="color:#000000;fill:#000000;fill-rule:evenodd;stroke-linecap:round;stroke-linejoin:round;stroke-miterlimit:4.1"/><path d="m 128,334 c -1.64501,0 -3,1.35499 -3,3 0,1.64501 1.35499,3 3,3 1.64501,0 3,-1.35499 3,-3 0,-1.64501 -1.35499,-3 -3,-3 z m 0,2 c 0.56413,0 1,0.43587 1,1 0,0.56413 -0.43587,1 -1,1 -0.56413,0 -1,-0.43587 -1,-1 0,-0.56413 0.43587,-1 1,-1 z" id="path27367" style="color:#000000;fill:#000000;fill-rule:evenodd;stroke-linecap:round;stroke-linejoin:round;stroke-miterlimit:4.1"/><path d="m 128,328 c -1.09272,0 -2,0.90728 -2,2 0,1.09272 0.90728,2 2,2 1.09272,0 2,-0.90728 2,-2 0,-1.09272 -0.90728,-2 -2,-2 z" id="path22789" style="color:#000000;fill:#000000;fill-rule:evenodd;stroke-linecap:round;stroke-linejoin:round;stroke-miterlimit:4.1"/><path d="m 128,321 c -1.09272,0 -2,0.90728 -2,2 0,1.09272 0.90728,2 2,2 1.09272,0 2,-0.90728 2,-2 0,-1.09272 -0.90728,-2 -2,-2 z" id="path22783" style="color:#000000;fill:#000000;fill-rule:evenodd;stroke-linecap:round;stroke-linejoin:round;stroke-miterlimit:4.1"/><path d="m 124.99956,297.99987 v 0" id="path28105" style="color:#000000;fill:none;fill-rule:evenodd;stroke-width:2;stroke-linecap:round;stroke-linejoin:round;stroke-miterlimit:4.1;-inkscape-stroke:none"/><path d="m 125,297 a 1,1 0 0 0 -1,1 1,1 0 0 0 1,1 1,1 0 0 0 1,-1 1,1 0 0 0 -1,-1 z" id="path28107" style="color:#000000;fill:#000000;fill-rule:evenodd;stroke-linecap:round;stroke-linejoin:round;stroke-miterlimit:4.1;-inkscape-stroke:none"/><path d="m 131,297.99987 v 0" id="path28109" style="color:#000000;fill:none;fill-rule:evenodd;stroke-width:2;stroke-linecap:round;stroke-linejoin:round;stroke-miterlimit:4.1;-inkscape-stroke:none"/><path d="m 131.00044,297 a 1,1 0 0 0 -1,1 1,1 0 0 0 1,1 1,1 0 0 0 1,-1 1,1 0 0 0 -1,-1 z" id="path28111" style="color:#000000;fill:#000000;fill-rule:evenodd;stroke-linecap:round;stroke-linejoin:round;stroke-miterlimit:4.1;-inkscape-stroke:none"/><path d="m 127.99956,300.99987 v 0" id="path28854" style="color:#000000;fill:none;fill-rule:evenodd;stroke-width:2;stroke-linecap:round;stroke-linejoin:round;stroke-miterlimit:4.1;-inkscape-stroke:none"/><path d="m 128,300 a 1,1 0 0 0 -1,1 1,1 0 0 0 1,1 1,1 0 0 0 1,-1 1,1 0 0 0 -1,-1 z" id="path28856" style="color:#000000;fill:#000000;fill-rule:evenodd;stroke-linecap:round;stroke-linejoin:round;stroke-miterlimit:4.1;-inkscape-stroke:none"/><path d="m 125.76563,303.125 a 1,1 0 0 0 -0.36915,1.36523 C 125.91395,305.39288 126.89337,306 128,306 c 1.1055,0 2.0837,-0.60473 2.60156,-1.50586 a 1,1 0 0 0 -0.36719,-1.36523 1,1 0 0 0 -1.36523,0.36718 C 128.6968,303.79599 128.37912,304 128,304 c -0.37951,0 -0.69693,-0.20351 -0.86914,-0.50391 a 1,1 0 0 0 -1.36523,-0.37109 z" id="path31038" style="color:#000000;fill:#000000;fill-rule:evenodd;stroke-linecap:round;stroke-linejoin:round;stroke-miterlimit:4.1"/><path d="m 152.195,332.47487 v 0" id="path54779" style="color:#000000;fill:none;fill-rule:evenodd;stroke-width:2;stroke-linecap:round;stroke-linejoin:round;stroke-miterlimit:4.1;-inkscape-stroke:none"/><path d="m 152.195,331.47487 a 1,1 0 0 0 -1,1 1,1 0 0 0 1,1 1,1 0 0 0 1,-1 1,1 0 0 0 -1,-1 z" id="path54781" style="color:#000000;fill:#000000;fill-rule:evenodd;stroke-linecap:round;stroke-linejoin:round;stroke-miterlimit:4.1;-inkscape-stroke:none"/><path d="m 153.66987,294.33506 v 0" id="path54801" style="color:#000000;fill:none;fill-rule:evenodd;stroke-width:2;stroke-linecap:round;stroke-linejoin:round;stroke-miterlimit:4.1;-inkscape-stroke:none"/><path d="m 153.66987,293.33506 a 1,1 0 0 0 -1,1 1,1 0 0 0 1,1 1,1 0 0 0 1,-1 1,1 0 0 0 -1,-1 z" id="path54803" style="color:#000000;fill:#000000;fill-rule:evenodd;stroke-linecap:round;stroke-linejoin:round;stroke-miterlimit:4.1;-inkscape-stroke:none"/><path d="m 101.62346,330.66531 v 0" id="path54807" style="color:#000000;fill:none;fill-rule:evenodd;stroke-width:2;stroke-linecap:round;stroke-linejoin:round;stroke-miterlimit:4.1;-inkscape-stroke:none"/><path d="m 101.62346,329.66531 a 1,1 0 0 0 -1,1 1,1 0 0 0 1,1 1,1 0 0 0 1,-1 1,1 0 0 0 -1,-1 z" id="path54809" style="color:#000000;fill:#000000;fill-rule:evenodd;stroke-linecap:round;stroke-linejoin:round;stroke-miterlimit:4.1;-inkscape-stroke:none"/><path d="m 102.84743,345.94223 v 0" id="path54813" style="color:#000000;fill:none;fill-rule:evenodd;stroke-width:2;stroke-linecap:round;stroke-linejoin:round;stroke-miterlimit:4.1;-inkscape-stroke:none"/><path d="m 102.84743,344.94223 a 1,1 0 0 0 -1,1 1,1 0 0 0 1,1 1,1 0 0 0 1,-1 1,1 0 0 0 -1,-1 z" id="path54815" style="color:#000000;fill:#000000;fill-rule:evenodd;stroke-linecap:round;stroke-linejoin:round;stroke-miterlimit:4.1;-inkscape-stroke:none"/><path d="m 153.7133,346.77573 v 0" id="path54819" style="color:#000000;fill:none;fill-rule:evenodd;stroke-width:2;stroke-linecap:round;stroke-linejoin:round;stroke-miterlimit:4.1;-inkscape-stroke:none"/><path d="m 153.7133,345.77573 a 1,1 0 0 0 -1,1 1,1 0 0 0 1,1 1,1 0 0 0 1,-1 1,1 0 0 0 -1,-1 z" id="path54821" style="color:#000000;fill:#000000;fill-rule:evenodd;stroke-linecap:round;stroke-linejoin:round;stroke-miterlimit:4.1;-inkscape-stroke:none"/><path d="m 144.04468,298.99117 v 0" id="path54825" style="color:#000000;fill:none;fill-rule:evenodd;stroke-width:2;stroke-linecap:round;stroke-linejoin:round;stroke-miterlimit:4.1;-inkscape-stroke:none"/><path d="m 144.04468,297.99117 a 1,1 0 0 0 -1,1 1,1 0 0 0 1,1 1,1 0 0 0 1,-1 1,1 0 0 0 -1,-1 z" id="path54827" style="color:#000000;fill:#000000;fill-rule:evenodd;stroke-linecap:round;stroke-linejoin:round;stroke-miterlimit:4.1;-inkscape-stroke:none"/><path d="m 114.32823,297.82017 v 0" id="path54831" style="color:#000000;fill:none;fill-rule:evenodd;stroke-width:2;stroke-linecap:round;stroke-linejoin:round;stroke-miterlimit:4.1;-inkscape-stroke:none"/><path d="m 114.32823,296.82017 a 1,1 0 0 0 -1,1 1,1 0 0 0 1,1 1,1 0 0 0 1,-1 1,1 0 0 0 -1,-1 z" id="path54833" style="color:#000000;fill:#000000;fill-rule:evenodd;stroke-linecap:round;stroke-linejoin:round;stroke-miterlimit:4.1;-inkscape-stroke:none"/><path d="m 102.44713,294.92002 v 0" id="path54837" style="color:#000000;fill:none;fill-rule:evenodd;stroke-width:2;stroke-linecap:round;stroke-linejoin:round;stroke-miterlimit:4.1;-inkscape-stroke:none"/><path d="m 102.44713,293.92002 a 1,1 0 0 0 -1,1 1,1 0 0 0 1,1 1,1 0 0 0 1,-1 1,1 0 0 0 -1,-1 z" id="path54839" style="color:#000000;fill:#000000;fill-rule:evenodd;stroke-linecap:round;stroke-linejoin:round;stroke-miterlimit:4.1;-inkscape-stroke:none"/></g></svg>